%TF.GenerationSoftware,KiCad,Pcbnew,7.0.7*%
%TF.CreationDate,2025-03-10T13:51:10-04:00*%
%TF.ProjectId,6116 NVRAM,36313136-204e-4565-9241-4d2e6b696361,rev?*%
%TF.SameCoordinates,Original*%
%TF.FileFunction,Legend,Top*%
%TF.FilePolarity,Positive*%
%FSLAX46Y46*%
G04 Gerber Fmt 4.6, Leading zero omitted, Abs format (unit mm)*
G04 Created by KiCad (PCBNEW 7.0.7) date 2025-03-10 13:51:10*
%MOMM*%
%LPD*%
G01*
G04 APERTURE LIST*
%ADD10C,0.300000*%
%ADD11C,0.150000*%
%ADD12C,0.120000*%
G04 APERTURE END LIST*
D10*
G36*
X147078734Y-65329028D02*
G01*
X147092919Y-65334764D01*
X147107645Y-65341195D01*
X147122071Y-65348202D01*
X147129785Y-65352395D01*
X147141956Y-65361053D01*
X147150612Y-65373143D01*
X147152866Y-65384635D01*
X147143294Y-65397023D01*
X147132855Y-65409481D01*
X147122764Y-65420374D01*
X147116229Y-65426767D01*
X147103707Y-65438867D01*
X147091328Y-65450896D01*
X147079092Y-65462853D01*
X147066999Y-65474738D01*
X147055049Y-65486552D01*
X147043242Y-65498294D01*
X147038560Y-65502971D01*
X147026918Y-65514613D01*
X147015347Y-65526183D01*
X147003848Y-65537682D01*
X146992421Y-65549110D01*
X146981065Y-65560466D01*
X146969781Y-65571750D01*
X146965287Y-65576244D01*
X146955968Y-65588361D01*
X146946225Y-65600445D01*
X146936573Y-65612033D01*
X146925869Y-65624568D01*
X146924254Y-65626436D01*
X146914165Y-65637946D01*
X146903406Y-65649946D01*
X146891977Y-65662435D01*
X146881941Y-65673217D01*
X146871441Y-65684338D01*
X146862705Y-65693480D01*
X146849516Y-65727552D01*
X146839069Y-65738142D01*
X146831564Y-65743672D01*
X146819328Y-65752315D01*
X146808849Y-65760159D01*
X146798669Y-65771772D01*
X146788934Y-65783400D01*
X146785769Y-65787270D01*
X146775945Y-65799119D01*
X146766579Y-65810524D01*
X146758658Y-65820242D01*
X146747999Y-65833609D01*
X146737091Y-65847834D01*
X146728183Y-65859833D01*
X146719116Y-65872381D01*
X146709888Y-65885478D01*
X146700500Y-65899125D01*
X146690952Y-65913322D01*
X146686117Y-65920626D01*
X146676609Y-65935223D01*
X146667502Y-65949706D01*
X146658795Y-65964075D01*
X146650489Y-65978329D01*
X146642583Y-65992468D01*
X146635078Y-66006493D01*
X146627974Y-66020403D01*
X146621271Y-66034199D01*
X146627866Y-66032001D01*
X146641898Y-66039951D01*
X146655142Y-66048688D01*
X146667600Y-66058212D01*
X146669997Y-66060211D01*
X146682133Y-66070644D01*
X146693055Y-66080645D01*
X146703978Y-66091226D01*
X146708832Y-66096115D01*
X146721847Y-66104659D01*
X146734621Y-66112744D01*
X146747581Y-66120758D01*
X146754628Y-66125057D01*
X146767713Y-66132976D01*
X146781325Y-66141667D01*
X146795463Y-66151129D01*
X146807999Y-66159853D01*
X146818741Y-66167556D01*
X146829589Y-66177928D01*
X146842489Y-66190443D01*
X146854655Y-66202458D01*
X146866088Y-66213971D01*
X146876787Y-66224983D01*
X146888658Y-66237537D01*
X146892381Y-66241561D01*
X146902934Y-66252887D01*
X146914138Y-66264863D01*
X146925484Y-66276919D01*
X146936387Y-66288402D01*
X146938542Y-66290654D01*
X146949031Y-66303457D01*
X146959339Y-66316311D01*
X146969467Y-66329217D01*
X146979415Y-66342174D01*
X146989182Y-66355183D01*
X146992398Y-66359531D01*
X147001848Y-66372750D01*
X147010962Y-66386304D01*
X147019742Y-66400193D01*
X147028187Y-66414417D01*
X147036297Y-66428975D01*
X147038926Y-66433903D01*
X147047155Y-66449070D01*
X147054668Y-66464578D01*
X147061466Y-66480426D01*
X147067548Y-66496614D01*
X147072915Y-66513141D01*
X147077566Y-66530009D01*
X147079226Y-66536851D01*
X147082920Y-66554080D01*
X147085988Y-66571648D01*
X147088430Y-66589557D01*
X147090246Y-66607805D01*
X147091248Y-66622649D01*
X147091849Y-66637710D01*
X147092049Y-66652988D01*
X147091736Y-66667908D01*
X147090090Y-66689390D01*
X147087034Y-66709798D01*
X147082568Y-66729129D01*
X147076692Y-66747386D01*
X147069405Y-66764567D01*
X147060708Y-66780672D01*
X147050600Y-66795702D01*
X147039082Y-66809656D01*
X147026154Y-66822535D01*
X147011815Y-66834339D01*
X146996183Y-66845142D01*
X146979237Y-66854882D01*
X146960978Y-66863560D01*
X146941405Y-66871175D01*
X146920518Y-66877728D01*
X146905863Y-66881506D01*
X146890625Y-66884812D01*
X146874802Y-66887646D01*
X146858396Y-66890007D01*
X146841406Y-66891896D01*
X146823832Y-66893313D01*
X146805674Y-66894257D01*
X146786932Y-66894730D01*
X146777342Y-66894789D01*
X146761646Y-66894473D01*
X146746155Y-66893527D01*
X146730871Y-66891949D01*
X146715793Y-66889740D01*
X146700921Y-66886900D01*
X146686255Y-66883429D01*
X146671795Y-66879326D01*
X146657541Y-66874593D01*
X146643493Y-66869228D01*
X146629652Y-66863233D01*
X146620538Y-66858885D01*
X146607138Y-66851841D01*
X146594001Y-66844172D01*
X146581129Y-66835878D01*
X146568520Y-66826960D01*
X146556176Y-66817417D01*
X146544095Y-66807249D01*
X146532279Y-66796457D01*
X146520727Y-66785040D01*
X146509439Y-66772998D01*
X146498414Y-66760332D01*
X146491212Y-66751540D01*
X146400720Y-66639799D01*
X146394575Y-66626120D01*
X146389362Y-66611589D01*
X146382207Y-66596156D01*
X146375028Y-66580448D01*
X146367827Y-66564466D01*
X146360603Y-66548208D01*
X146353356Y-66531676D01*
X146346086Y-66514869D01*
X146338793Y-66497787D01*
X146331477Y-66480431D01*
X146327502Y-66465670D01*
X146323913Y-66450558D01*
X146320710Y-66435095D01*
X146317893Y-66419282D01*
X146317888Y-66419248D01*
X146482053Y-66419248D01*
X146482348Y-66434471D01*
X146483233Y-66449230D01*
X146485075Y-66466326D01*
X146487767Y-66482752D01*
X146491309Y-66498509D01*
X146494143Y-66508641D01*
X146499187Y-66523028D01*
X146504979Y-66536513D01*
X146512680Y-66551107D01*
X146521398Y-66564473D01*
X146529680Y-66574953D01*
X146540030Y-66585760D01*
X146552394Y-66596935D01*
X146564867Y-66607012D01*
X146576785Y-66615874D01*
X146583169Y-66620382D01*
X146596925Y-66629449D01*
X146611814Y-66638517D01*
X146625088Y-66646073D01*
X146639148Y-66653629D01*
X146653996Y-66661186D01*
X146669631Y-66668742D01*
X146683596Y-66674587D01*
X146697280Y-66679942D01*
X146712576Y-66685460D01*
X146727505Y-66690337D01*
X146731180Y-66691457D01*
X146745446Y-66695303D01*
X146760563Y-66698317D01*
X146776205Y-66700035D01*
X146783570Y-66700249D01*
X146798391Y-66699802D01*
X146814500Y-66698085D01*
X146830982Y-66694453D01*
X146844974Y-66689069D01*
X146856477Y-66681931D01*
X146867811Y-66670146D01*
X146875436Y-66655810D01*
X146879100Y-66640927D01*
X146879924Y-66628442D01*
X146879058Y-66613278D01*
X146876461Y-66597508D01*
X146872597Y-66582646D01*
X146867302Y-66567248D01*
X146861313Y-66552899D01*
X146854164Y-66538087D01*
X146850615Y-66531355D01*
X146845426Y-66517103D01*
X146838834Y-66501272D01*
X146832068Y-66486447D01*
X146825642Y-66473208D01*
X146818501Y-66459163D01*
X146815444Y-66453320D01*
X146807469Y-66438052D01*
X146798886Y-66422014D01*
X146791582Y-66408631D01*
X146783888Y-66394754D01*
X146775805Y-66380386D01*
X146767333Y-66365525D01*
X146758472Y-66350173D01*
X146753895Y-66342311D01*
X146743891Y-66328823D01*
X146733848Y-66315286D01*
X146723764Y-66301701D01*
X146713641Y-66288067D01*
X146703477Y-66274384D01*
X146693273Y-66260652D01*
X146683029Y-66246872D01*
X146672745Y-66233043D01*
X146662421Y-66219166D01*
X146652057Y-66205240D01*
X146641653Y-66191265D01*
X146631209Y-66177241D01*
X146620724Y-66163169D01*
X146610200Y-66149049D01*
X146599635Y-66134879D01*
X146589031Y-66120661D01*
X146582436Y-66091352D01*
X146581337Y-66090619D01*
X146574718Y-66104188D01*
X146567534Y-66118311D01*
X146565584Y-66122127D01*
X146559268Y-66135384D01*
X146552412Y-66151527D01*
X146546285Y-66167184D01*
X146541113Y-66181151D01*
X146535700Y-66196401D01*
X146530047Y-66212933D01*
X146525650Y-66226174D01*
X146519994Y-66243067D01*
X146514751Y-66259307D01*
X146509919Y-66274895D01*
X146505500Y-66289830D01*
X146501493Y-66304112D01*
X146497063Y-66321048D01*
X146493278Y-66336963D01*
X146491944Y-66343044D01*
X146489095Y-66357559D01*
X146486313Y-66373702D01*
X146484226Y-66388454D01*
X146482671Y-66403906D01*
X146482053Y-66419248D01*
X146317888Y-66419248D01*
X146316456Y-66410089D01*
X146314457Y-66393389D01*
X146313135Y-66378517D01*
X146312173Y-66363130D01*
X146311572Y-66347227D01*
X146311332Y-66330810D01*
X146311327Y-66328023D01*
X146311480Y-66308387D01*
X146311939Y-66289046D01*
X146312705Y-66269999D01*
X146313777Y-66251247D01*
X146315155Y-66232790D01*
X146316839Y-66214628D01*
X146318830Y-66196760D01*
X146321127Y-66179188D01*
X146323730Y-66161910D01*
X146326640Y-66144927D01*
X146329855Y-66128239D01*
X146333377Y-66111845D01*
X146337206Y-66095747D01*
X146341340Y-66079943D01*
X146345781Y-66064434D01*
X146350528Y-66049220D01*
X146355624Y-66034288D01*
X146361021Y-66019625D01*
X146366718Y-66005231D01*
X146372716Y-65991105D01*
X146379014Y-65977249D01*
X146385613Y-65963663D01*
X146392512Y-65950345D01*
X146399712Y-65937296D01*
X146407213Y-65924516D01*
X146415014Y-65912005D01*
X146423115Y-65899763D01*
X146435831Y-65881905D01*
X146449223Y-65864653D01*
X146463291Y-65848005D01*
X146468131Y-65842591D01*
X146479179Y-65831714D01*
X146487182Y-65823540D01*
X146498141Y-65812510D01*
X146508651Y-65801828D01*
X146514293Y-65796062D01*
X146522775Y-65783447D01*
X146527848Y-65774447D01*
X146535127Y-65761633D01*
X146543671Y-65748195D01*
X146549464Y-65739642D01*
X146559933Y-65726501D01*
X146570595Y-65713457D01*
X146581451Y-65700510D01*
X146592500Y-65687659D01*
X146603742Y-65674904D01*
X146615177Y-65662246D01*
X146626806Y-65649685D01*
X146638627Y-65637220D01*
X146650642Y-65624852D01*
X146662850Y-65612581D01*
X146671096Y-65604454D01*
X146683689Y-65592291D01*
X146696462Y-65580257D01*
X146709414Y-65568351D01*
X146722548Y-65556575D01*
X146735861Y-65544927D01*
X146749355Y-65533408D01*
X146763030Y-65522018D01*
X146776884Y-65510756D01*
X146790919Y-65499624D01*
X146805134Y-65488620D01*
X146814711Y-65481355D01*
X146827368Y-65471720D01*
X146840149Y-65462050D01*
X146853056Y-65452343D01*
X146866088Y-65442601D01*
X146879245Y-65432823D01*
X146892528Y-65423009D01*
X146897876Y-65419073D01*
X146911432Y-65409086D01*
X146925310Y-65399045D01*
X146939511Y-65388950D01*
X146954033Y-65378802D01*
X146968877Y-65368600D01*
X146984043Y-65358344D01*
X146990200Y-65354227D01*
X147003023Y-65349098D01*
X147013284Y-65338546D01*
X147014380Y-65337008D01*
X147028424Y-65332568D01*
X147038926Y-65329681D01*
X147053352Y-65325902D01*
X147063106Y-65323086D01*
X147078734Y-65329028D01*
G37*
G36*
X147175946Y-66207123D02*
G01*
X147172019Y-66191816D01*
X147169378Y-66176597D01*
X147168619Y-66170487D01*
X147167368Y-66155724D01*
X147166681Y-66140726D01*
X147166430Y-66125943D01*
X147166421Y-66122493D01*
X147168688Y-66107518D01*
X147173363Y-66093582D01*
X147179660Y-66079248D01*
X147182541Y-66073400D01*
X147190473Y-66058804D01*
X147198415Y-66045512D01*
X147207414Y-66031499D01*
X147215720Y-66019270D01*
X147224759Y-66006540D01*
X147230535Y-65998662D01*
X147240225Y-65984163D01*
X147249786Y-65970618D01*
X147259218Y-65958025D01*
X147268522Y-65946386D01*
X147279214Y-65934012D01*
X147280727Y-65932350D01*
X147291080Y-65921423D01*
X147301968Y-65910438D01*
X147313012Y-65899995D01*
X147321759Y-65892416D01*
X147329912Y-65879755D01*
X147338710Y-65866502D01*
X147348151Y-65852656D01*
X147358236Y-65838217D01*
X147367132Y-65825732D01*
X147372684Y-65818044D01*
X147382535Y-65804805D01*
X147393085Y-65791189D01*
X147404331Y-65777198D01*
X147413831Y-65765735D01*
X147423777Y-65754032D01*
X147434170Y-65742088D01*
X147445009Y-65729903D01*
X147447789Y-65726819D01*
X147458174Y-65715672D01*
X147468173Y-65704898D01*
X147480905Y-65691113D01*
X147492949Y-65677993D01*
X147504306Y-65665536D01*
X147514977Y-65653744D01*
X147524960Y-65642616D01*
X147536473Y-65629639D01*
X147538647Y-65627168D01*
X147548899Y-65615374D01*
X147559856Y-65602426D01*
X147569344Y-65590791D01*
X147578558Y-65578877D01*
X147586641Y-65567451D01*
X147597932Y-65556889D01*
X147608760Y-65545652D01*
X147612286Y-65541806D01*
X147622881Y-65530369D01*
X147633414Y-65518920D01*
X147643628Y-65507759D01*
X147645992Y-65505169D01*
X147657419Y-65494243D01*
X147669411Y-65483959D01*
X147680796Y-65475494D01*
X147694438Y-65468377D01*
X147709168Y-65464889D01*
X147716334Y-65464503D01*
X147730931Y-65467903D01*
X147745582Y-65471819D01*
X147752970Y-65474028D01*
X147767326Y-65477980D01*
X147783160Y-65483784D01*
X147797474Y-65490748D01*
X147810268Y-65498871D01*
X147823273Y-65509813D01*
X147826609Y-65513229D01*
X147836745Y-65526004D01*
X147844391Y-65540287D01*
X147849548Y-65556078D01*
X147851986Y-65570812D01*
X147852621Y-65583937D01*
X147852411Y-65600377D01*
X147851780Y-65616675D01*
X147850728Y-65632834D01*
X147849255Y-65648853D01*
X147848225Y-65657943D01*
X147846251Y-65673794D01*
X147843857Y-65689609D01*
X147841042Y-65705390D01*
X147837806Y-65721135D01*
X147835769Y-65730117D01*
X147833250Y-65745365D01*
X147831604Y-65760793D01*
X147831372Y-65763456D01*
X147830538Y-65778930D01*
X147830080Y-65794501D01*
X147829912Y-65809738D01*
X147829907Y-65813281D01*
X147829423Y-65828053D01*
X147829174Y-65831600D01*
X147827594Y-65846575D01*
X147826609Y-65852116D01*
X147823243Y-65866954D01*
X147822579Y-65871167D01*
X147821847Y-65883623D01*
X147821847Y-65917695D01*
X147821122Y-65932400D01*
X147819139Y-65947867D01*
X147818549Y-65951401D01*
X147815568Y-65966824D01*
X147812279Y-65981490D01*
X147810123Y-65990235D01*
X147807885Y-66006000D01*
X147805467Y-66021342D01*
X147802659Y-66036729D01*
X147802429Y-66037863D01*
X147799407Y-66052700D01*
X147797667Y-66062043D01*
X147793717Y-66076331D01*
X147789915Y-66090877D01*
X147786676Y-66103808D01*
X147782955Y-66119372D01*
X147779117Y-66134541D01*
X147775316Y-66148949D01*
X147772754Y-66158397D01*
X147784844Y-66195033D01*
X147782165Y-66210970D01*
X147779234Y-66227090D01*
X147776435Y-66242065D01*
X147773120Y-66259513D01*
X147770009Y-66275908D01*
X147767327Y-66290377D01*
X147764474Y-66306047D01*
X147761448Y-66322920D01*
X147758251Y-66340995D01*
X147754883Y-66360272D01*
X147752243Y-66375519D01*
X147749507Y-66391442D01*
X147748574Y-66396900D01*
X147745643Y-66412505D01*
X147742712Y-66427629D01*
X147739781Y-66442272D01*
X147736117Y-66459899D01*
X147732454Y-66476776D01*
X147728790Y-66492901D01*
X147725127Y-66508274D01*
X147721524Y-66522684D01*
X147717059Y-66538724D01*
X147712439Y-66553398D01*
X147706854Y-66568793D01*
X147701059Y-66582330D01*
X147700214Y-66584112D01*
X147695680Y-66598740D01*
X147691971Y-66613736D01*
X147688673Y-66629352D01*
X147687025Y-66637967D01*
X147684087Y-66654514D01*
X147681485Y-66670288D01*
X147678806Y-66687530D01*
X147676515Y-66703020D01*
X147674169Y-66719530D01*
X147672736Y-66729925D01*
X147666380Y-66744637D01*
X147660438Y-66758542D01*
X147654221Y-66773225D01*
X147648556Y-66786711D01*
X147642646Y-66800861D01*
X147636455Y-66816063D01*
X147630925Y-66829931D01*
X147625189Y-66844571D01*
X147619247Y-66859984D01*
X147609633Y-66871153D01*
X147599932Y-66882496D01*
X147591037Y-66892957D01*
X147580738Y-66905012D01*
X147570548Y-66916346D01*
X147559572Y-66928038D01*
X147558431Y-66929227D01*
X147549831Y-66941366D01*
X147539744Y-66953565D01*
X147529383Y-66963978D01*
X147517398Y-66973557D01*
X147504046Y-66981478D01*
X147489193Y-66986803D01*
X147474167Y-66988578D01*
X147459040Y-66986755D01*
X147445530Y-66980206D01*
X147444125Y-66979053D01*
X147435835Y-66966529D01*
X147433511Y-66952024D01*
X147433501Y-66950842D01*
X147434312Y-66935271D01*
X147436065Y-66920434D01*
X147439088Y-66906043D01*
X147443307Y-66891222D01*
X147447789Y-66877936D01*
X147452169Y-66863781D01*
X147456654Y-66849205D01*
X147461245Y-66834208D01*
X147465941Y-66818791D01*
X147468672Y-66809792D01*
X147472448Y-66795000D01*
X147475992Y-66780619D01*
X147479937Y-66763905D01*
X147483548Y-66747784D01*
X147486824Y-66732255D01*
X147488822Y-66722231D01*
X147491642Y-66707831D01*
X147494770Y-66692139D01*
X147497723Y-66677638D01*
X147500883Y-66662525D01*
X147502377Y-66655553D01*
X147503619Y-66640226D01*
X147505130Y-66624632D01*
X147506041Y-66615986D01*
X147507679Y-66600086D01*
X147509215Y-66584430D01*
X147510629Y-66569444D01*
X147511536Y-66559565D01*
X147515372Y-66544567D01*
X147519596Y-66531722D01*
X147523866Y-66517578D01*
X147526191Y-66502779D01*
X147526855Y-66485835D01*
X147528224Y-66469640D01*
X147529936Y-66453862D01*
X147532167Y-66436009D01*
X147534325Y-66420233D01*
X147536815Y-66403128D01*
X147539746Y-66384621D01*
X147542185Y-66369891D01*
X147544829Y-66354434D01*
X147547680Y-66338250D01*
X147550737Y-66321337D01*
X147554000Y-66303697D01*
X147557469Y-66285329D01*
X147561144Y-66266233D01*
X147565025Y-66246410D01*
X147569113Y-66225859D01*
X147570521Y-66218847D01*
X147572540Y-66203709D01*
X147573085Y-66200162D01*
X147576036Y-66185418D01*
X147578947Y-66174883D01*
X147572704Y-66160968D01*
X147569055Y-66152168D01*
X147571197Y-66136938D01*
X147573340Y-66121270D01*
X147573818Y-66117730D01*
X147575381Y-66102497D01*
X147576180Y-66087357D01*
X147576383Y-66074133D01*
X147576944Y-66056900D01*
X147578317Y-66039701D01*
X147580092Y-66023656D01*
X147582439Y-66006055D01*
X147584729Y-65990854D01*
X147587385Y-65974657D01*
X147588106Y-65970452D01*
X147590940Y-65953982D01*
X147593396Y-65938647D01*
X147595934Y-65921071D01*
X147597882Y-65905266D01*
X147599441Y-65888638D01*
X147600184Y-65872462D01*
X147600196Y-65870434D01*
X147599705Y-65855578D01*
X147597632Y-65843690D01*
X147597265Y-65836729D01*
X147589205Y-65839293D01*
X147578189Y-65850006D01*
X147567533Y-65860301D01*
X147553886Y-65873375D01*
X147540880Y-65885706D01*
X147528515Y-65897292D01*
X147516791Y-65908134D01*
X147505709Y-65918232D01*
X147492757Y-65929808D01*
X147490287Y-65931983D01*
X147478627Y-65941933D01*
X147466194Y-65952031D01*
X147453837Y-65961273D01*
X147441349Y-65969136D01*
X147436065Y-65971551D01*
X147427593Y-65984145D01*
X147418903Y-65995991D01*
X147409020Y-66008608D01*
X147399600Y-66020037D01*
X147392834Y-66027971D01*
X147382006Y-66040078D01*
X147370406Y-66052494D01*
X147360148Y-66063077D01*
X147349354Y-66073875D01*
X147338023Y-66084888D01*
X147326156Y-66096115D01*
X147315040Y-66106968D01*
X147303951Y-66117822D01*
X147292887Y-66128675D01*
X147281849Y-66139529D01*
X147270836Y-66150382D01*
X147267171Y-66154000D01*
X147255974Y-66164910D01*
X147244365Y-66176205D01*
X147232344Y-66187887D01*
X147219910Y-66199956D01*
X147209234Y-66210308D01*
X147202691Y-66216648D01*
X147175946Y-66207123D01*
G37*
G36*
X147987810Y-66207123D02*
G01*
X147983883Y-66191816D01*
X147981241Y-66176597D01*
X147980482Y-66170487D01*
X147979231Y-66155724D01*
X147978544Y-66140726D01*
X147978293Y-66125943D01*
X147978284Y-66122493D01*
X147980551Y-66107518D01*
X147985227Y-66093582D01*
X147991523Y-66079248D01*
X147994404Y-66073400D01*
X148002336Y-66058804D01*
X148010278Y-66045512D01*
X148019277Y-66031499D01*
X148027583Y-66019270D01*
X148036622Y-66006540D01*
X148042398Y-65998662D01*
X148052088Y-65984163D01*
X148061649Y-65970618D01*
X148071082Y-65958025D01*
X148080385Y-65946386D01*
X148091077Y-65934012D01*
X148092590Y-65932350D01*
X148102943Y-65921423D01*
X148113831Y-65910438D01*
X148124876Y-65899995D01*
X148133623Y-65892416D01*
X148141776Y-65879755D01*
X148150573Y-65866502D01*
X148160014Y-65852656D01*
X148170099Y-65838217D01*
X148178995Y-65825732D01*
X148184547Y-65818044D01*
X148194399Y-65804805D01*
X148204948Y-65791189D01*
X148216195Y-65777198D01*
X148225694Y-65765735D01*
X148235640Y-65754032D01*
X148246033Y-65742088D01*
X148256872Y-65729903D01*
X148259652Y-65726819D01*
X148270038Y-65715672D01*
X148280037Y-65704898D01*
X148292768Y-65691113D01*
X148304812Y-65677993D01*
X148316169Y-65665536D01*
X148326840Y-65653744D01*
X148336823Y-65642616D01*
X148348336Y-65629639D01*
X148350510Y-65627168D01*
X148360762Y-65615374D01*
X148371719Y-65602426D01*
X148381207Y-65590791D01*
X148390421Y-65578877D01*
X148398504Y-65567451D01*
X148409795Y-65556889D01*
X148420623Y-65545652D01*
X148424150Y-65541806D01*
X148434744Y-65530369D01*
X148445277Y-65518920D01*
X148455491Y-65507759D01*
X148457855Y-65505169D01*
X148469282Y-65494243D01*
X148481274Y-65483959D01*
X148492660Y-65475494D01*
X148506301Y-65468377D01*
X148521031Y-65464889D01*
X148528197Y-65464503D01*
X148542794Y-65467903D01*
X148557445Y-65471819D01*
X148564833Y-65474028D01*
X148579189Y-65477980D01*
X148595023Y-65483784D01*
X148609337Y-65490748D01*
X148622131Y-65498871D01*
X148635137Y-65509813D01*
X148638473Y-65513229D01*
X148648608Y-65526004D01*
X148656254Y-65540287D01*
X148661411Y-65556078D01*
X148663849Y-65570812D01*
X148664484Y-65583937D01*
X148664274Y-65600377D01*
X148663643Y-65616675D01*
X148662591Y-65632834D01*
X148661119Y-65648853D01*
X148660088Y-65657943D01*
X148658115Y-65673794D01*
X148655720Y-65689609D01*
X148652905Y-65705390D01*
X148649670Y-65721135D01*
X148647632Y-65730117D01*
X148645114Y-65745365D01*
X148643467Y-65760793D01*
X148643235Y-65763456D01*
X148642401Y-65778930D01*
X148641943Y-65794501D01*
X148641776Y-65809738D01*
X148641770Y-65813281D01*
X148641286Y-65828053D01*
X148641037Y-65831600D01*
X148639457Y-65846575D01*
X148638473Y-65852116D01*
X148635107Y-65866954D01*
X148634443Y-65871167D01*
X148633710Y-65883623D01*
X148633710Y-65917695D01*
X148632985Y-65932400D01*
X148631002Y-65947867D01*
X148630413Y-65951401D01*
X148627431Y-65966824D01*
X148624143Y-65981490D01*
X148621986Y-65990235D01*
X148619748Y-66006000D01*
X148617330Y-66021342D01*
X148614522Y-66036729D01*
X148614293Y-66037863D01*
X148611270Y-66052700D01*
X148609530Y-66062043D01*
X148605580Y-66076331D01*
X148601778Y-66090877D01*
X148598539Y-66103808D01*
X148594818Y-66119372D01*
X148590980Y-66134541D01*
X148587179Y-66148949D01*
X148584617Y-66158397D01*
X148596707Y-66195033D01*
X148594028Y-66210970D01*
X148591097Y-66227090D01*
X148588298Y-66242065D01*
X148584983Y-66259513D01*
X148581873Y-66275908D01*
X148579191Y-66290377D01*
X148576337Y-66306047D01*
X148573312Y-66322920D01*
X148570115Y-66340995D01*
X148566746Y-66360272D01*
X148564106Y-66375519D01*
X148561370Y-66391442D01*
X148560437Y-66396900D01*
X148557506Y-66412505D01*
X148554575Y-66427629D01*
X148551644Y-66442272D01*
X148547981Y-66459899D01*
X148544317Y-66476776D01*
X148540653Y-66492901D01*
X148536990Y-66508274D01*
X148533387Y-66522684D01*
X148528922Y-66538724D01*
X148524302Y-66553398D01*
X148518717Y-66568793D01*
X148512922Y-66582330D01*
X148512077Y-66584112D01*
X148507543Y-66598740D01*
X148503834Y-66613736D01*
X148500536Y-66629352D01*
X148498888Y-66637967D01*
X148495950Y-66654514D01*
X148493348Y-66670288D01*
X148490669Y-66687530D01*
X148488378Y-66703020D01*
X148486033Y-66719530D01*
X148484600Y-66729925D01*
X148478243Y-66744637D01*
X148472301Y-66758542D01*
X148466085Y-66773225D01*
X148460420Y-66786711D01*
X148454509Y-66800861D01*
X148448318Y-66816063D01*
X148442788Y-66829931D01*
X148437052Y-66844571D01*
X148431110Y-66859984D01*
X148421496Y-66871153D01*
X148411795Y-66882496D01*
X148402900Y-66892957D01*
X148392601Y-66905012D01*
X148382412Y-66916346D01*
X148371435Y-66928038D01*
X148370294Y-66929227D01*
X148361694Y-66941366D01*
X148351607Y-66953565D01*
X148341246Y-66963978D01*
X148329261Y-66973557D01*
X148315909Y-66981478D01*
X148301056Y-66986803D01*
X148286030Y-66988578D01*
X148270903Y-66986755D01*
X148257394Y-66980206D01*
X148255988Y-66979053D01*
X148247698Y-66966529D01*
X148245374Y-66952024D01*
X148245364Y-66950842D01*
X148246175Y-66935271D01*
X148247928Y-66920434D01*
X148250951Y-66906043D01*
X148255170Y-66891222D01*
X148259652Y-66877936D01*
X148264032Y-66863781D01*
X148268518Y-66849205D01*
X148273108Y-66834208D01*
X148277804Y-66818791D01*
X148280535Y-66809792D01*
X148284311Y-66795000D01*
X148287855Y-66780619D01*
X148291800Y-66763905D01*
X148295411Y-66747784D01*
X148298687Y-66732255D01*
X148300685Y-66722231D01*
X148303505Y-66707831D01*
X148306634Y-66692139D01*
X148309586Y-66677638D01*
X148312746Y-66662525D01*
X148314240Y-66655553D01*
X148315482Y-66640226D01*
X148316994Y-66624632D01*
X148317904Y-66615986D01*
X148319543Y-66600086D01*
X148321078Y-66584430D01*
X148322492Y-66569444D01*
X148323399Y-66559565D01*
X148327235Y-66544567D01*
X148331459Y-66531722D01*
X148335729Y-66517578D01*
X148338054Y-66502779D01*
X148338718Y-66485835D01*
X148340088Y-66469640D01*
X148341800Y-66453862D01*
X148344030Y-66436009D01*
X148346188Y-66420233D01*
X148348678Y-66403128D01*
X148351609Y-66384621D01*
X148354048Y-66369891D01*
X148356693Y-66354434D01*
X148359543Y-66338250D01*
X148362600Y-66321337D01*
X148365863Y-66303697D01*
X148369332Y-66285329D01*
X148373007Y-66266233D01*
X148376889Y-66246410D01*
X148380976Y-66225859D01*
X148382384Y-66218847D01*
X148384403Y-66203709D01*
X148384949Y-66200162D01*
X148387899Y-66185418D01*
X148390810Y-66174883D01*
X148384567Y-66160968D01*
X148380919Y-66152168D01*
X148383060Y-66136938D01*
X148385204Y-66121270D01*
X148385681Y-66117730D01*
X148387244Y-66102497D01*
X148388043Y-66087357D01*
X148388246Y-66074133D01*
X148388807Y-66056900D01*
X148390181Y-66039701D01*
X148391955Y-66023656D01*
X148394302Y-66006055D01*
X148396592Y-65990854D01*
X148399248Y-65974657D01*
X148399969Y-65970452D01*
X148402803Y-65953982D01*
X148405259Y-65938647D01*
X148407797Y-65921071D01*
X148409745Y-65905266D01*
X148411304Y-65888638D01*
X148412048Y-65872462D01*
X148412060Y-65870434D01*
X148411569Y-65855578D01*
X148409495Y-65843690D01*
X148409129Y-65836729D01*
X148401069Y-65839293D01*
X148390052Y-65850006D01*
X148379396Y-65860301D01*
X148365749Y-65873375D01*
X148352743Y-65885706D01*
X148340378Y-65897292D01*
X148328654Y-65908134D01*
X148317572Y-65918232D01*
X148304620Y-65929808D01*
X148302150Y-65931983D01*
X148290490Y-65941933D01*
X148278057Y-65952031D01*
X148265700Y-65961273D01*
X148253213Y-65969136D01*
X148247928Y-65971551D01*
X148239456Y-65984145D01*
X148230766Y-65995991D01*
X148220883Y-66008608D01*
X148211464Y-66020037D01*
X148204697Y-66027971D01*
X148193870Y-66040078D01*
X148182269Y-66052494D01*
X148172011Y-66063077D01*
X148161217Y-66073875D01*
X148149887Y-66084888D01*
X148138019Y-66096115D01*
X148126904Y-66106968D01*
X148115814Y-66117822D01*
X148104750Y-66128675D01*
X148093712Y-66139529D01*
X148082699Y-66150382D01*
X148079034Y-66154000D01*
X148067837Y-66164910D01*
X148056228Y-66176205D01*
X148044207Y-66187887D01*
X148031773Y-66199956D01*
X148021097Y-66210308D01*
X148014554Y-66216648D01*
X147987810Y-66207123D01*
G37*
G36*
X149521651Y-65329028D02*
G01*
X149535836Y-65334764D01*
X149550562Y-65341195D01*
X149564988Y-65348202D01*
X149572702Y-65352395D01*
X149584873Y-65361053D01*
X149593528Y-65373143D01*
X149595782Y-65384635D01*
X149586211Y-65397023D01*
X149575772Y-65409481D01*
X149565680Y-65420374D01*
X149559146Y-65426767D01*
X149546624Y-65438867D01*
X149534245Y-65450896D01*
X149522009Y-65462853D01*
X149509916Y-65474738D01*
X149497966Y-65486552D01*
X149486159Y-65498294D01*
X149481477Y-65502971D01*
X149469835Y-65514613D01*
X149458264Y-65526183D01*
X149446765Y-65537682D01*
X149435338Y-65549110D01*
X149423982Y-65560466D01*
X149412698Y-65571750D01*
X149408204Y-65576244D01*
X149398885Y-65588361D01*
X149389142Y-65600445D01*
X149379490Y-65612033D01*
X149368786Y-65624568D01*
X149367171Y-65626436D01*
X149357082Y-65637946D01*
X149346323Y-65649946D01*
X149334894Y-65662435D01*
X149324858Y-65673217D01*
X149314357Y-65684338D01*
X149305622Y-65693480D01*
X149292433Y-65727552D01*
X149281986Y-65738142D01*
X149274481Y-65743672D01*
X149262245Y-65752315D01*
X149251766Y-65760159D01*
X149241586Y-65771772D01*
X149231851Y-65783400D01*
X149228685Y-65787270D01*
X149218862Y-65799119D01*
X149209496Y-65810524D01*
X149201575Y-65820242D01*
X149190916Y-65833609D01*
X149180008Y-65847834D01*
X149171100Y-65859833D01*
X149162033Y-65872381D01*
X149152805Y-65885478D01*
X149143417Y-65899125D01*
X149133869Y-65913322D01*
X149129034Y-65920626D01*
X149119526Y-65935223D01*
X149110419Y-65949706D01*
X149101712Y-65964075D01*
X149093405Y-65978329D01*
X149085500Y-65992468D01*
X149077995Y-66006493D01*
X149070891Y-66020403D01*
X149064188Y-66034199D01*
X149070782Y-66032001D01*
X149084815Y-66039951D01*
X149098059Y-66048688D01*
X149110517Y-66058212D01*
X149112914Y-66060211D01*
X149125050Y-66070644D01*
X149135972Y-66080645D01*
X149146895Y-66091226D01*
X149151749Y-66096115D01*
X149164764Y-66104659D01*
X149177538Y-66112744D01*
X149190498Y-66120758D01*
X149197545Y-66125057D01*
X149210630Y-66132976D01*
X149224242Y-66141667D01*
X149238379Y-66151129D01*
X149250916Y-66159853D01*
X149261658Y-66167556D01*
X149272506Y-66177928D01*
X149285406Y-66190443D01*
X149297572Y-66202458D01*
X149309005Y-66213971D01*
X149319704Y-66224983D01*
X149331575Y-66237537D01*
X149335297Y-66241561D01*
X149345850Y-66252887D01*
X149357055Y-66264863D01*
X149368401Y-66276919D01*
X149379304Y-66288402D01*
X149381459Y-66290654D01*
X149391948Y-66303457D01*
X149402256Y-66316311D01*
X149412384Y-66329217D01*
X149422332Y-66342174D01*
X149432099Y-66355183D01*
X149435315Y-66359531D01*
X149444765Y-66372750D01*
X149453879Y-66386304D01*
X149462659Y-66400193D01*
X149471104Y-66414417D01*
X149479214Y-66428975D01*
X149481843Y-66433903D01*
X149490072Y-66449070D01*
X149497585Y-66464578D01*
X149504383Y-66480426D01*
X149510465Y-66496614D01*
X149515832Y-66513141D01*
X149520483Y-66530009D01*
X149522143Y-66536851D01*
X149525837Y-66554080D01*
X149528905Y-66571648D01*
X149531347Y-66589557D01*
X149533163Y-66607805D01*
X149534165Y-66622649D01*
X149534766Y-66637710D01*
X149534966Y-66652988D01*
X149534653Y-66667908D01*
X149533007Y-66689390D01*
X149529951Y-66709798D01*
X149525485Y-66729129D01*
X149519609Y-66747386D01*
X149512322Y-66764567D01*
X149503625Y-66780672D01*
X149493517Y-66795702D01*
X149481999Y-66809656D01*
X149469071Y-66822535D01*
X149454732Y-66834339D01*
X149439100Y-66845142D01*
X149422154Y-66854882D01*
X149403895Y-66863560D01*
X149384322Y-66871175D01*
X149363435Y-66877728D01*
X149348780Y-66881506D01*
X149333542Y-66884812D01*
X149317719Y-66887646D01*
X149301313Y-66890007D01*
X149284323Y-66891896D01*
X149266749Y-66893313D01*
X149248591Y-66894257D01*
X149229849Y-66894730D01*
X149220259Y-66894789D01*
X149204563Y-66894473D01*
X149189072Y-66893527D01*
X149173788Y-66891949D01*
X149158710Y-66889740D01*
X149143838Y-66886900D01*
X149129172Y-66883429D01*
X149114712Y-66879326D01*
X149100458Y-66874593D01*
X149086410Y-66869228D01*
X149072568Y-66863233D01*
X149063455Y-66858885D01*
X149050055Y-66851841D01*
X149036918Y-66844172D01*
X149024046Y-66835878D01*
X149011437Y-66826960D01*
X148999093Y-66817417D01*
X148987012Y-66807249D01*
X148975196Y-66796457D01*
X148963644Y-66785040D01*
X148952356Y-66772998D01*
X148941331Y-66760332D01*
X148934129Y-66751540D01*
X148843637Y-66639799D01*
X148837492Y-66626120D01*
X148832279Y-66611589D01*
X148825124Y-66596156D01*
X148817945Y-66580448D01*
X148810744Y-66564466D01*
X148803520Y-66548208D01*
X148796273Y-66531676D01*
X148789003Y-66514869D01*
X148781710Y-66497787D01*
X148774394Y-66480431D01*
X148770419Y-66465670D01*
X148766830Y-66450558D01*
X148763627Y-66435095D01*
X148760810Y-66419282D01*
X148760805Y-66419248D01*
X148924969Y-66419248D01*
X148925265Y-66434471D01*
X148926150Y-66449230D01*
X148927992Y-66466326D01*
X148930684Y-66482752D01*
X148934226Y-66498509D01*
X148937060Y-66508641D01*
X148942104Y-66523028D01*
X148947896Y-66536513D01*
X148955597Y-66551107D01*
X148964315Y-66564473D01*
X148972597Y-66574953D01*
X148982947Y-66585760D01*
X148995311Y-66596935D01*
X149007784Y-66607012D01*
X149019702Y-66615874D01*
X149026086Y-66620382D01*
X149039842Y-66629449D01*
X149054731Y-66638517D01*
X149068005Y-66646073D01*
X149082065Y-66653629D01*
X149096913Y-66661186D01*
X149112548Y-66668742D01*
X149126513Y-66674587D01*
X149140197Y-66679942D01*
X149155493Y-66685460D01*
X149170422Y-66690337D01*
X149174097Y-66691457D01*
X149188363Y-66695303D01*
X149203480Y-66698317D01*
X149219122Y-66700035D01*
X149226487Y-66700249D01*
X149241308Y-66699802D01*
X149257417Y-66698085D01*
X149273899Y-66694453D01*
X149287891Y-66689069D01*
X149299394Y-66681931D01*
X149310728Y-66670146D01*
X149318353Y-66655810D01*
X149322017Y-66640927D01*
X149322841Y-66628442D01*
X149321975Y-66613278D01*
X149319378Y-66597508D01*
X149315514Y-66582646D01*
X149310219Y-66567248D01*
X149304229Y-66552899D01*
X149297081Y-66538087D01*
X149293532Y-66531355D01*
X149288343Y-66517103D01*
X149281751Y-66501272D01*
X149274985Y-66486447D01*
X149268559Y-66473208D01*
X149261418Y-66459163D01*
X149258361Y-66453320D01*
X149250386Y-66438052D01*
X149241803Y-66422014D01*
X149234499Y-66408631D01*
X149226805Y-66394754D01*
X149218722Y-66380386D01*
X149210250Y-66365525D01*
X149201388Y-66350173D01*
X149196812Y-66342311D01*
X149186808Y-66328823D01*
X149176765Y-66315286D01*
X149166681Y-66301701D01*
X149156558Y-66288067D01*
X149146394Y-66274384D01*
X149136190Y-66260652D01*
X149125946Y-66246872D01*
X149115662Y-66233043D01*
X149105338Y-66219166D01*
X149094974Y-66205240D01*
X149084570Y-66191265D01*
X149074126Y-66177241D01*
X149063641Y-66163169D01*
X149053117Y-66149049D01*
X149042552Y-66134879D01*
X149031948Y-66120661D01*
X149025353Y-66091352D01*
X149024254Y-66090619D01*
X149017635Y-66104188D01*
X149010451Y-66118311D01*
X149008501Y-66122127D01*
X149002185Y-66135384D01*
X148995329Y-66151527D01*
X148989202Y-66167184D01*
X148984030Y-66181151D01*
X148978617Y-66196401D01*
X148972964Y-66212933D01*
X148968567Y-66226174D01*
X148962911Y-66243067D01*
X148957668Y-66259307D01*
X148952836Y-66274895D01*
X148948417Y-66289830D01*
X148944410Y-66304112D01*
X148939980Y-66321048D01*
X148936195Y-66336963D01*
X148934861Y-66343044D01*
X148932012Y-66357559D01*
X148929230Y-66373702D01*
X148927143Y-66388454D01*
X148925588Y-66403906D01*
X148924969Y-66419248D01*
X148760805Y-66419248D01*
X148759373Y-66410089D01*
X148757374Y-66393389D01*
X148756052Y-66378517D01*
X148755090Y-66363130D01*
X148754489Y-66347227D01*
X148754249Y-66330810D01*
X148754244Y-66328023D01*
X148754397Y-66308387D01*
X148754856Y-66289046D01*
X148755622Y-66269999D01*
X148756694Y-66251247D01*
X148758072Y-66232790D01*
X148759756Y-66214628D01*
X148761747Y-66196760D01*
X148764044Y-66179188D01*
X148766647Y-66161910D01*
X148769557Y-66144927D01*
X148772772Y-66128239D01*
X148776294Y-66111845D01*
X148780123Y-66095747D01*
X148784257Y-66079943D01*
X148788698Y-66064434D01*
X148793445Y-66049220D01*
X148798541Y-66034288D01*
X148803938Y-66019625D01*
X148809635Y-66005231D01*
X148815633Y-65991105D01*
X148821931Y-65977249D01*
X148828530Y-65963663D01*
X148835429Y-65950345D01*
X148842629Y-65937296D01*
X148850130Y-65924516D01*
X148857931Y-65912005D01*
X148866032Y-65899763D01*
X148878748Y-65881905D01*
X148892140Y-65864653D01*
X148906208Y-65848005D01*
X148911048Y-65842591D01*
X148922096Y-65831714D01*
X148930099Y-65823540D01*
X148941058Y-65812510D01*
X148951568Y-65801828D01*
X148957210Y-65796062D01*
X148965692Y-65783447D01*
X148970765Y-65774447D01*
X148978044Y-65761633D01*
X148986588Y-65748195D01*
X148992381Y-65739642D01*
X149002850Y-65726501D01*
X149013512Y-65713457D01*
X149024368Y-65700510D01*
X149035417Y-65687659D01*
X149046659Y-65674904D01*
X149058094Y-65662246D01*
X149069723Y-65649685D01*
X149081544Y-65637220D01*
X149093559Y-65624852D01*
X149105767Y-65612581D01*
X149114013Y-65604454D01*
X149126606Y-65592291D01*
X149139378Y-65580257D01*
X149152331Y-65568351D01*
X149165465Y-65556575D01*
X149178778Y-65544927D01*
X149192272Y-65533408D01*
X149205947Y-65522018D01*
X149219801Y-65510756D01*
X149233836Y-65499624D01*
X149248051Y-65488620D01*
X149257628Y-65481355D01*
X149270285Y-65471720D01*
X149283066Y-65462050D01*
X149295973Y-65452343D01*
X149309005Y-65442601D01*
X149322162Y-65432823D01*
X149335445Y-65423009D01*
X149340793Y-65419073D01*
X149354349Y-65409086D01*
X149368227Y-65399045D01*
X149382428Y-65388950D01*
X149396950Y-65378802D01*
X149411794Y-65368600D01*
X149426960Y-65358344D01*
X149433117Y-65354227D01*
X149445939Y-65349098D01*
X149456201Y-65338546D01*
X149457297Y-65337008D01*
X149471341Y-65332568D01*
X149481843Y-65329681D01*
X149496269Y-65325902D01*
X149506023Y-65323086D01*
X149521651Y-65329028D01*
G37*
G36*
X144897311Y-90485096D02*
G01*
X144896561Y-90504590D01*
X144894310Y-90523505D01*
X144890559Y-90541839D01*
X144885307Y-90559594D01*
X144878555Y-90576770D01*
X144870302Y-90593366D01*
X144860549Y-90609382D01*
X144849295Y-90624819D01*
X144836540Y-90639676D01*
X144822285Y-90653953D01*
X144811949Y-90663150D01*
X144796388Y-90675393D01*
X144780345Y-90686432D01*
X144763819Y-90696267D01*
X144746810Y-90704898D01*
X144729318Y-90712324D01*
X144711343Y-90718546D01*
X144692885Y-90723564D01*
X144673944Y-90727378D01*
X144654520Y-90729987D01*
X144634613Y-90731392D01*
X144621073Y-90731660D01*
X144600641Y-90731064D01*
X144580698Y-90729277D01*
X144561245Y-90726298D01*
X144542282Y-90722128D01*
X144523807Y-90716767D01*
X144505823Y-90710214D01*
X144488327Y-90702470D01*
X144471321Y-90693535D01*
X144454805Y-90683408D01*
X144438778Y-90672090D01*
X144428365Y-90663882D01*
X144413110Y-90650063D01*
X144399355Y-90635671D01*
X144387101Y-90620705D01*
X144376347Y-90605167D01*
X144367094Y-90589055D01*
X144359341Y-90572370D01*
X144353089Y-90555112D01*
X144348337Y-90537281D01*
X144345086Y-90518876D01*
X144343336Y-90499898D01*
X144343002Y-90486928D01*
X144343406Y-90472032D01*
X144344854Y-90456210D01*
X144347355Y-90441669D01*
X144351429Y-90426845D01*
X144324016Y-90428001D01*
X144296915Y-90430920D01*
X144270126Y-90435603D01*
X144243649Y-90442049D01*
X144217484Y-90450258D01*
X144191631Y-90460230D01*
X144166090Y-90471965D01*
X144140861Y-90485463D01*
X144115944Y-90500724D01*
X144103602Y-90509016D01*
X144091339Y-90517749D01*
X144079153Y-90526922D01*
X144067046Y-90536536D01*
X144055016Y-90546591D01*
X144043064Y-90557087D01*
X144031191Y-90568024D01*
X144019395Y-90579401D01*
X144007678Y-90591219D01*
X143996038Y-90603478D01*
X143984477Y-90616178D01*
X143972993Y-90629318D01*
X143961587Y-90642899D01*
X143950260Y-90656921D01*
X143939869Y-90670420D01*
X143929808Y-90683942D01*
X143920077Y-90697488D01*
X143910675Y-90711057D01*
X143901604Y-90724650D01*
X143892862Y-90738267D01*
X143884451Y-90751907D01*
X143876369Y-90765571D01*
X143868617Y-90779259D01*
X143861195Y-90792970D01*
X143854102Y-90806705D01*
X143847340Y-90820463D01*
X143840908Y-90834245D01*
X143834805Y-90848050D01*
X143829032Y-90861880D01*
X143823589Y-90875732D01*
X143818476Y-90889609D01*
X143813693Y-90903509D01*
X143805117Y-90931380D01*
X143797859Y-90959345D01*
X143791922Y-90987405D01*
X143787304Y-91015559D01*
X143784005Y-91043808D01*
X143782026Y-91072151D01*
X143781366Y-91100588D01*
X143781908Y-91126938D01*
X143783535Y-91152450D01*
X143786247Y-91177127D01*
X143790044Y-91200967D01*
X143794926Y-91223970D01*
X143800892Y-91246137D01*
X143807943Y-91267467D01*
X143816079Y-91287961D01*
X143825300Y-91307618D01*
X143835605Y-91326439D01*
X143846995Y-91344424D01*
X143859470Y-91361571D01*
X143873030Y-91377883D01*
X143887674Y-91393358D01*
X143903404Y-91407996D01*
X143920218Y-91421798D01*
X143938117Y-91434764D01*
X143957101Y-91446893D01*
X143977169Y-91458185D01*
X143998322Y-91468641D01*
X144020560Y-91478261D01*
X144043883Y-91487044D01*
X144068291Y-91494991D01*
X144093783Y-91502101D01*
X144120360Y-91508374D01*
X144148022Y-91513812D01*
X144176769Y-91518412D01*
X144206600Y-91522176D01*
X144237517Y-91525104D01*
X144269518Y-91527195D01*
X144302603Y-91528450D01*
X144336774Y-91528868D01*
X144855180Y-91528868D01*
X144850467Y-91548744D01*
X144844297Y-91567337D01*
X144836671Y-91584647D01*
X144827588Y-91600676D01*
X144817048Y-91615422D01*
X144805051Y-91628886D01*
X144791597Y-91641067D01*
X144776686Y-91651967D01*
X144760318Y-91661584D01*
X144742494Y-91669919D01*
X144723213Y-91676971D01*
X144702474Y-91682741D01*
X144680279Y-91687229D01*
X144656627Y-91690435D01*
X144631518Y-91692358D01*
X144604953Y-91693000D01*
X144224667Y-91693000D01*
X144202586Y-91692899D01*
X144180767Y-91692596D01*
X144159209Y-91692091D01*
X144137913Y-91691385D01*
X144116877Y-91690477D01*
X144096103Y-91689367D01*
X144075590Y-91688056D01*
X144055338Y-91686542D01*
X144035347Y-91684827D01*
X144015617Y-91682910D01*
X143996149Y-91680791D01*
X143976941Y-91678471D01*
X143957995Y-91675949D01*
X143939310Y-91673224D01*
X143920887Y-91670299D01*
X143902724Y-91667171D01*
X143884823Y-91663841D01*
X143867182Y-91660310D01*
X143849803Y-91656577D01*
X143832685Y-91652642D01*
X143815829Y-91648506D01*
X143799233Y-91644167D01*
X143782899Y-91639627D01*
X143766826Y-91634885D01*
X143751014Y-91629941D01*
X143735463Y-91624796D01*
X143720173Y-91619448D01*
X143705145Y-91613899D01*
X143690378Y-91608148D01*
X143675872Y-91602196D01*
X143661627Y-91596041D01*
X143647643Y-91589685D01*
X143628938Y-91580603D01*
X143610833Y-91571172D01*
X143593329Y-91561392D01*
X143576425Y-91551262D01*
X143560122Y-91540784D01*
X143544418Y-91529956D01*
X143529315Y-91518779D01*
X143514813Y-91507253D01*
X143500911Y-91495377D01*
X143487609Y-91483153D01*
X143474908Y-91470579D01*
X143462806Y-91457656D01*
X143451306Y-91444384D01*
X143440405Y-91430763D01*
X143430105Y-91416792D01*
X143420405Y-91402473D01*
X143411306Y-91387804D01*
X143402807Y-91372786D01*
X143394908Y-91357418D01*
X143387610Y-91341702D01*
X143380912Y-91325636D01*
X143374815Y-91309221D01*
X143369317Y-91292457D01*
X143364420Y-91275344D01*
X143360124Y-91257882D01*
X143356428Y-91240070D01*
X143353332Y-91221909D01*
X143350836Y-91203399D01*
X143348941Y-91184540D01*
X143347646Y-91165332D01*
X143346952Y-91145774D01*
X143346858Y-91125868D01*
X143347546Y-91103382D01*
X143349062Y-91080896D01*
X143351404Y-91058411D01*
X143354574Y-91035925D01*
X143358571Y-91013440D01*
X143363396Y-90990954D01*
X143369047Y-90968468D01*
X143375526Y-90945983D01*
X143382832Y-90923497D01*
X143390965Y-90901012D01*
X143399925Y-90878526D01*
X143409712Y-90856040D01*
X143420327Y-90833555D01*
X143431768Y-90811069D01*
X143444037Y-90788584D01*
X143457133Y-90766098D01*
X143466459Y-90750834D01*
X143476027Y-90735773D01*
X143485837Y-90720913D01*
X143495888Y-90706255D01*
X143506181Y-90691798D01*
X143516716Y-90677544D01*
X143527493Y-90663491D01*
X143538512Y-90649640D01*
X143549773Y-90635991D01*
X143561275Y-90622543D01*
X143573020Y-90609298D01*
X143585006Y-90596254D01*
X143597234Y-90583412D01*
X143609704Y-90570771D01*
X143622416Y-90558333D01*
X143635370Y-90546096D01*
X143648565Y-90534061D01*
X143662003Y-90522228D01*
X143675682Y-90510597D01*
X143689603Y-90499167D01*
X143703766Y-90487939D01*
X143718171Y-90476913D01*
X143732818Y-90466089D01*
X143747706Y-90455467D01*
X143762837Y-90445046D01*
X143778209Y-90434827D01*
X143793823Y-90424810D01*
X143809679Y-90414995D01*
X143825777Y-90405382D01*
X143842117Y-90395970D01*
X143858698Y-90386760D01*
X143875521Y-90377752D01*
X143891971Y-90369232D01*
X143908486Y-90360982D01*
X143925064Y-90353003D01*
X143941707Y-90345294D01*
X143958415Y-90337856D01*
X143975187Y-90330688D01*
X143992023Y-90323791D01*
X144008924Y-90317164D01*
X144025889Y-90310808D01*
X144042918Y-90304722D01*
X144060012Y-90298907D01*
X144077171Y-90293362D01*
X144094393Y-90288088D01*
X144111680Y-90283084D01*
X144129032Y-90278350D01*
X144146448Y-90273887D01*
X144163928Y-90269695D01*
X144181473Y-90265773D01*
X144199082Y-90262122D01*
X144216755Y-90258741D01*
X144234493Y-90255630D01*
X144252296Y-90252790D01*
X144270162Y-90250221D01*
X144288093Y-90247921D01*
X144306089Y-90245893D01*
X144324149Y-90244135D01*
X144342273Y-90242647D01*
X144360462Y-90241430D01*
X144378715Y-90240483D01*
X144397032Y-90239807D01*
X144415414Y-90239401D01*
X144433861Y-90239266D01*
X144639757Y-90239266D01*
X144658324Y-90239923D01*
X144676517Y-90241894D01*
X144694336Y-90245178D01*
X144711782Y-90249776D01*
X144728855Y-90255688D01*
X144745554Y-90262914D01*
X144761879Y-90271453D01*
X144777831Y-90281306D01*
X144793409Y-90292473D01*
X144808614Y-90304954D01*
X144818543Y-90314004D01*
X144832620Y-90328146D01*
X144845312Y-90342680D01*
X144856620Y-90357606D01*
X144866543Y-90372926D01*
X144875081Y-90388639D01*
X144882235Y-90404744D01*
X144888004Y-90421242D01*
X144892388Y-90438133D01*
X144895388Y-90455417D01*
X144897004Y-90473094D01*
X144897311Y-90485096D01*
G37*
G36*
X146435309Y-90239266D02*
G01*
X146078836Y-91252996D01*
X146070525Y-91276071D01*
X146061939Y-91298814D01*
X146053079Y-91321226D01*
X146043946Y-91343305D01*
X146034538Y-91365052D01*
X146024856Y-91386467D01*
X146014900Y-91407550D01*
X146004670Y-91428301D01*
X145994166Y-91448720D01*
X145983388Y-91468807D01*
X145972336Y-91488563D01*
X145961010Y-91507986D01*
X145949410Y-91527077D01*
X145937536Y-91545836D01*
X145925387Y-91564263D01*
X145912965Y-91582357D01*
X145900268Y-91600120D01*
X145887298Y-91617551D01*
X145874053Y-91634650D01*
X145860535Y-91651417D01*
X145846742Y-91667852D01*
X145832675Y-91683955D01*
X145818334Y-91699726D01*
X145803720Y-91715165D01*
X145788831Y-91730271D01*
X145773668Y-91745046D01*
X145758231Y-91759489D01*
X145742520Y-91773600D01*
X145726534Y-91787378D01*
X145710275Y-91800825D01*
X145693742Y-91813940D01*
X145676935Y-91826722D01*
X145662559Y-91837249D01*
X145648148Y-91847441D01*
X145633700Y-91857298D01*
X145619215Y-91866822D01*
X145604694Y-91876012D01*
X145590136Y-91884867D01*
X145575542Y-91893388D01*
X145560912Y-91901575D01*
X145546245Y-91909428D01*
X145531541Y-91916947D01*
X145516801Y-91924131D01*
X145502024Y-91930982D01*
X145487211Y-91937498D01*
X145472362Y-91943680D01*
X145457476Y-91949528D01*
X145442553Y-91955042D01*
X145427594Y-91960221D01*
X145412598Y-91965066D01*
X145397566Y-91969578D01*
X145382498Y-91973755D01*
X145367393Y-91977598D01*
X145352251Y-91981106D01*
X145337073Y-91984281D01*
X145321859Y-91987121D01*
X145306608Y-91989628D01*
X145291320Y-91991800D01*
X145275996Y-91993638D01*
X145260636Y-91995141D01*
X145245239Y-91996311D01*
X145229806Y-91997146D01*
X145214336Y-91997647D01*
X145198829Y-91997815D01*
X145179858Y-91997551D01*
X145161323Y-91996761D01*
X145143222Y-91995445D01*
X145125556Y-91993601D01*
X145108326Y-91991231D01*
X145091530Y-91988335D01*
X145075170Y-91984912D01*
X145059244Y-91980962D01*
X145043754Y-91976485D01*
X145028699Y-91971482D01*
X145014079Y-91965952D01*
X144999893Y-91959896D01*
X144986143Y-91953313D01*
X144972828Y-91946203D01*
X144959948Y-91938567D01*
X144947503Y-91930404D01*
X144935259Y-91921526D01*
X144923804Y-91912297D01*
X144908103Y-91897793D01*
X144894180Y-91882497D01*
X144882034Y-91866409D01*
X144871666Y-91849529D01*
X144863075Y-91831856D01*
X144856261Y-91813392D01*
X144851225Y-91794135D01*
X144847967Y-91774086D01*
X144846486Y-91753245D01*
X144846387Y-91746122D01*
X144847092Y-91727695D01*
X144849208Y-91709784D01*
X144852733Y-91692387D01*
X144857670Y-91675506D01*
X144864016Y-91659139D01*
X144871773Y-91643288D01*
X144880941Y-91627953D01*
X144891518Y-91613132D01*
X144903506Y-91598827D01*
X144916905Y-91585037D01*
X144926621Y-91576129D01*
X144942020Y-91563493D01*
X144957992Y-91552100D01*
X144974537Y-91541949D01*
X144991656Y-91533041D01*
X145009348Y-91525377D01*
X145027613Y-91518955D01*
X145046451Y-91513776D01*
X145065862Y-91509840D01*
X145085846Y-91507147D01*
X145106404Y-91505697D01*
X145120427Y-91505421D01*
X145141560Y-91506042D01*
X145162094Y-91507907D01*
X145182029Y-91511014D01*
X145201365Y-91515364D01*
X145220102Y-91520957D01*
X145238241Y-91527794D01*
X145255780Y-91535873D01*
X145272720Y-91545194D01*
X145289062Y-91555759D01*
X145304804Y-91567567D01*
X145314967Y-91576129D01*
X145329371Y-91589576D01*
X145342358Y-91603538D01*
X145353929Y-91618015D01*
X145364082Y-91633007D01*
X145372819Y-91648515D01*
X145380139Y-91664538D01*
X145386043Y-91681075D01*
X145390529Y-91698129D01*
X145393599Y-91715697D01*
X145395252Y-91733780D01*
X145395567Y-91746122D01*
X145394902Y-91761262D01*
X145393300Y-91775867D01*
X145391537Y-91787521D01*
X145409865Y-91778595D01*
X145427755Y-91768025D01*
X145445208Y-91755814D01*
X145462222Y-91741961D01*
X145473322Y-91731813D01*
X145484227Y-91720935D01*
X145494937Y-91709327D01*
X145505453Y-91696989D01*
X145515774Y-91683922D01*
X145525901Y-91670125D01*
X145535833Y-91655597D01*
X145545570Y-91640340D01*
X145555113Y-91624353D01*
X145564461Y-91607637D01*
X145572365Y-91592622D01*
X145580552Y-91576016D01*
X145589023Y-91557820D01*
X145597777Y-91538033D01*
X145603771Y-91523958D01*
X145609890Y-91509176D01*
X145616135Y-91493687D01*
X145622507Y-91477491D01*
X145629004Y-91460589D01*
X145635627Y-91442979D01*
X145642376Y-91424662D01*
X145649251Y-91405638D01*
X145656252Y-91385908D01*
X145663379Y-91365470D01*
X145973690Y-90497187D01*
X145380180Y-90497187D01*
X145363660Y-90497494D01*
X145347350Y-90498417D01*
X145331248Y-90499956D01*
X145315356Y-90502110D01*
X145299672Y-90504879D01*
X145284198Y-90508263D01*
X145268932Y-90512263D01*
X145253875Y-90516879D01*
X145239028Y-90522109D01*
X145224389Y-90527955D01*
X145209959Y-90534417D01*
X145195738Y-90541494D01*
X145181726Y-90549186D01*
X145167923Y-90557494D01*
X145154329Y-90566416D01*
X145140944Y-90575955D01*
X145126969Y-90586934D01*
X145113896Y-90598257D01*
X145101724Y-90609924D01*
X145090454Y-90621934D01*
X145080086Y-90634287D01*
X145070619Y-90646984D01*
X145062054Y-90660024D01*
X145054390Y-90673408D01*
X145047628Y-90687135D01*
X145041768Y-90701206D01*
X145036809Y-90715620D01*
X145032752Y-90730377D01*
X145029596Y-90745478D01*
X145027342Y-90760923D01*
X145025990Y-90776711D01*
X145025539Y-90792842D01*
X145026064Y-90809124D01*
X145027638Y-90824034D01*
X145031371Y-90841779D01*
X145036969Y-90857086D01*
X145044434Y-90869955D01*
X145056389Y-90882611D01*
X145071260Y-90891457D01*
X145085256Y-90895791D01*
X145089444Y-90877994D01*
X145094727Y-90860873D01*
X145101105Y-90844429D01*
X145108578Y-90828660D01*
X145117145Y-90813568D01*
X145126807Y-90799152D01*
X145137564Y-90785413D01*
X145149416Y-90772349D01*
X145162362Y-90759962D01*
X145176404Y-90748251D01*
X145186373Y-90740819D01*
X145200861Y-90730801D01*
X145215748Y-90721769D01*
X145231034Y-90713722D01*
X145246720Y-90706661D01*
X145262805Y-90700585D01*
X145279289Y-90695494D01*
X145296173Y-90691389D01*
X145313455Y-90688268D01*
X145331138Y-90686134D01*
X145349219Y-90684984D01*
X145361495Y-90684765D01*
X145381365Y-90685335D01*
X145400719Y-90687045D01*
X145419558Y-90689894D01*
X145437882Y-90693884D01*
X145455691Y-90699014D01*
X145472984Y-90705283D01*
X145489763Y-90712692D01*
X145506026Y-90721241D01*
X145521774Y-90730930D01*
X145537006Y-90741759D01*
X145546875Y-90749612D01*
X145562000Y-90762949D01*
X145575636Y-90776994D01*
X145587785Y-90791748D01*
X145598447Y-90807211D01*
X145607621Y-90823382D01*
X145615307Y-90840261D01*
X145621505Y-90857849D01*
X145626216Y-90876145D01*
X145629439Y-90895149D01*
X145631175Y-90914862D01*
X145631505Y-90928397D01*
X145631110Y-90943435D01*
X145629925Y-90958050D01*
X145626667Y-90979177D01*
X145621631Y-90999352D01*
X145614817Y-91018573D01*
X145606226Y-91036841D01*
X145595858Y-91054156D01*
X145583712Y-91070518D01*
X145569789Y-91085927D01*
X145554088Y-91100382D01*
X145536610Y-91113885D01*
X145530389Y-91118174D01*
X145513804Y-91128715D01*
X145496472Y-91138220D01*
X145478392Y-91146687D01*
X145459566Y-91154118D01*
X145439993Y-91160512D01*
X145419672Y-91165869D01*
X145398605Y-91170189D01*
X145376791Y-91173472D01*
X145361833Y-91175085D01*
X145346543Y-91176237D01*
X145330921Y-91176928D01*
X145314967Y-91177159D01*
X145290405Y-91176798D01*
X145266360Y-91175716D01*
X145242834Y-91173913D01*
X145219826Y-91171388D01*
X145197337Y-91168143D01*
X145175365Y-91164176D01*
X145153911Y-91159487D01*
X145132975Y-91154078D01*
X145112558Y-91147947D01*
X145092658Y-91141095D01*
X145073276Y-91133521D01*
X145054413Y-91125226D01*
X145036068Y-91116210D01*
X145018240Y-91106473D01*
X145000931Y-91096015D01*
X144984140Y-91084835D01*
X144966438Y-91071525D01*
X144949879Y-91057609D01*
X144934462Y-91043086D01*
X144920186Y-91027957D01*
X144907053Y-91012220D01*
X144895062Y-90995877D01*
X144884212Y-90978927D01*
X144874505Y-90961370D01*
X144865940Y-90943206D01*
X144858517Y-90924436D01*
X144852236Y-90905059D01*
X144847097Y-90885075D01*
X144843100Y-90864484D01*
X144840244Y-90843286D01*
X144838531Y-90821482D01*
X144837960Y-90799071D01*
X144838172Y-90782174D01*
X144838806Y-90765510D01*
X144839863Y-90749078D01*
X144841344Y-90732879D01*
X144843247Y-90716912D01*
X144845572Y-90701178D01*
X144848321Y-90685677D01*
X144851493Y-90670408D01*
X144855088Y-90655372D01*
X144859105Y-90640568D01*
X144863545Y-90625997D01*
X144868409Y-90611658D01*
X144873695Y-90597552D01*
X144879404Y-90583679D01*
X144885536Y-90570038D01*
X144892091Y-90556629D01*
X144899068Y-90543453D01*
X144906469Y-90530510D01*
X144914293Y-90517799D01*
X144922539Y-90505321D01*
X144931208Y-90493075D01*
X144940301Y-90481062D01*
X144949816Y-90469282D01*
X144959754Y-90457734D01*
X144970115Y-90446418D01*
X144980898Y-90435335D01*
X144992105Y-90424485D01*
X145003735Y-90413867D01*
X145015787Y-90403482D01*
X145028262Y-90393329D01*
X145041161Y-90383409D01*
X145054482Y-90373722D01*
X145078659Y-90357440D01*
X145103563Y-90342209D01*
X145129194Y-90328028D01*
X145142282Y-90321331D01*
X145155552Y-90314897D01*
X145169004Y-90308726D01*
X145182638Y-90302817D01*
X145196453Y-90297171D01*
X145210450Y-90291788D01*
X145224629Y-90286667D01*
X145238989Y-90281809D01*
X145253531Y-90277213D01*
X145268255Y-90272880D01*
X145283161Y-90268810D01*
X145298248Y-90265002D01*
X145313518Y-90261457D01*
X145328969Y-90258174D01*
X145344601Y-90255154D01*
X145360416Y-90252397D01*
X145376412Y-90249902D01*
X145392590Y-90247670D01*
X145408950Y-90245700D01*
X145425491Y-90243993D01*
X145442215Y-90242549D01*
X145459120Y-90241367D01*
X145476206Y-90240448D01*
X145493475Y-90239791D01*
X145510925Y-90239397D01*
X145528557Y-90239266D01*
X146435309Y-90239266D01*
G37*
G36*
X148124981Y-90772692D02*
G01*
X148124688Y-90796615D01*
X148123810Y-90820341D01*
X148122347Y-90843873D01*
X148120298Y-90867209D01*
X148117664Y-90890349D01*
X148114445Y-90913295D01*
X148110640Y-90936045D01*
X148106250Y-90958599D01*
X148101275Y-90980959D01*
X148095714Y-91003123D01*
X148089569Y-91025091D01*
X148082837Y-91046865D01*
X148075521Y-91068443D01*
X148067619Y-91089825D01*
X148059132Y-91111012D01*
X148050059Y-91132004D01*
X148040401Y-91152801D01*
X148030158Y-91173402D01*
X148019330Y-91193808D01*
X148007916Y-91214018D01*
X147995917Y-91234033D01*
X147983332Y-91253853D01*
X147970162Y-91273478D01*
X147956407Y-91292907D01*
X147942067Y-91312141D01*
X147927141Y-91331179D01*
X147911630Y-91350022D01*
X147895534Y-91368670D01*
X147878852Y-91387122D01*
X147861585Y-91405379D01*
X147843732Y-91423441D01*
X147825295Y-91441307D01*
X147807066Y-91458235D01*
X147788697Y-91474625D01*
X147770187Y-91490478D01*
X147751535Y-91505793D01*
X147732743Y-91520571D01*
X147713810Y-91534812D01*
X147694736Y-91548515D01*
X147675520Y-91561681D01*
X147656164Y-91574309D01*
X147636667Y-91586400D01*
X147617029Y-91597954D01*
X147597250Y-91608970D01*
X147577330Y-91619449D01*
X147557269Y-91629391D01*
X147537067Y-91638795D01*
X147516724Y-91647662D01*
X147496241Y-91655991D01*
X147475616Y-91663783D01*
X147454850Y-91671038D01*
X147433943Y-91677755D01*
X147412896Y-91683935D01*
X147391707Y-91689578D01*
X147370377Y-91694683D01*
X147348907Y-91699251D01*
X147327295Y-91703281D01*
X147305543Y-91706774D01*
X147283649Y-91709730D01*
X147261615Y-91712148D01*
X147239439Y-91714029D01*
X147217123Y-91715372D01*
X147194665Y-91716178D01*
X147172067Y-91716447D01*
X147155507Y-91716305D01*
X147139166Y-91715882D01*
X147123044Y-91715175D01*
X147107141Y-91714186D01*
X147091456Y-91712914D01*
X147075991Y-91711359D01*
X147060745Y-91709522D01*
X147045717Y-91707402D01*
X147030909Y-91705000D01*
X147016319Y-91702315D01*
X147001949Y-91699347D01*
X146973865Y-91692563D01*
X146946657Y-91684649D01*
X146920324Y-91675605D01*
X146894868Y-91665430D01*
X146870287Y-91654124D01*
X146846582Y-91641687D01*
X146823753Y-91628120D01*
X146801800Y-91613423D01*
X146780722Y-91597595D01*
X146760521Y-91580636D01*
X146750748Y-91571733D01*
X146732026Y-91553179D01*
X146714513Y-91533786D01*
X146698206Y-91513554D01*
X146683108Y-91492484D01*
X146669218Y-91470575D01*
X146656535Y-91447827D01*
X146645061Y-91424241D01*
X146634794Y-91399816D01*
X146625735Y-91374553D01*
X146617884Y-91348451D01*
X146611241Y-91321510D01*
X146605805Y-91293731D01*
X146601578Y-91265113D01*
X146599917Y-91250490D01*
X146598558Y-91235657D01*
X146597501Y-91220614D01*
X146596746Y-91205362D01*
X146596294Y-91189899D01*
X146596143Y-91174228D01*
X146596380Y-91157851D01*
X146597093Y-91141329D01*
X146598281Y-91124661D01*
X146599944Y-91107847D01*
X146602082Y-91090887D01*
X146604695Y-91073781D01*
X146607783Y-91056529D01*
X146611347Y-91039131D01*
X146615385Y-91021587D01*
X146619899Y-91003897D01*
X146624888Y-90986061D01*
X146630352Y-90968079D01*
X146636291Y-90949951D01*
X146642705Y-90931677D01*
X146649595Y-90913258D01*
X146656959Y-90894692D01*
X146664295Y-90877073D01*
X146671923Y-90859664D01*
X146679842Y-90842463D01*
X146688054Y-90825472D01*
X146696558Y-90808689D01*
X146705353Y-90792115D01*
X146714441Y-90775751D01*
X146723821Y-90759595D01*
X146733492Y-90743648D01*
X146743455Y-90727910D01*
X146753711Y-90712381D01*
X146764258Y-90697061D01*
X146775097Y-90681950D01*
X146786228Y-90667048D01*
X146797651Y-90652355D01*
X146809367Y-90637870D01*
X147262559Y-90637870D01*
X147248154Y-90650918D01*
X147234063Y-90664415D01*
X147220287Y-90678361D01*
X147206826Y-90692756D01*
X147193680Y-90707601D01*
X147180848Y-90722896D01*
X147168332Y-90738639D01*
X147156130Y-90754832D01*
X147144244Y-90771475D01*
X147132672Y-90788566D01*
X147121414Y-90806107D01*
X147110472Y-90824098D01*
X147099845Y-90842538D01*
X147089532Y-90861427D01*
X147079534Y-90880766D01*
X147069852Y-90900554D01*
X147060491Y-90921061D01*
X147051734Y-90941460D01*
X147043581Y-90961751D01*
X147036032Y-90981932D01*
X147029086Y-91002005D01*
X147022745Y-91021969D01*
X147017008Y-91041824D01*
X147011874Y-91061571D01*
X147007345Y-91081208D01*
X147003419Y-91100737D01*
X147000098Y-91120157D01*
X146997380Y-91139469D01*
X146995266Y-91158672D01*
X146993757Y-91177765D01*
X146992851Y-91196751D01*
X146992549Y-91215627D01*
X146992750Y-91231004D01*
X146993356Y-91246087D01*
X146994365Y-91260874D01*
X146996635Y-91282503D01*
X146999813Y-91303468D01*
X147003899Y-91323771D01*
X147008893Y-91343409D01*
X147014796Y-91362385D01*
X147021606Y-91380697D01*
X147029324Y-91398346D01*
X147037951Y-91415331D01*
X147044206Y-91426286D01*
X147052157Y-91438708D01*
X147064878Y-91455839D01*
X147078553Y-91471166D01*
X147093180Y-91484690D01*
X147108761Y-91496411D01*
X147125294Y-91506328D01*
X147142781Y-91514443D01*
X147161221Y-91520754D01*
X147180614Y-91525262D01*
X147200960Y-91527967D01*
X147222259Y-91528868D01*
X147246340Y-91527887D01*
X147270133Y-91524941D01*
X147293636Y-91520033D01*
X147316850Y-91513160D01*
X147339775Y-91504325D01*
X147362411Y-91493526D01*
X147384757Y-91480763D01*
X147406815Y-91466037D01*
X147428584Y-91449347D01*
X147450063Y-91430694D01*
X147471254Y-91410078D01*
X147481741Y-91399033D01*
X147492155Y-91387497D01*
X147502497Y-91375471D01*
X147512767Y-91362954D01*
X147522965Y-91349946D01*
X147533091Y-91336447D01*
X147543144Y-91322457D01*
X147553125Y-91307976D01*
X147563033Y-91293005D01*
X147572870Y-91277542D01*
X147581435Y-91263456D01*
X147589728Y-91249405D01*
X147597750Y-91235392D01*
X147605499Y-91221414D01*
X147612977Y-91207473D01*
X147620182Y-91193569D01*
X147627116Y-91179701D01*
X147633778Y-91165870D01*
X147640168Y-91152075D01*
X147646286Y-91138317D01*
X147652132Y-91124595D01*
X147657706Y-91110910D01*
X147668039Y-91083648D01*
X147677284Y-91056533D01*
X147685441Y-91029564D01*
X147692511Y-91002741D01*
X147698493Y-90976063D01*
X147703387Y-90949532D01*
X147707194Y-90923147D01*
X147709913Y-90896907D01*
X147711544Y-90870814D01*
X147712088Y-90844866D01*
X147711717Y-90824589D01*
X147710605Y-90804881D01*
X147708752Y-90785743D01*
X147706158Y-90767174D01*
X147702822Y-90749175D01*
X147698744Y-90731746D01*
X147693926Y-90714886D01*
X147688366Y-90698595D01*
X147682065Y-90682875D01*
X147675022Y-90667723D01*
X147667239Y-90653142D01*
X147658713Y-90639130D01*
X147649447Y-90625687D01*
X147639439Y-90612815D01*
X147628690Y-90600511D01*
X147617200Y-90588778D01*
X147605058Y-90577686D01*
X147592356Y-90567311D01*
X147579092Y-90557651D01*
X147565268Y-90548706D01*
X147550882Y-90540478D01*
X147535936Y-90532964D01*
X147520428Y-90526167D01*
X147504360Y-90520084D01*
X147487730Y-90514718D01*
X147470540Y-90510067D01*
X147452788Y-90506131D01*
X147434476Y-90502911D01*
X147415602Y-90500407D01*
X147396168Y-90498618D01*
X147376172Y-90497544D01*
X147355616Y-90497187D01*
X146338222Y-90497187D01*
X146495759Y-90239266D01*
X147443909Y-90239266D01*
X147461825Y-90239382D01*
X147479530Y-90239728D01*
X147497024Y-90240306D01*
X147514309Y-90241115D01*
X147531383Y-90242155D01*
X147548246Y-90243426D01*
X147564899Y-90244929D01*
X147581342Y-90246662D01*
X147597574Y-90248627D01*
X147613596Y-90250822D01*
X147629408Y-90253249D01*
X147645009Y-90255907D01*
X147660400Y-90258796D01*
X147675580Y-90261916D01*
X147690551Y-90265268D01*
X147705310Y-90268850D01*
X147719860Y-90272664D01*
X147734199Y-90276708D01*
X147748327Y-90280984D01*
X147775954Y-90290229D01*
X147802738Y-90300398D01*
X147828681Y-90311492D01*
X147853783Y-90323511D01*
X147878043Y-90336454D01*
X147901462Y-90350321D01*
X147912856Y-90357602D01*
X147925906Y-90366503D01*
X147938543Y-90375667D01*
X147950765Y-90385093D01*
X147962573Y-90394782D01*
X147973966Y-90404734D01*
X147984945Y-90414948D01*
X147995510Y-90425425D01*
X148005660Y-90436164D01*
X148015397Y-90447166D01*
X148033626Y-90469958D01*
X148050198Y-90493800D01*
X148065113Y-90518693D01*
X148078371Y-90544636D01*
X148089972Y-90571630D01*
X148095151Y-90585520D01*
X148099915Y-90599674D01*
X148104265Y-90614090D01*
X148108201Y-90628768D01*
X148111723Y-90643709D01*
X148114830Y-90658913D01*
X148117523Y-90674379D01*
X148119802Y-90690108D01*
X148121666Y-90706100D01*
X148123116Y-90722354D01*
X148124152Y-90738871D01*
X148124774Y-90755650D01*
X148124981Y-90772692D01*
G37*
G36*
X149589339Y-90239266D02*
G01*
X149351568Y-90706014D01*
X149163990Y-90708212D01*
X149285623Y-90239266D01*
X149589339Y-90239266D01*
G37*
G36*
X150897259Y-90592808D02*
G01*
X150896983Y-90610057D01*
X150896156Y-90627230D01*
X150894776Y-90644326D01*
X150892846Y-90661346D01*
X150890363Y-90678290D01*
X150887329Y-90695156D01*
X150883743Y-90711946D01*
X150879605Y-90728660D01*
X150874916Y-90745297D01*
X150869674Y-90761858D01*
X150863882Y-90778341D01*
X150857537Y-90794749D01*
X150850641Y-90811079D01*
X150843193Y-90827334D01*
X150835194Y-90843511D01*
X150826642Y-90859612D01*
X150817539Y-90875637D01*
X150807885Y-90891585D01*
X150797678Y-90907456D01*
X150786920Y-90923251D01*
X150775611Y-90938969D01*
X150763749Y-90954611D01*
X150751336Y-90970176D01*
X150738371Y-90985665D01*
X150724855Y-91001077D01*
X150710787Y-91016412D01*
X150696167Y-91031671D01*
X150680995Y-91046853D01*
X150665272Y-91061959D01*
X150648997Y-91076988D01*
X150632171Y-91091941D01*
X150614792Y-91106817D01*
X150599867Y-91119225D01*
X150584812Y-91131400D01*
X150569627Y-91143342D01*
X150554314Y-91155051D01*
X150538870Y-91166526D01*
X150523297Y-91177768D01*
X150507595Y-91188777D01*
X150491763Y-91199553D01*
X150475801Y-91210095D01*
X150459710Y-91220404D01*
X150443489Y-91230480D01*
X150427139Y-91240322D01*
X150410660Y-91249931D01*
X150394051Y-91259307D01*
X150377312Y-91268450D01*
X150360444Y-91277359D01*
X150343446Y-91286035D01*
X150326319Y-91294478D01*
X150309062Y-91302688D01*
X150291676Y-91310664D01*
X150274160Y-91318407D01*
X150256515Y-91325917D01*
X150238740Y-91333193D01*
X150220836Y-91340237D01*
X150202802Y-91347046D01*
X150184639Y-91353623D01*
X150166346Y-91359967D01*
X150147924Y-91366077D01*
X150129372Y-91371953D01*
X150110691Y-91377597D01*
X150091880Y-91383007D01*
X150072939Y-91388184D01*
X150777824Y-91388184D01*
X150671579Y-91693000D01*
X149595933Y-91693000D01*
X149684593Y-91388184D01*
X149699030Y-91382303D01*
X149713489Y-91376197D01*
X149727970Y-91369869D01*
X149742473Y-91363317D01*
X149756999Y-91356543D01*
X149771546Y-91349544D01*
X149786116Y-91342323D01*
X149800708Y-91334878D01*
X149815322Y-91327211D01*
X149829958Y-91319319D01*
X149844617Y-91311205D01*
X149859298Y-91302867D01*
X149874000Y-91294306D01*
X149888726Y-91285522D01*
X149903473Y-91276515D01*
X149918242Y-91267284D01*
X149933034Y-91257830D01*
X149947848Y-91248153D01*
X149962684Y-91238253D01*
X149977542Y-91228129D01*
X149992422Y-91217782D01*
X150007325Y-91207212D01*
X150022249Y-91196418D01*
X150037196Y-91185402D01*
X150052165Y-91174162D01*
X150067156Y-91162699D01*
X150082170Y-91151012D01*
X150097205Y-91139103D01*
X150112263Y-91126970D01*
X150127343Y-91114613D01*
X150142445Y-91102034D01*
X150157570Y-91089231D01*
X150175444Y-91073739D01*
X150192751Y-91058359D01*
X150209490Y-91043091D01*
X150225662Y-91027934D01*
X150241266Y-91012889D01*
X150256303Y-90997955D01*
X150270773Y-90983133D01*
X150284675Y-90968423D01*
X150298010Y-90953824D01*
X150310777Y-90939337D01*
X150322977Y-90924961D01*
X150334609Y-90910697D01*
X150345674Y-90896545D01*
X150356172Y-90882504D01*
X150366102Y-90868575D01*
X150375465Y-90854758D01*
X150384260Y-90841052D01*
X150392488Y-90827458D01*
X150400148Y-90813976D01*
X150407241Y-90800605D01*
X150413767Y-90787346D01*
X150425115Y-90761162D01*
X150434194Y-90735425D01*
X150441004Y-90710134D01*
X150445543Y-90685290D01*
X150447813Y-90660893D01*
X150448096Y-90648861D01*
X150447488Y-90624816D01*
X150445664Y-90602322D01*
X150442623Y-90581379D01*
X150438365Y-90561987D01*
X150432891Y-90544147D01*
X150426201Y-90527858D01*
X150418294Y-90513121D01*
X150409170Y-90499934D01*
X150398831Y-90488299D01*
X150387274Y-90478216D01*
X150374502Y-90469683D01*
X150360513Y-90462702D01*
X150345307Y-90457273D01*
X150328885Y-90453395D01*
X150311247Y-90451068D01*
X150292392Y-90450292D01*
X150279203Y-90450292D01*
X150281907Y-90465140D01*
X150283831Y-90479840D01*
X150284332Y-90489493D01*
X150283578Y-90506752D01*
X150281318Y-90523496D01*
X150277550Y-90539725D01*
X150272276Y-90555438D01*
X150265495Y-90570637D01*
X150257206Y-90585320D01*
X150247411Y-90599488D01*
X150236109Y-90613141D01*
X150223300Y-90626278D01*
X150208984Y-90638901D01*
X150198602Y-90647030D01*
X150183304Y-90657964D01*
X150167497Y-90667822D01*
X150151182Y-90676605D01*
X150134357Y-90684313D01*
X150117024Y-90690945D01*
X150099182Y-90696502D01*
X150080831Y-90700983D01*
X150061971Y-90704388D01*
X150042603Y-90706719D01*
X150022726Y-90707973D01*
X150009192Y-90708212D01*
X149989303Y-90707636D01*
X149969891Y-90705907D01*
X149950955Y-90703025D01*
X149932496Y-90698990D01*
X149914513Y-90693803D01*
X149897007Y-90687463D01*
X149879978Y-90679970D01*
X149863425Y-90671324D01*
X149847349Y-90661526D01*
X149831749Y-90650574D01*
X149821614Y-90642633D01*
X149806489Y-90629579D01*
X149792853Y-90615972D01*
X149780704Y-90601810D01*
X149770042Y-90587095D01*
X149760868Y-90571825D01*
X149753182Y-90556002D01*
X149746984Y-90539625D01*
X149742273Y-90522695D01*
X149739050Y-90505210D01*
X149737314Y-90487172D01*
X149736983Y-90474838D01*
X149737612Y-90454831D01*
X149739496Y-90435660D01*
X149742638Y-90417325D01*
X149747036Y-90399825D01*
X149752690Y-90383161D01*
X149759601Y-90367333D01*
X149767768Y-90352341D01*
X149777192Y-90338184D01*
X149787872Y-90324864D01*
X149799809Y-90312379D01*
X149813003Y-90300729D01*
X149827453Y-90289916D01*
X149843159Y-90279938D01*
X149860122Y-90270796D01*
X149878341Y-90262490D01*
X149897817Y-90255020D01*
X149911899Y-90250273D01*
X149927127Y-90245832D01*
X149943498Y-90241698D01*
X149961015Y-90237869D01*
X149979677Y-90234347D01*
X149999483Y-90231132D01*
X150020435Y-90228222D01*
X150042531Y-90225619D01*
X150065772Y-90223322D01*
X150090159Y-90221331D01*
X150115690Y-90219647D01*
X150142366Y-90218269D01*
X150170186Y-90217197D01*
X150199152Y-90216431D01*
X150214064Y-90216163D01*
X150229263Y-90215972D01*
X150244747Y-90215857D01*
X150260518Y-90215819D01*
X150276984Y-90215862D01*
X150293182Y-90215992D01*
X150309110Y-90216208D01*
X150324769Y-90216511D01*
X150340159Y-90216901D01*
X150355280Y-90217377D01*
X150370132Y-90217940D01*
X150399029Y-90219325D01*
X150426850Y-90221057D01*
X150453595Y-90223135D01*
X150479263Y-90225559D01*
X150503855Y-90228330D01*
X150527371Y-90231447D01*
X150549811Y-90234910D01*
X150571175Y-90238720D01*
X150591462Y-90242876D01*
X150610674Y-90247378D01*
X150628809Y-90252227D01*
X150645867Y-90257421D01*
X150653993Y-90260149D01*
X150668960Y-90265509D01*
X150683451Y-90271194D01*
X150697467Y-90277204D01*
X150711009Y-90283539D01*
X150724075Y-90290199D01*
X150748781Y-90304493D01*
X150771588Y-90320086D01*
X150792493Y-90336979D01*
X150811498Y-90355171D01*
X150828603Y-90374663D01*
X150843807Y-90395454D01*
X150857111Y-90417545D01*
X150868514Y-90440935D01*
X150878016Y-90465624D01*
X150885618Y-90491613D01*
X150891320Y-90518901D01*
X150895121Y-90547489D01*
X150896309Y-90562271D01*
X150897022Y-90577377D01*
X150897259Y-90592808D01*
G37*
G36*
X152470427Y-90239266D02*
G01*
X152345863Y-90544081D01*
X151816101Y-90544081D01*
X151725242Y-90778554D01*
X151870689Y-90778554D01*
X151885574Y-90778656D01*
X151900231Y-90778961D01*
X151928866Y-90780180D01*
X151956594Y-90782212D01*
X151983415Y-90785057D01*
X152009328Y-90788715D01*
X152034334Y-90793186D01*
X152058432Y-90798470D01*
X152081623Y-90804566D01*
X152103907Y-90811476D01*
X152125284Y-90819198D01*
X152145753Y-90827733D01*
X152165315Y-90837081D01*
X152183969Y-90847242D01*
X152201716Y-90858216D01*
X152218556Y-90870002D01*
X152234489Y-90882602D01*
X152250557Y-90896857D01*
X152265607Y-90911504D01*
X152279637Y-90926544D01*
X152292649Y-90941976D01*
X152304642Y-90957799D01*
X152315615Y-90974015D01*
X152325570Y-90990623D01*
X152334506Y-91007624D01*
X152342423Y-91025016D01*
X152349321Y-91042800D01*
X152355200Y-91060977D01*
X152360060Y-91079545D01*
X152363901Y-91098506D01*
X152366723Y-91117859D01*
X152368526Y-91137604D01*
X152369311Y-91157741D01*
X152368869Y-91179591D01*
X152367267Y-91201270D01*
X152364506Y-91222777D01*
X152360587Y-91244112D01*
X152355508Y-91265275D01*
X152349269Y-91286266D01*
X152341872Y-91307086D01*
X152333315Y-91327734D01*
X152323600Y-91348211D01*
X152312725Y-91368515D01*
X152300690Y-91388648D01*
X152287497Y-91408609D01*
X152273144Y-91428399D01*
X152257633Y-91448016D01*
X152240962Y-91467462D01*
X152223131Y-91486736D01*
X152207878Y-91502312D01*
X152192249Y-91517392D01*
X152176247Y-91531978D01*
X152159871Y-91546070D01*
X152143120Y-91559668D01*
X152125995Y-91572770D01*
X152108496Y-91585379D01*
X152090622Y-91597493D01*
X152072374Y-91609112D01*
X152053752Y-91620238D01*
X152034756Y-91630868D01*
X152015386Y-91641004D01*
X151995641Y-91650646D01*
X151975522Y-91659793D01*
X151955029Y-91668446D01*
X151934162Y-91676605D01*
X151912920Y-91684269D01*
X151891304Y-91691438D01*
X151869314Y-91698113D01*
X151846950Y-91704294D01*
X151824211Y-91709980D01*
X151801098Y-91715172D01*
X151777611Y-91719869D01*
X151753750Y-91724072D01*
X151729515Y-91727780D01*
X151704905Y-91730994D01*
X151679921Y-91733714D01*
X151654563Y-91735939D01*
X151628830Y-91737669D01*
X151602724Y-91738905D01*
X151576243Y-91739647D01*
X151549387Y-91739894D01*
X151531936Y-91739772D01*
X151514478Y-91739405D01*
X151497014Y-91738793D01*
X151479544Y-91737936D01*
X151462067Y-91736835D01*
X151444583Y-91735489D01*
X151427093Y-91733898D01*
X151409597Y-91732063D01*
X151392094Y-91729983D01*
X151374585Y-91727658D01*
X151362908Y-91725972D01*
X151343100Y-91722895D01*
X151323929Y-91718884D01*
X151305396Y-91713939D01*
X151287500Y-91708061D01*
X151270242Y-91701248D01*
X151253621Y-91693502D01*
X151237638Y-91684822D01*
X151222293Y-91675208D01*
X151207585Y-91664660D01*
X151193515Y-91653179D01*
X151184489Y-91645006D01*
X151171787Y-91632147D01*
X151160334Y-91618851D01*
X151150131Y-91605116D01*
X151141178Y-91590944D01*
X151133473Y-91576334D01*
X151127018Y-91561286D01*
X151121812Y-91545800D01*
X151117856Y-91529876D01*
X151115149Y-91513514D01*
X151113692Y-91496714D01*
X151113414Y-91485271D01*
X151114116Y-91467112D01*
X151116222Y-91449456D01*
X151119732Y-91432302D01*
X151124645Y-91415650D01*
X151130963Y-91399501D01*
X151138685Y-91383854D01*
X151147810Y-91368709D01*
X151158339Y-91354067D01*
X151170273Y-91339927D01*
X151183610Y-91326289D01*
X151193281Y-91317476D01*
X151208540Y-91304971D01*
X151224365Y-91293695D01*
X151240757Y-91283650D01*
X151257716Y-91274835D01*
X151275241Y-91267250D01*
X151293333Y-91260894D01*
X151311992Y-91255769D01*
X151331218Y-91251874D01*
X151351010Y-91249209D01*
X151371369Y-91247774D01*
X151385256Y-91247501D01*
X151406389Y-91248080D01*
X151426923Y-91249819D01*
X151446858Y-91252717D01*
X151466194Y-91256774D01*
X151484931Y-91261991D01*
X151503070Y-91268366D01*
X151520609Y-91275901D01*
X151537549Y-91284595D01*
X151553891Y-91294448D01*
X151569633Y-91305461D01*
X151579796Y-91313446D01*
X151594200Y-91326046D01*
X151607187Y-91339116D01*
X151618758Y-91352656D01*
X151628911Y-91366666D01*
X151637648Y-91381147D01*
X151644969Y-91396097D01*
X151650872Y-91411518D01*
X151655358Y-91427408D01*
X151658428Y-91443769D01*
X151660081Y-91460600D01*
X151660396Y-91472082D01*
X151659778Y-91487070D01*
X151657923Y-91502084D01*
X151654832Y-91517123D01*
X151650504Y-91532188D01*
X151644940Y-91547280D01*
X151642810Y-91552316D01*
X151658010Y-91550046D01*
X151672927Y-91547083D01*
X151687560Y-91543428D01*
X151701910Y-91539081D01*
X151715976Y-91534040D01*
X151729759Y-91528307D01*
X151743259Y-91521882D01*
X151756475Y-91514763D01*
X151769408Y-91506952D01*
X151782057Y-91498449D01*
X151794424Y-91489252D01*
X151806507Y-91479363D01*
X151818306Y-91468782D01*
X151829822Y-91457507D01*
X151841055Y-91445540D01*
X151852004Y-91432881D01*
X151861986Y-91420360D01*
X151871324Y-91407710D01*
X151880018Y-91394932D01*
X151888068Y-91382025D01*
X151895474Y-91368989D01*
X151902236Y-91355824D01*
X151911172Y-91335835D01*
X151918658Y-91315557D01*
X151924696Y-91294989D01*
X151929284Y-91274131D01*
X151932424Y-91252983D01*
X151934114Y-91231545D01*
X151934436Y-91217092D01*
X151933676Y-91197388D01*
X151931397Y-91178392D01*
X151927597Y-91160105D01*
X151922278Y-91142526D01*
X151915438Y-91125655D01*
X151907079Y-91109493D01*
X151897200Y-91094039D01*
X151885801Y-91079294D01*
X151872883Y-91065257D01*
X151858444Y-91051928D01*
X151847974Y-91043436D01*
X151835405Y-91034075D01*
X151822151Y-91025318D01*
X151808214Y-91017165D01*
X151793592Y-91009616D01*
X151778286Y-91002670D01*
X151762297Y-90996329D01*
X151745623Y-90990592D01*
X151728265Y-90985459D01*
X151710223Y-90980929D01*
X151691497Y-90977004D01*
X151672087Y-90973682D01*
X151651992Y-90970964D01*
X151631214Y-90968850D01*
X151609752Y-90967341D01*
X151587605Y-90966435D01*
X151564775Y-90966133D01*
X151290734Y-90966133D01*
X151543892Y-90239266D01*
X152470427Y-90239266D01*
G37*
D11*
X147066095Y-67974819D02*
X147066095Y-68784342D01*
X147066095Y-68784342D02*
X147113714Y-68879580D01*
X147113714Y-68879580D02*
X147161333Y-68927200D01*
X147161333Y-68927200D02*
X147256571Y-68974819D01*
X147256571Y-68974819D02*
X147447047Y-68974819D01*
X147447047Y-68974819D02*
X147542285Y-68927200D01*
X147542285Y-68927200D02*
X147589904Y-68879580D01*
X147589904Y-68879580D02*
X147637523Y-68784342D01*
X147637523Y-68784342D02*
X147637523Y-67974819D01*
X148637523Y-68974819D02*
X148066095Y-68974819D01*
X148351809Y-68974819D02*
X148351809Y-67974819D01*
X148351809Y-67974819D02*
X148256571Y-68117676D01*
X148256571Y-68117676D02*
X148161333Y-68212914D01*
X148161333Y-68212914D02*
X148066095Y-68260533D01*
X151370833Y-66907580D02*
X151323214Y-66955200D01*
X151323214Y-66955200D02*
X151180357Y-67002819D01*
X151180357Y-67002819D02*
X151085119Y-67002819D01*
X151085119Y-67002819D02*
X150942262Y-66955200D01*
X150942262Y-66955200D02*
X150847024Y-66859961D01*
X150847024Y-66859961D02*
X150799405Y-66764723D01*
X150799405Y-66764723D02*
X150751786Y-66574247D01*
X150751786Y-66574247D02*
X150751786Y-66431390D01*
X150751786Y-66431390D02*
X150799405Y-66240914D01*
X150799405Y-66240914D02*
X150847024Y-66145676D01*
X150847024Y-66145676D02*
X150942262Y-66050438D01*
X150942262Y-66050438D02*
X151085119Y-66002819D01*
X151085119Y-66002819D02*
X151180357Y-66002819D01*
X151180357Y-66002819D02*
X151323214Y-66050438D01*
X151323214Y-66050438D02*
X151370833Y-66098057D01*
X152323214Y-67002819D02*
X151751786Y-67002819D01*
X152037500Y-67002819D02*
X152037500Y-66002819D01*
X152037500Y-66002819D02*
X151942262Y-66145676D01*
X151942262Y-66145676D02*
X151847024Y-66240914D01*
X151847024Y-66240914D02*
X151751786Y-66288533D01*
D12*
%TO.C,U1*%
X147828000Y-87480000D02*
X143968000Y-87480000D01*
X143968000Y-87480000D02*
X143968000Y-87235000D01*
X147828000Y-87480000D02*
X151688000Y-87480000D01*
X151688000Y-69360000D02*
X151688000Y-69605000D01*
X151688000Y-87480000D02*
X151688000Y-87235000D01*
X143968000Y-69605000D02*
X142153000Y-69605000D01*
X143968000Y-69360000D02*
X143968000Y-69605000D01*
X147828000Y-69360000D02*
X151688000Y-69360000D01*
X147828000Y-69360000D02*
X143968000Y-69360000D01*
%TO.C,J1*%
X146823000Y-63115000D02*
G75*
G03*
X148823000Y-63115000I1000000J0D01*
G01*
X154283000Y-93715000D02*
X154283000Y-63115000D01*
X146823000Y-63115000D02*
X141363000Y-63115000D01*
X154283000Y-63115000D02*
X148823000Y-63115000D01*
X141363000Y-63115000D02*
X141363000Y-93715000D01*
X141363000Y-93715000D02*
X154283000Y-93715000D01*
%TO.C,C1*%
X151683767Y-67562000D02*
X151391233Y-67562000D01*
X151683767Y-68582000D02*
X151391233Y-68582000D01*
%TD*%
M02*
