%TF.GenerationSoftware,KiCad,Pcbnew,7.0.7*%
%TF.CreationDate,2025-03-10T13:51:10-04:00*%
%TF.ProjectId,6116 NVRAM,36313136-204e-4565-9241-4d2e6b696361,rev?*%
%TF.SameCoordinates,Original*%
%TF.FileFunction,Copper,L1,Top*%
%TF.FilePolarity,Positive*%
%FSLAX46Y46*%
G04 Gerber Fmt 4.6, Leading zero omitted, Abs format (unit mm)*
G04 Created by KiCad (PCBNEW 7.0.7) date 2025-03-10 13:51:10*
%MOMM*%
%LPD*%
G01*
G04 APERTURE LIST*
G04 Aperture macros list*
%AMRoundRect*
0 Rectangle with rounded corners*
0 $1 Rounding radius*
0 $2 $3 $4 $5 $6 $7 $8 $9 X,Y pos of 4 corners*
0 Add a 4 corners polygon primitive as box body*
4,1,4,$2,$3,$4,$5,$6,$7,$8,$9,$2,$3,0*
0 Add four circle primitives for the rounded corners*
1,1,$1+$1,$2,$3*
1,1,$1+$1,$4,$5*
1,1,$1+$1,$6,$7*
1,1,$1+$1,$8,$9*
0 Add four rect primitives between the rounded corners*
20,1,$1+$1,$2,$3,$4,$5,0*
20,1,$1+$1,$4,$5,$6,$7,0*
20,1,$1+$1,$6,$7,$8,$9,0*
20,1,$1+$1,$8,$9,$2,$3,0*%
G04 Aperture macros list end*
%TA.AperFunction,SMDPad,CuDef*%
%ADD10RoundRect,0.150000X-0.875000X-0.150000X0.875000X-0.150000X0.875000X0.150000X-0.875000X0.150000X0*%
%TD*%
%TA.AperFunction,ComponentPad*%
%ADD11O,1.600000X1.600000*%
%TD*%
%TA.AperFunction,ComponentPad*%
%ADD12R,1.600000X1.600000*%
%TD*%
%TA.AperFunction,SMDPad,CuDef*%
%ADD13RoundRect,0.237500X0.300000X0.237500X-0.300000X0.237500X-0.300000X-0.237500X0.300000X-0.237500X0*%
%TD*%
%TA.AperFunction,ViaPad*%
%ADD14C,0.800000*%
%TD*%
%TA.AperFunction,Conductor*%
%ADD15C,0.500000*%
%TD*%
%TA.AperFunction,Conductor*%
%ADD16C,0.250000*%
%TD*%
G04 APERTURE END LIST*
D10*
%TO.P,U1,1*%
%TO.N,N/C*%
X143178000Y-70165000D03*
%TO.P,U1,2,A12*%
%TO.N,Net-(U1-A12)*%
X143178000Y-71435000D03*
%TO.P,U1,3,A7*%
%TO.N,A_{7}*%
X143178000Y-72705000D03*
%TO.P,U1,4,A6*%
%TO.N,A_{6}*%
X143178000Y-73975000D03*
%TO.P,U1,5,A5*%
%TO.N,A_{5}*%
X143178000Y-75245000D03*
%TO.P,U1,6,A4*%
%TO.N,A_{4}*%
X143178000Y-76515000D03*
%TO.P,U1,7,A3*%
%TO.N,A_{3}*%
X143178000Y-77785000D03*
%TO.P,U1,8,A2*%
%TO.N,A_{2}*%
X143178000Y-79055000D03*
%TO.P,U1,9,A1*%
%TO.N,A_{1}*%
X143178000Y-80325000D03*
%TO.P,U1,10,A0*%
%TO.N,A_{0}*%
X143178000Y-81595000D03*
%TO.P,U1,11,DQ0*%
%TO.N,I{slash}O_{0}*%
X143178000Y-82865000D03*
%TO.P,U1,12,DQ1*%
%TO.N,I{slash}O_{1}*%
X143178000Y-84135000D03*
%TO.P,U1,13,DQ2*%
%TO.N,I{slash}O_{2}*%
X143178000Y-85405000D03*
%TO.P,U1,14,VSS*%
%TO.N,GND*%
X143178000Y-86675000D03*
%TO.P,U1,15,DQ3*%
%TO.N,I{slash}O_{3}*%
X152478000Y-86675000D03*
%TO.P,U1,16,DQ4*%
%TO.N,I{slash}O_{4}*%
X152478000Y-85405000D03*
%TO.P,U1,17,DQ5*%
%TO.N,I{slash}O_{5}*%
X152478000Y-84135000D03*
%TO.P,U1,18,DQ6*%
%TO.N,I{slash}O_{6}*%
X152478000Y-82865000D03*
%TO.P,U1,19,DQ7*%
%TO.N,I{slash}O_{7}*%
X152478000Y-81595000D03*
%TO.P,U1,20,~{CE}*%
%TO.N,~{CS}*%
X152478000Y-80325000D03*
%TO.P,U1,21,A10*%
%TO.N,A_{10}*%
X152478000Y-79055000D03*
%TO.P,U1,22,~{OE}*%
%TO.N,~{OE}*%
X152478000Y-77785000D03*
%TO.P,U1,23,A11*%
%TO.N,Net-(U1-A11)*%
X152478000Y-76515000D03*
%TO.P,U1,24,A9*%
%TO.N,A_{9}*%
X152478000Y-75245000D03*
%TO.P,U1,25,A8*%
%TO.N,A_{8}*%
X152478000Y-73975000D03*
%TO.P,U1,26*%
%TO.N,N/C*%
X152478000Y-72705000D03*
%TO.P,U1,27,~{WE}*%
%TO.N,~{WE}*%
X152478000Y-71435000D03*
%TO.P,U1,28,VDD*%
%TO.N,VCC*%
X152478000Y-70165000D03*
%TD*%
D11*
%TO.P,J1,24,Pin_24*%
%TO.N,VCC*%
X155443000Y-64445000D03*
%TO.P,J1,23,Pin_23*%
%TO.N,A_{8}*%
X155443000Y-66985000D03*
%TO.P,J1,22,Pin_22*%
%TO.N,A_{9}*%
X155443000Y-69525000D03*
%TO.P,J1,21,Pin_21*%
%TO.N,~{WE}*%
X155443000Y-72065000D03*
%TO.P,J1,20,Pin_20*%
%TO.N,~{OE}*%
X155443000Y-74605000D03*
%TO.P,J1,19,Pin_19*%
%TO.N,A_{10}*%
X155443000Y-77145000D03*
%TO.P,J1,18,Pin_18*%
%TO.N,~{CS}*%
X155443000Y-79685000D03*
%TO.P,J1,17,Pin_17*%
%TO.N,I{slash}O_{7}*%
X155443000Y-82225000D03*
%TO.P,J1,16,Pin_16*%
%TO.N,I{slash}O_{6}*%
X155443000Y-84765000D03*
%TO.P,J1,15,Pin_15*%
%TO.N,I{slash}O_{5}*%
X155443000Y-87305000D03*
%TO.P,J1,14,Pin_14*%
%TO.N,I{slash}O_{4}*%
X155443000Y-89845000D03*
%TO.P,J1,13,Pin_13*%
%TO.N,I{slash}O_{3}*%
X155443000Y-92385000D03*
%TO.P,J1,12,Pin_12*%
%TO.N,GND*%
X140203000Y-92385000D03*
%TO.P,J1,11,Pin_11*%
%TO.N,I{slash}O_{2}*%
X140203000Y-89845000D03*
%TO.P,J1,10,Pin_10*%
%TO.N,I{slash}O_{1}*%
X140203000Y-87305000D03*
%TO.P,J1,9,Pin_9*%
%TO.N,I{slash}O_{0}*%
X140203000Y-84765000D03*
%TO.P,J1,8,Pin_8*%
%TO.N,A_{0}*%
X140203000Y-82225000D03*
%TO.P,J1,7,Pin_7*%
%TO.N,A_{1}*%
X140203000Y-79685000D03*
%TO.P,J1,6,Pin_6*%
%TO.N,A_{2}*%
X140203000Y-77145000D03*
%TO.P,J1,5,Pin_5*%
%TO.N,A_{3}*%
X140203000Y-74605000D03*
%TO.P,J1,4,Pin_4*%
%TO.N,A_{4}*%
X140203000Y-72065000D03*
%TO.P,J1,3,Pin_3*%
%TO.N,A_{5}*%
X140203000Y-69525000D03*
%TO.P,J1,2,Pin_2*%
%TO.N,A_{6}*%
X140203000Y-66985000D03*
D12*
%TO.P,J1,1,Pin_1*%
%TO.N,A_{7}*%
X140203000Y-64445000D03*
%TD*%
D13*
%TO.P,C1,2*%
%TO.N,GND*%
X150675000Y-68072000D03*
%TO.P,C1,1*%
%TO.N,VCC*%
X152400000Y-68072000D03*
%TD*%
D14*
%TO.N,GND*%
X150368000Y-72136000D03*
X145288000Y-74676000D03*
X147828000Y-77216000D03*
X145288000Y-77216000D03*
X150368000Y-79756000D03*
X145288000Y-79756000D03*
X150368000Y-82296000D03*
X145288000Y-82296000D03*
X150368000Y-87376000D03*
X145288000Y-87376000D03*
X150368000Y-84836000D03*
X145288000Y-84836000D03*
X153924000Y-67056000D03*
X147828000Y-69596000D03*
X147828000Y-84836000D03*
X147828000Y-79756000D03*
X147828000Y-82296000D03*
X147828000Y-87376000D03*
X151892000Y-88900000D03*
X147828000Y-88900000D03*
X143764000Y-88900000D03*
X143764000Y-92964000D03*
X151892000Y-92964000D03*
X147828000Y-92964000D03*
X147828000Y-68072000D03*
X147828000Y-74676000D03*
X143764000Y-68072000D03*
X151892000Y-64516000D03*
X147828000Y-64516000D03*
X143764000Y-64516000D03*
%TO.N,A_{8}*%
X150876000Y-73909701D03*
%TO.N,A_{9}*%
X150876000Y-75184000D03*
%TO.N,VCC*%
X150876000Y-70165000D03*
%TO.N,Net-(U1-A11)*%
X150876000Y-76515000D03*
%TO.N,Net-(U1-A12)*%
X144780000Y-71435000D03*
%TD*%
D15*
%TO.N,VCC*%
X152400000Y-67056000D02*
X152400000Y-70087000D01*
X152400000Y-70087000D02*
X152478000Y-70165000D01*
X155011000Y-64445000D02*
X152400000Y-67056000D01*
X155443000Y-64445000D02*
X155011000Y-64445000D01*
D16*
%TO.N,A_{7}*%
X144272000Y-69088000D02*
X145505000Y-70321000D01*
X145505000Y-71919000D02*
X144719000Y-72705000D01*
X141732000Y-67564000D02*
X143256000Y-69088000D01*
X141732000Y-65974000D02*
X141732000Y-67564000D01*
X145505000Y-70321000D02*
X145505000Y-71919000D01*
X144719000Y-72705000D02*
X143178000Y-72705000D01*
X140203000Y-64445000D02*
X141732000Y-65974000D01*
X143256000Y-69088000D02*
X144272000Y-69088000D01*
%TO.N,A_{8}*%
X152412701Y-73909701D02*
X152478000Y-73975000D01*
X150876000Y-73909701D02*
X152412701Y-73909701D01*
X150876000Y-73909701D02*
X150941299Y-73975000D01*
%TO.N,A_{9}*%
X150937000Y-75245000D02*
X150876000Y-75184000D01*
X152478000Y-75245000D02*
X150937000Y-75245000D01*
%TO.N,I{slash}O_{3}*%
X153868000Y-90810000D02*
X155443000Y-92385000D01*
X153868000Y-86868000D02*
X153868000Y-90810000D01*
X152478000Y-86675000D02*
X153675000Y-86675000D01*
X153675000Y-86675000D02*
X153868000Y-86868000D01*
%TO.N,I{slash}O_{5}*%
X152478000Y-84135000D02*
X153731000Y-84135000D01*
X153731000Y-84135000D02*
X153982000Y-84386000D01*
X153982000Y-84386000D02*
X153982000Y-84894000D01*
X155443000Y-86355000D02*
X155443000Y-87305000D01*
X153982000Y-84894000D02*
X155443000Y-86355000D01*
%TO.N,I{slash}O_{4}*%
X154318000Y-88720000D02*
X155443000Y-89845000D01*
X153856604Y-85405000D02*
X154318000Y-85866396D01*
X152478000Y-85405000D02*
X153856604Y-85405000D01*
X154318000Y-85866396D02*
X154318000Y-88720000D01*
%TO.N,I{slash}O_{6}*%
X154432000Y-84328000D02*
X154869000Y-84765000D01*
X154869000Y-84765000D02*
X155443000Y-84765000D01*
X154432000Y-83373000D02*
X154432000Y-84328000D01*
X152478000Y-82865000D02*
X153924000Y-82865000D01*
X153924000Y-82865000D02*
X154432000Y-83373000D01*
%TO.N,I{slash}O_{7}*%
X154361000Y-82225000D02*
X155443000Y-82225000D01*
X153731000Y-81595000D02*
X154361000Y-82225000D01*
X152478000Y-81595000D02*
X153731000Y-81595000D01*
%TO.N,~{CS}*%
X153863000Y-80325000D02*
X154503000Y-79685000D01*
X152478000Y-80325000D02*
X153863000Y-80325000D01*
X154503000Y-79685000D02*
X155443000Y-79685000D01*
%TO.N,A_{10}*%
X155011000Y-77145000D02*
X155443000Y-77145000D01*
X154432000Y-78740000D02*
X154432000Y-77724000D01*
X152478000Y-79055000D02*
X154117000Y-79055000D01*
X154117000Y-79055000D02*
X154432000Y-78740000D01*
X154432000Y-77724000D02*
X155011000Y-77145000D01*
%TO.N,~{OE}*%
X153924000Y-77498875D02*
X153924000Y-76124000D01*
X153637875Y-77785000D02*
X153924000Y-77498875D01*
X152478000Y-77785000D02*
X153637875Y-77785000D01*
X153924000Y-76124000D02*
X155443000Y-74605000D01*
%TO.N,~{WE}*%
X154869000Y-72065000D02*
X155443000Y-72065000D01*
X154239000Y-71435000D02*
X154869000Y-72065000D01*
X152478000Y-71435000D02*
X154239000Y-71435000D01*
%TO.N,Net-(U1-A11)*%
X150876000Y-76515000D02*
X152478000Y-76515000D01*
%TO.N,I{slash}O_{2}*%
X141778000Y-88270000D02*
X140203000Y-89845000D01*
X141778000Y-85806000D02*
X141778000Y-88270000D01*
X143178000Y-85405000D02*
X142179000Y-85405000D01*
X142179000Y-85405000D02*
X141778000Y-85806000D01*
%TO.N,I{slash}O_{1}*%
X141328000Y-84732000D02*
X141328000Y-86191853D01*
X143178000Y-84135000D02*
X141925000Y-84135000D01*
X141925000Y-84135000D02*
X141328000Y-84732000D01*
X141328000Y-86191853D02*
X140214853Y-87305000D01*
X140214853Y-87305000D02*
X140203000Y-87305000D01*
%TO.N,I{slash}O_{0}*%
X143178000Y-82865000D02*
X141633000Y-82865000D01*
X140203000Y-84295000D02*
X140203000Y-84765000D01*
X141633000Y-82865000D02*
X140203000Y-84295000D01*
%TO.N,A_{4}*%
X143178000Y-76515000D02*
X142751249Y-76515000D01*
X142751249Y-76515000D02*
X141328000Y-75091751D01*
X140203000Y-72860000D02*
X140203000Y-72065000D01*
X141328000Y-73985000D02*
X140203000Y-72860000D01*
X141328000Y-75091751D02*
X141328000Y-73985000D01*
%TO.N,A_{5}*%
X143178000Y-75245000D02*
X142301000Y-75245000D01*
X142301000Y-75245000D02*
X141778000Y-74722000D01*
X141778000Y-74722000D02*
X141778000Y-73798604D01*
X141778000Y-73798604D02*
X141328000Y-73348604D01*
X141328000Y-70650000D02*
X140203000Y-69525000D01*
X141328000Y-73348604D02*
X141328000Y-70650000D01*
%TO.N,A_{0}*%
X141925000Y-81595000D02*
X143178000Y-81595000D01*
X140203000Y-82225000D02*
X141295000Y-82225000D01*
X141295000Y-82225000D02*
X141925000Y-81595000D01*
%TO.N,A_{1}*%
X140864250Y-79685000D02*
X140203000Y-79685000D01*
X143178000Y-80325000D02*
X141504250Y-80325000D01*
X141504250Y-80325000D02*
X140864250Y-79685000D01*
%TO.N,VCC*%
X150876000Y-70165000D02*
X152478000Y-70165000D01*
%TO.N,Net-(U1-A12)*%
X144780000Y-71435000D02*
X143178000Y-71435000D01*
%TO.N,A_{6}*%
X141778000Y-68560000D02*
X140203000Y-66985000D01*
X142590792Y-73975000D02*
X141778000Y-73162208D01*
X141778000Y-73162208D02*
X141778000Y-68560000D01*
X143178000Y-73975000D02*
X142590792Y-73975000D01*
%TO.N,A_{2}*%
X140203000Y-77719000D02*
X140203000Y-77145000D01*
X141539000Y-79055000D02*
X140203000Y-77719000D01*
X143178000Y-79055000D02*
X141539000Y-79055000D01*
%TO.N,A_{3}*%
X140203000Y-74999000D02*
X140203000Y-74605000D01*
X141328000Y-76124000D02*
X140203000Y-74999000D01*
X141328000Y-77320000D02*
X141328000Y-76124000D01*
X143178000Y-77785000D02*
X141793000Y-77785000D01*
X141793000Y-77785000D02*
X141328000Y-77320000D01*
%TD*%
%TA.AperFunction,Conductor*%
%TO.N,GND*%
G36*
X155958138Y-62484687D02*
G01*
X156001477Y-62488478D01*
X156132768Y-62501410D01*
X156148656Y-62504300D01*
X156218267Y-62522951D01*
X156315105Y-62552328D01*
X156328151Y-62557320D01*
X156398575Y-62590159D01*
X156400913Y-62591328D01*
X156487476Y-62637597D01*
X156492512Y-62640690D01*
X156560689Y-62688428D01*
X156563694Y-62690709D01*
X156638120Y-62751789D01*
X156641721Y-62755053D01*
X156700945Y-62814277D01*
X156704209Y-62817878D01*
X156765289Y-62892304D01*
X156767574Y-62895315D01*
X156815302Y-62963477D01*
X156818407Y-62968532D01*
X156864650Y-63055045D01*
X156865854Y-63057454D01*
X156898672Y-63127833D01*
X156903681Y-63140925D01*
X156933055Y-63237759D01*
X156951695Y-63307326D01*
X156954591Y-63323245D01*
X156967523Y-63454547D01*
X156967911Y-63458975D01*
X156971312Y-63497859D01*
X156971500Y-63502160D01*
X156971500Y-93469839D01*
X156971312Y-93474141D01*
X156968998Y-93500587D01*
X156967523Y-93517452D01*
X156954591Y-93648753D01*
X156951695Y-93664671D01*
X156933055Y-93734240D01*
X156903681Y-93831073D01*
X156898668Y-93844176D01*
X156865857Y-93914538D01*
X156864650Y-93916953D01*
X156818412Y-94003458D01*
X156815302Y-94008521D01*
X156767574Y-94076683D01*
X156765289Y-94079694D01*
X156704209Y-94154120D01*
X156700945Y-94157721D01*
X156641721Y-94216945D01*
X156638120Y-94220209D01*
X156563694Y-94281289D01*
X156560683Y-94283574D01*
X156492521Y-94331302D01*
X156487458Y-94334412D01*
X156400953Y-94380650D01*
X156398538Y-94381857D01*
X156328176Y-94414668D01*
X156315073Y-94419681D01*
X156218240Y-94449055D01*
X156148671Y-94467695D01*
X156132753Y-94470591D01*
X156001452Y-94483523D01*
X155958157Y-94487311D01*
X155953841Y-94487500D01*
X139702160Y-94487500D01*
X139697859Y-94487312D01*
X139667732Y-94484676D01*
X139654547Y-94483523D01*
X139523245Y-94470591D01*
X139507326Y-94467695D01*
X139437759Y-94449055D01*
X139423985Y-94444876D01*
X139340922Y-94419679D01*
X139327833Y-94414672D01*
X139257454Y-94381854D01*
X139255057Y-94380656D01*
X139168532Y-94334407D01*
X139163477Y-94331302D01*
X139095315Y-94283574D01*
X139092304Y-94281289D01*
X139017878Y-94220209D01*
X139014277Y-94216945D01*
X138955053Y-94157721D01*
X138951789Y-94154120D01*
X138890709Y-94079694D01*
X138888424Y-94076683D01*
X138840690Y-94008512D01*
X138837597Y-94003476D01*
X138791328Y-93916913D01*
X138790159Y-93914575D01*
X138757320Y-93844151D01*
X138752328Y-93831105D01*
X138722951Y-93734267D01*
X138704300Y-93664656D01*
X138701410Y-93648768D01*
X138688477Y-93517452D01*
X138684687Y-93474139D01*
X138684500Y-93469842D01*
X138684500Y-92635000D01*
X138924128Y-92635000D01*
X138976733Y-92831323D01*
X139072865Y-93037481D01*
X139203334Y-93223811D01*
X139364188Y-93384665D01*
X139550518Y-93515134D01*
X139756676Y-93611266D01*
X139953000Y-93663872D01*
X139953000Y-92865859D01*
X139971907Y-92807668D01*
X140021407Y-92771704D01*
X140069720Y-92771704D01*
X140070157Y-92768946D01*
X140077851Y-92770164D01*
X140077852Y-92770165D01*
X140106378Y-92774682D01*
X140171516Y-92785000D01*
X140171519Y-92785000D01*
X140234484Y-92785000D01*
X140299621Y-92774682D01*
X140328148Y-92770165D01*
X140328148Y-92770164D01*
X140335843Y-92768946D01*
X140336280Y-92771707D01*
X140384578Y-92771700D01*
X140434084Y-92807656D01*
X140453000Y-92865843D01*
X140453000Y-93663871D01*
X140649323Y-93611266D01*
X140855481Y-93515134D01*
X141041811Y-93384665D01*
X141202665Y-93223811D01*
X141333134Y-93037481D01*
X141429266Y-92831323D01*
X141481872Y-92635000D01*
X140683860Y-92635000D01*
X140625669Y-92616093D01*
X140589705Y-92566593D01*
X140589701Y-92518279D01*
X140586946Y-92517843D01*
X140607986Y-92385000D01*
X140607986Y-92384999D01*
X140586946Y-92252157D01*
X140589702Y-92251720D01*
X140589711Y-92203390D01*
X140625684Y-92153897D01*
X140683860Y-92135000D01*
X141481872Y-92135000D01*
X141429266Y-91938676D01*
X141333134Y-91732518D01*
X141202665Y-91546188D01*
X141041811Y-91385334D01*
X140855481Y-91254865D01*
X140649323Y-91158732D01*
X140453000Y-91106127D01*
X140453000Y-91904140D01*
X140434093Y-91962331D01*
X140384593Y-91998295D01*
X140336279Y-91998298D01*
X140335843Y-92001054D01*
X140328148Y-91999835D01*
X140298921Y-91995206D01*
X140234484Y-91985000D01*
X140234481Y-91985000D01*
X140171519Y-91985000D01*
X140171516Y-91985000D01*
X140107079Y-91995206D01*
X140077852Y-91999835D01*
X140077851Y-91999835D01*
X140070157Y-92001054D01*
X140069720Y-91998297D01*
X140021390Y-91998289D01*
X139971897Y-91962316D01*
X139953000Y-91904140D01*
X139953000Y-91106127D01*
X139756676Y-91158732D01*
X139550518Y-91254865D01*
X139364188Y-91385334D01*
X139203334Y-91546188D01*
X139072865Y-91732518D01*
X138976733Y-91938676D01*
X138924128Y-92135000D01*
X139722140Y-92135000D01*
X139780331Y-92153907D01*
X139816295Y-92203407D01*
X139816298Y-92251720D01*
X139819054Y-92252157D01*
X139798014Y-92384999D01*
X139798014Y-92385000D01*
X139819054Y-92517843D01*
X139816297Y-92518279D01*
X139816289Y-92566610D01*
X139780316Y-92616103D01*
X139722140Y-92635000D01*
X138924128Y-92635000D01*
X138684500Y-92635000D01*
X138684500Y-89845003D01*
X139197659Y-89845003D01*
X139216974Y-90041126D01*
X139216975Y-90041129D01*
X139274187Y-90229730D01*
X139274188Y-90229732D01*
X139345218Y-90362618D01*
X139367090Y-90403538D01*
X139367092Y-90403540D01*
X139367093Y-90403542D01*
X139492112Y-90555878D01*
X139492121Y-90555887D01*
X139587503Y-90634165D01*
X139644462Y-90680910D01*
X139818273Y-90773814D01*
X140006868Y-90831024D01*
X140006870Y-90831024D01*
X140006873Y-90831025D01*
X140202997Y-90850341D01*
X140203000Y-90850341D01*
X140203003Y-90850341D01*
X140399126Y-90831025D01*
X140399127Y-90831024D01*
X140399132Y-90831024D01*
X140587727Y-90773814D01*
X140761538Y-90680910D01*
X140913883Y-90555883D01*
X141038910Y-90403538D01*
X141131814Y-90229727D01*
X141189024Y-90041132D01*
X141208341Y-89845000D01*
X141208341Y-89844996D01*
X141189025Y-89648873D01*
X141189024Y-89648867D01*
X141130402Y-89455618D01*
X141132042Y-89455120D01*
X141127793Y-89401166D01*
X141154053Y-89354271D01*
X141996588Y-88511737D01*
X141999766Y-88508824D01*
X142031194Y-88482455D01*
X142051712Y-88446914D01*
X142054017Y-88443296D01*
X142077554Y-88409684D01*
X142077941Y-88408236D01*
X142087838Y-88384345D01*
X142088586Y-88383048D01*
X142088585Y-88383048D01*
X142088588Y-88383045D01*
X142095713Y-88342628D01*
X142096641Y-88338443D01*
X142107263Y-88298807D01*
X142103687Y-88257934D01*
X142103500Y-88253634D01*
X142103500Y-87571562D01*
X142122407Y-87513371D01*
X142171907Y-87477407D01*
X142210269Y-87472867D01*
X142237363Y-87475000D01*
X142927999Y-87475000D01*
X142928000Y-87474998D01*
X143428000Y-87474998D01*
X143428001Y-87475000D01*
X144118638Y-87475000D01*
X144155489Y-87472100D01*
X144313200Y-87426280D01*
X144313201Y-87426280D01*
X144454552Y-87342685D01*
X144570685Y-87226552D01*
X144654280Y-87085201D01*
X144654280Y-87085200D01*
X144700098Y-86927493D01*
X144700100Y-86927486D01*
X144700296Y-86925000D01*
X143428001Y-86925000D01*
X143428000Y-86925001D01*
X143428000Y-87474998D01*
X142928000Y-87474998D01*
X142928000Y-86858260D01*
X151252500Y-86858260D01*
X151254708Y-86873412D01*
X151262427Y-86926395D01*
X151313801Y-87031481D01*
X151313802Y-87031483D01*
X151396517Y-87114198D01*
X151450285Y-87140483D01*
X151501604Y-87165572D01*
X151501605Y-87165572D01*
X151501607Y-87165573D01*
X151569740Y-87175500D01*
X151569743Y-87175500D01*
X153386256Y-87175500D01*
X153386260Y-87175500D01*
X153429228Y-87169239D01*
X153489535Y-87179559D01*
X153532260Y-87223356D01*
X153542500Y-87267205D01*
X153542500Y-90793625D01*
X153542312Y-90797927D01*
X153538736Y-90838807D01*
X153544030Y-90858567D01*
X153549354Y-90878436D01*
X153550289Y-90882652D01*
X153557411Y-90923045D01*
X153558164Y-90924348D01*
X153568054Y-90948224D01*
X153568443Y-90949679D01*
X153568446Y-90949684D01*
X153591971Y-90983281D01*
X153594292Y-90986924D01*
X153614806Y-91022455D01*
X153646224Y-91048818D01*
X153649410Y-91051737D01*
X154491944Y-91894270D01*
X154519721Y-91948787D01*
X154514233Y-91995206D01*
X154515598Y-91995620D01*
X154514188Y-92000269D01*
X154514186Y-92000273D01*
X154496869Y-92057359D01*
X154456975Y-92188870D01*
X154456974Y-92188873D01*
X154437659Y-92384996D01*
X154437659Y-92385003D01*
X154456974Y-92581126D01*
X154456975Y-92581129D01*
X154514187Y-92769730D01*
X154514188Y-92769732D01*
X154585218Y-92902618D01*
X154607090Y-92943538D01*
X154607092Y-92943540D01*
X154607093Y-92943542D01*
X154732112Y-93095878D01*
X154732121Y-93095887D01*
X154884457Y-93220906D01*
X154884462Y-93220910D01*
X155058273Y-93313814D01*
X155246868Y-93371024D01*
X155246870Y-93371024D01*
X155246873Y-93371025D01*
X155442997Y-93390341D01*
X155443000Y-93390341D01*
X155443003Y-93390341D01*
X155639126Y-93371025D01*
X155639127Y-93371024D01*
X155639132Y-93371024D01*
X155827727Y-93313814D01*
X156001538Y-93220910D01*
X156153883Y-93095883D01*
X156278910Y-92943538D01*
X156371814Y-92769727D01*
X156429024Y-92581132D01*
X156430455Y-92566610D01*
X156448341Y-92385003D01*
X156448341Y-92384996D01*
X156429025Y-92188873D01*
X156429024Y-92188870D01*
X156429024Y-92188868D01*
X156371814Y-92000273D01*
X156370758Y-91998298D01*
X156315154Y-91894270D01*
X156278910Y-91826462D01*
X156201812Y-91732518D01*
X156153887Y-91674121D01*
X156153878Y-91674112D01*
X156001542Y-91549093D01*
X156001540Y-91549092D01*
X156001538Y-91549090D01*
X155960618Y-91527218D01*
X155827732Y-91456188D01*
X155827730Y-91456187D01*
X155639129Y-91398975D01*
X155639126Y-91398974D01*
X155443003Y-91379659D01*
X155442997Y-91379659D01*
X155246873Y-91398974D01*
X155246870Y-91398975D01*
X155163620Y-91424229D01*
X155058273Y-91456186D01*
X155058270Y-91456187D01*
X155053620Y-91457598D01*
X155053124Y-91455964D01*
X154999136Y-91460198D01*
X154952270Y-91433944D01*
X154222496Y-90704169D01*
X154194719Y-90649652D01*
X154193500Y-90634165D01*
X154193500Y-89294834D01*
X154212407Y-89236643D01*
X154261907Y-89200679D01*
X154323093Y-89200679D01*
X154362504Y-89224830D01*
X154491944Y-89354270D01*
X154519721Y-89408787D01*
X154514233Y-89455206D01*
X154515598Y-89455620D01*
X154456975Y-89648870D01*
X154456974Y-89648873D01*
X154437659Y-89844996D01*
X154437659Y-89845003D01*
X154456974Y-90041126D01*
X154456975Y-90041129D01*
X154514187Y-90229730D01*
X154514188Y-90229732D01*
X154585218Y-90362618D01*
X154607090Y-90403538D01*
X154607092Y-90403540D01*
X154607093Y-90403542D01*
X154732112Y-90555878D01*
X154732121Y-90555887D01*
X154827503Y-90634165D01*
X154884462Y-90680910D01*
X155058273Y-90773814D01*
X155246868Y-90831024D01*
X155246870Y-90831024D01*
X155246873Y-90831025D01*
X155442997Y-90850341D01*
X155443000Y-90850341D01*
X155443003Y-90850341D01*
X155639126Y-90831025D01*
X155639127Y-90831024D01*
X155639132Y-90831024D01*
X155827727Y-90773814D01*
X156001538Y-90680910D01*
X156153883Y-90555883D01*
X156278910Y-90403538D01*
X156371814Y-90229727D01*
X156429024Y-90041132D01*
X156448341Y-89845000D01*
X156448341Y-89844996D01*
X156429025Y-89648873D01*
X156429024Y-89648870D01*
X156429024Y-89648868D01*
X156371814Y-89460273D01*
X156278910Y-89286462D01*
X156278906Y-89286457D01*
X156153887Y-89134121D01*
X156153878Y-89134112D01*
X156001542Y-89009093D01*
X156001540Y-89009092D01*
X156001538Y-89009090D01*
X155960618Y-88987218D01*
X155827732Y-88916188D01*
X155827730Y-88916187D01*
X155639129Y-88858975D01*
X155639126Y-88858974D01*
X155443003Y-88839659D01*
X155442997Y-88839659D01*
X155246873Y-88858974D01*
X155246870Y-88858975D01*
X155163620Y-88884229D01*
X155058273Y-88916186D01*
X155058270Y-88916187D01*
X155053620Y-88917598D01*
X155053125Y-88915967D01*
X154999122Y-88920195D01*
X154952269Y-88893943D01*
X154672496Y-88614169D01*
X154644719Y-88559653D01*
X154643500Y-88544166D01*
X154643500Y-88152475D01*
X154662407Y-88094284D01*
X154711907Y-88058320D01*
X154773093Y-88058320D01*
X154805304Y-88075946D01*
X154884462Y-88140910D01*
X155058273Y-88233814D01*
X155246868Y-88291024D01*
X155246870Y-88291024D01*
X155246873Y-88291025D01*
X155442997Y-88310341D01*
X155443000Y-88310341D01*
X155443003Y-88310341D01*
X155639126Y-88291025D01*
X155639127Y-88291024D01*
X155639132Y-88291024D01*
X155827727Y-88233814D01*
X156001538Y-88140910D01*
X156153883Y-88015883D01*
X156278910Y-87863538D01*
X156371814Y-87689727D01*
X156429024Y-87501132D01*
X156431884Y-87472100D01*
X156448341Y-87305003D01*
X156448341Y-87304996D01*
X156429025Y-87108873D01*
X156429024Y-87108870D01*
X156429024Y-87108868D01*
X156371814Y-86920273D01*
X156278910Y-86746462D01*
X156223115Y-86678476D01*
X156153887Y-86594121D01*
X156153878Y-86594112D01*
X156001542Y-86469093D01*
X156001540Y-86469092D01*
X156001538Y-86469090D01*
X155928116Y-86429845D01*
X155827730Y-86376187D01*
X155825511Y-86375268D01*
X155824675Y-86374554D01*
X155823438Y-86373893D01*
X155823583Y-86373621D01*
X155778985Y-86335531D01*
X155767772Y-86309430D01*
X155761643Y-86286558D01*
X155760710Y-86282348D01*
X155753588Y-86241955D01*
X155752840Y-86240659D01*
X155742942Y-86216767D01*
X155742554Y-86215316D01*
X155742552Y-86215313D01*
X155742551Y-86215311D01*
X155719025Y-86181712D01*
X155716703Y-86178068D01*
X155696193Y-86142543D01*
X155673434Y-86123447D01*
X155664765Y-86116173D01*
X155661588Y-86113261D01*
X155477825Y-85929499D01*
X155450048Y-85874982D01*
X155459619Y-85814550D01*
X155502884Y-85771285D01*
X155538125Y-85760972D01*
X155551043Y-85759699D01*
X155639126Y-85751025D01*
X155639127Y-85751024D01*
X155639132Y-85751024D01*
X155827727Y-85693814D01*
X156001538Y-85600910D01*
X156153883Y-85475883D01*
X156278910Y-85323538D01*
X156371814Y-85149727D01*
X156429024Y-84961132D01*
X156438313Y-84866826D01*
X156448341Y-84765003D01*
X156448341Y-84764996D01*
X156429025Y-84568873D01*
X156429024Y-84568870D01*
X156429024Y-84568868D01*
X156371814Y-84380273D01*
X156366717Y-84370738D01*
X156338665Y-84318256D01*
X156278910Y-84206462D01*
X156278906Y-84206457D01*
X156153887Y-84054121D01*
X156153878Y-84054112D01*
X156001542Y-83929093D01*
X156001540Y-83929092D01*
X156001538Y-83929090D01*
X155960618Y-83907218D01*
X155827732Y-83836188D01*
X155827730Y-83836187D01*
X155825287Y-83835446D01*
X155639132Y-83778976D01*
X155639129Y-83778975D01*
X155639126Y-83778974D01*
X155443003Y-83759659D01*
X155442997Y-83759659D01*
X155246873Y-83778974D01*
X155246870Y-83778975D01*
X155058269Y-83836187D01*
X155058267Y-83836188D01*
X154903168Y-83919090D01*
X154842935Y-83929846D01*
X154787884Y-83903144D01*
X154759042Y-83849183D01*
X154757500Y-83831780D01*
X154757500Y-83389362D01*
X154757687Y-83385061D01*
X154761263Y-83344193D01*
X154750642Y-83304559D01*
X154749712Y-83300360D01*
X154747127Y-83285699D01*
X154742588Y-83259955D01*
X154741834Y-83258649D01*
X154731941Y-83234765D01*
X154731553Y-83233316D01*
X154708026Y-83199716D01*
X154705711Y-83196083D01*
X154685194Y-83160545D01*
X154653765Y-83134172D01*
X154650588Y-83131261D01*
X154635720Y-83116393D01*
X154612878Y-83093551D01*
X154601069Y-83070374D01*
X154574447Y-83055121D01*
X154240190Y-82720864D01*
X154212414Y-82666348D01*
X154221985Y-82605916D01*
X154265250Y-82562651D01*
X154325682Y-82553080D01*
X154330590Y-82554123D01*
X154332187Y-82554262D01*
X154332193Y-82554264D01*
X154373077Y-82550687D01*
X154377377Y-82550500D01*
X154423504Y-82550500D01*
X154481695Y-82569407D01*
X154510627Y-82606114D01*
X154511893Y-82605438D01*
X154552678Y-82681740D01*
X154607090Y-82783538D01*
X154607092Y-82783540D01*
X154607093Y-82783542D01*
X154720978Y-82922311D01*
X154727441Y-82938825D01*
X154745688Y-82947021D01*
X154869043Y-83048256D01*
X154884462Y-83060910D01*
X154988267Y-83116395D01*
X155040529Y-83144330D01*
X155058273Y-83153814D01*
X155246868Y-83211024D01*
X155246870Y-83211024D01*
X155246873Y-83211025D01*
X155442997Y-83230341D01*
X155443000Y-83230341D01*
X155443003Y-83230341D01*
X155639126Y-83211025D01*
X155639127Y-83211024D01*
X155639132Y-83211024D01*
X155827727Y-83153814D01*
X156001538Y-83060910D01*
X156153883Y-82935883D01*
X156278910Y-82783538D01*
X156371814Y-82609727D01*
X156429024Y-82421132D01*
X156434146Y-82369134D01*
X156448341Y-82225003D01*
X156448341Y-82224996D01*
X156429025Y-82028873D01*
X156429024Y-82028870D01*
X156429024Y-82028868D01*
X156371814Y-81840273D01*
X156278910Y-81666462D01*
X156278906Y-81666457D01*
X156153887Y-81514121D01*
X156153878Y-81514112D01*
X156001542Y-81389093D01*
X156001540Y-81389092D01*
X156001538Y-81389090D01*
X155960618Y-81367218D01*
X155827732Y-81296188D01*
X155827730Y-81296187D01*
X155825287Y-81295446D01*
X155639132Y-81238976D01*
X155639129Y-81238975D01*
X155639126Y-81238974D01*
X155443003Y-81219659D01*
X155442997Y-81219659D01*
X155246873Y-81238974D01*
X155246870Y-81238975D01*
X155058269Y-81296187D01*
X155058267Y-81296188D01*
X154884467Y-81389087D01*
X154884457Y-81389093D01*
X154732121Y-81514112D01*
X154732112Y-81514121D01*
X154607093Y-81666457D01*
X154607089Y-81666463D01*
X154550085Y-81773110D01*
X154505979Y-81815516D01*
X154445371Y-81823899D01*
X154392771Y-81796445D01*
X153972741Y-81376414D01*
X153969822Y-81373229D01*
X153943456Y-81341806D01*
X153920818Y-81328736D01*
X153907918Y-81321288D01*
X153904283Y-81318972D01*
X153870684Y-81295446D01*
X153870679Y-81295443D01*
X153869224Y-81295054D01*
X153845348Y-81285164D01*
X153844045Y-81284411D01*
X153803652Y-81277289D01*
X153799436Y-81276354D01*
X153771929Y-81268984D01*
X153759807Y-81265736D01*
X153759806Y-81265736D01*
X153759804Y-81265735D01*
X153722677Y-81268984D01*
X153663060Y-81255220D01*
X153644045Y-81240365D01*
X153642198Y-81238518D01*
X153642198Y-81238517D01*
X153559483Y-81155802D01*
X153559481Y-81155801D01*
X153454395Y-81104427D01*
X153427139Y-81100456D01*
X153386260Y-81094500D01*
X151569740Y-81094500D01*
X151535673Y-81099463D01*
X151501604Y-81104427D01*
X151396518Y-81155801D01*
X151313801Y-81238518D01*
X151262427Y-81343604D01*
X151262427Y-81343607D01*
X151252500Y-81411740D01*
X151252500Y-81778260D01*
X151255150Y-81796445D01*
X151262427Y-81846395D01*
X151288389Y-81899500D01*
X151313802Y-81951483D01*
X151396517Y-82034198D01*
X151450285Y-82060483D01*
X151501604Y-82085572D01*
X151501605Y-82085572D01*
X151501607Y-82085573D01*
X151569740Y-82095500D01*
X151569743Y-82095500D01*
X153386257Y-82095500D01*
X153386260Y-82095500D01*
X153454393Y-82085573D01*
X153559483Y-82034198D01*
X153564669Y-82029010D01*
X153619180Y-82001230D01*
X153679613Y-82010796D01*
X153704680Y-82029006D01*
X154044808Y-82369134D01*
X154072585Y-82423651D01*
X154063014Y-82484083D01*
X154019749Y-82527348D01*
X153959317Y-82536919D01*
X153954412Y-82535876D01*
X153952807Y-82535736D01*
X153952806Y-82535736D01*
X153948381Y-82536123D01*
X153911926Y-82539312D01*
X153907626Y-82539500D01*
X153714188Y-82539500D01*
X153655997Y-82520593D01*
X153644184Y-82510504D01*
X153642198Y-82508518D01*
X153642198Y-82508517D01*
X153559483Y-82425802D01*
X153555083Y-82423651D01*
X153454395Y-82374427D01*
X153427139Y-82370456D01*
X153386260Y-82364500D01*
X151569740Y-82364500D01*
X151537935Y-82369134D01*
X151501604Y-82374427D01*
X151396518Y-82425801D01*
X151313801Y-82508518D01*
X151262427Y-82613604D01*
X151262427Y-82613607D01*
X151252500Y-82681740D01*
X151252500Y-83048260D01*
X151255722Y-83070374D01*
X151262427Y-83116395D01*
X151303161Y-83199717D01*
X151313802Y-83221483D01*
X151396517Y-83304198D01*
X151450285Y-83330483D01*
X151501604Y-83355572D01*
X151501605Y-83355572D01*
X151501607Y-83355573D01*
X151569740Y-83365500D01*
X151569743Y-83365500D01*
X153386257Y-83365500D01*
X153386260Y-83365500D01*
X153454393Y-83355573D01*
X153559483Y-83304198D01*
X153642198Y-83221483D01*
X153642198Y-83221480D01*
X153644184Y-83219496D01*
X153698701Y-83191719D01*
X153714188Y-83190500D01*
X153748166Y-83190500D01*
X153806357Y-83209407D01*
X153818170Y-83219496D01*
X154077504Y-83478830D01*
X154105281Y-83533347D01*
X154106500Y-83548834D01*
X154106500Y-83806310D01*
X154087593Y-83864501D01*
X154038093Y-83900465D01*
X153976907Y-83900465D01*
X153950980Y-83886094D01*
X153950956Y-83886137D01*
X153948535Y-83884739D01*
X153943869Y-83882153D01*
X153943457Y-83881807D01*
X153932088Y-83875243D01*
X153907918Y-83861288D01*
X153904288Y-83858975D01*
X153870684Y-83835446D01*
X153870679Y-83835443D01*
X153869224Y-83835054D01*
X153845348Y-83825164D01*
X153844045Y-83824411D01*
X153803652Y-83817289D01*
X153799436Y-83816354D01*
X153773855Y-83809500D01*
X153759807Y-83805736D01*
X153759806Y-83805736D01*
X153759804Y-83805735D01*
X153722677Y-83808984D01*
X153663060Y-83795220D01*
X153644045Y-83780365D01*
X153642198Y-83778518D01*
X153642198Y-83778517D01*
X153559483Y-83695802D01*
X153559481Y-83695801D01*
X153454395Y-83644427D01*
X153427139Y-83640456D01*
X153386260Y-83634500D01*
X151569740Y-83634500D01*
X151535673Y-83639463D01*
X151501604Y-83644427D01*
X151396518Y-83695801D01*
X151313801Y-83778518D01*
X151262427Y-83883604D01*
X151262058Y-83886137D01*
X151252500Y-83951740D01*
X151252500Y-84318260D01*
X151252699Y-84319625D01*
X151262427Y-84386395D01*
X151292287Y-84447474D01*
X151313802Y-84491483D01*
X151396517Y-84574198D01*
X151424447Y-84587852D01*
X151501604Y-84625572D01*
X151501605Y-84625572D01*
X151501607Y-84625573D01*
X151569740Y-84635500D01*
X151569743Y-84635500D01*
X153386257Y-84635500D01*
X153386260Y-84635500D01*
X153454393Y-84625573D01*
X153514018Y-84596424D01*
X153574601Y-84587852D01*
X153628651Y-84616527D01*
X153655524Y-84671495D01*
X153656500Y-84685364D01*
X153656500Y-84854635D01*
X153637593Y-84912826D01*
X153588093Y-84948790D01*
X153526907Y-84948790D01*
X153514020Y-84943576D01*
X153454395Y-84914427D01*
X153427139Y-84910456D01*
X153386260Y-84904500D01*
X151569740Y-84904500D01*
X151535673Y-84909463D01*
X151501604Y-84914427D01*
X151396518Y-84965801D01*
X151313801Y-85048518D01*
X151262427Y-85153604D01*
X151262427Y-85153607D01*
X151252500Y-85221740D01*
X151252500Y-85588260D01*
X151256028Y-85612475D01*
X151262427Y-85656395D01*
X151298655Y-85730500D01*
X151313802Y-85761483D01*
X151396517Y-85844198D01*
X151450285Y-85870483D01*
X151501604Y-85895572D01*
X151501605Y-85895572D01*
X151501607Y-85895573D01*
X151569740Y-85905500D01*
X151569743Y-85905500D01*
X153386257Y-85905500D01*
X153386260Y-85905500D01*
X153454393Y-85895573D01*
X153559483Y-85844198D01*
X153627477Y-85776203D01*
X153681992Y-85748428D01*
X153742424Y-85757999D01*
X153767483Y-85776205D01*
X153963504Y-85972226D01*
X153991281Y-86026743D01*
X153992500Y-86042230D01*
X153992500Y-86309776D01*
X153973593Y-86367967D01*
X153924093Y-86403931D01*
X153862907Y-86403931D01*
X153836718Y-86390873D01*
X153814687Y-86375447D01*
X153814679Y-86375443D01*
X153813224Y-86375054D01*
X153789348Y-86365164D01*
X153788045Y-86364411D01*
X153747652Y-86357289D01*
X153743436Y-86356354D01*
X153717855Y-86349500D01*
X153703807Y-86345736D01*
X153703806Y-86345736D01*
X153702011Y-86345579D01*
X153699942Y-86344700D01*
X153695442Y-86343495D01*
X153695611Y-86342862D01*
X153645691Y-86321669D01*
X153640654Y-86316973D01*
X153559483Y-86235802D01*
X153546310Y-86229362D01*
X153454395Y-86184427D01*
X153423631Y-86179945D01*
X153386260Y-86174500D01*
X151569740Y-86174500D01*
X151535673Y-86179463D01*
X151501604Y-86184427D01*
X151396518Y-86235801D01*
X151313801Y-86318518D01*
X151262427Y-86423604D01*
X151262427Y-86423607D01*
X151252500Y-86491740D01*
X151252500Y-86858260D01*
X142928000Y-86858260D01*
X142928000Y-86524000D01*
X142946907Y-86465809D01*
X142996407Y-86429845D01*
X143027000Y-86425000D01*
X144700295Y-86425000D01*
X144700100Y-86422513D01*
X144700098Y-86422506D01*
X144654280Y-86264799D01*
X144654280Y-86264798D01*
X144570685Y-86123447D01*
X144454552Y-86007314D01*
X144339332Y-85939173D01*
X144298869Y-85893278D01*
X144293111Y-85832364D01*
X144319723Y-85783957D01*
X144342198Y-85761483D01*
X144393573Y-85656393D01*
X144403500Y-85588260D01*
X144403500Y-85221740D01*
X144393573Y-85153607D01*
X144391892Y-85150169D01*
X144368483Y-85102285D01*
X144342198Y-85048517D01*
X144259483Y-84965802D01*
X144256871Y-84964525D01*
X144154395Y-84914427D01*
X144127139Y-84910456D01*
X144086260Y-84904500D01*
X142269740Y-84904500D01*
X142235673Y-84909463D01*
X142201604Y-84914427D01*
X142096518Y-84965801D01*
X142013800Y-85048519D01*
X142013799Y-85048521D01*
X141964106Y-85150169D01*
X141951004Y-85170325D01*
X141940169Y-85183236D01*
X141937251Y-85186421D01*
X141822504Y-85301169D01*
X141767987Y-85328947D01*
X141707555Y-85319376D01*
X141664291Y-85276111D01*
X141653500Y-85231166D01*
X141653500Y-84907832D01*
X141672407Y-84849641D01*
X141682484Y-84837841D01*
X141951320Y-84569004D01*
X142005835Y-84541229D01*
X142066267Y-84550800D01*
X142091322Y-84569003D01*
X142096517Y-84574198D01*
X142124447Y-84587852D01*
X142201604Y-84625572D01*
X142201605Y-84625572D01*
X142201607Y-84625573D01*
X142269740Y-84635500D01*
X142269743Y-84635500D01*
X144086257Y-84635500D01*
X144086260Y-84635500D01*
X144154393Y-84625573D01*
X144259483Y-84574198D01*
X144342198Y-84491483D01*
X144393573Y-84386393D01*
X144403500Y-84318260D01*
X144403500Y-83951740D01*
X144393573Y-83883607D01*
X144392862Y-83882153D01*
X144368189Y-83831682D01*
X144342198Y-83778517D01*
X144259483Y-83695802D01*
X144259481Y-83695801D01*
X144154395Y-83644427D01*
X144127139Y-83640456D01*
X144086260Y-83634500D01*
X142269740Y-83634500D01*
X142235673Y-83639463D01*
X142201604Y-83644427D01*
X142096518Y-83695801D01*
X142096515Y-83695803D01*
X142011952Y-83780366D01*
X141957435Y-83808143D01*
X141933321Y-83808985D01*
X141896195Y-83805736D01*
X141896186Y-83805737D01*
X141856575Y-83816351D01*
X141852360Y-83817285D01*
X141811958Y-83824410D01*
X141811951Y-83824413D01*
X141810632Y-83825175D01*
X141786790Y-83835050D01*
X141785326Y-83835442D01*
X141785312Y-83835448D01*
X141751720Y-83858969D01*
X141748079Y-83861289D01*
X141712546Y-83881804D01*
X141686186Y-83913218D01*
X141683268Y-83916402D01*
X141256711Y-84342960D01*
X141202194Y-84370738D01*
X141141762Y-84361167D01*
X141099397Y-84319625D01*
X141094366Y-84310213D01*
X141038910Y-84206462D01*
X141038906Y-84206457D01*
X140966445Y-84118163D01*
X140944145Y-84061186D01*
X140959594Y-84001983D01*
X140972965Y-83985359D01*
X141738830Y-83219496D01*
X141793347Y-83191719D01*
X141808834Y-83190500D01*
X141941812Y-83190500D01*
X142000003Y-83209407D01*
X142011816Y-83219496D01*
X142013801Y-83221481D01*
X142013802Y-83221483D01*
X142096517Y-83304198D01*
X142150285Y-83330483D01*
X142201604Y-83355572D01*
X142201605Y-83355572D01*
X142201607Y-83355573D01*
X142269740Y-83365500D01*
X142269743Y-83365500D01*
X144086257Y-83365500D01*
X144086260Y-83365500D01*
X144154393Y-83355573D01*
X144259483Y-83304198D01*
X144342198Y-83221483D01*
X144393573Y-83116393D01*
X144403500Y-83048260D01*
X144403500Y-82681740D01*
X144393573Y-82613607D01*
X144391676Y-82609727D01*
X144368189Y-82561682D01*
X144342198Y-82508517D01*
X144259483Y-82425802D01*
X144255083Y-82423651D01*
X144154395Y-82374427D01*
X144127139Y-82370456D01*
X144086260Y-82364500D01*
X142269740Y-82364500D01*
X142237935Y-82369134D01*
X142201604Y-82374427D01*
X142096518Y-82425801D01*
X142096517Y-82425801D01*
X142096517Y-82425802D01*
X142013802Y-82508517D01*
X142013801Y-82508518D01*
X142011816Y-82510504D01*
X141957299Y-82538281D01*
X141941812Y-82539500D01*
X141679833Y-82539500D01*
X141621642Y-82520593D01*
X141585678Y-82471093D01*
X141585678Y-82409907D01*
X141609829Y-82370497D01*
X141951318Y-82029007D01*
X142005835Y-82001229D01*
X142066267Y-82010800D01*
X142091322Y-82029003D01*
X142096517Y-82034198D01*
X142150285Y-82060483D01*
X142201604Y-82085572D01*
X142201605Y-82085572D01*
X142201607Y-82085573D01*
X142269740Y-82095500D01*
X142269743Y-82095500D01*
X144086257Y-82095500D01*
X144086260Y-82095500D01*
X144154393Y-82085573D01*
X144259483Y-82034198D01*
X144342198Y-81951483D01*
X144393573Y-81846393D01*
X144403500Y-81778260D01*
X144403500Y-81411740D01*
X144393573Y-81343607D01*
X144392692Y-81341805D01*
X144365002Y-81285164D01*
X144342198Y-81238517D01*
X144259483Y-81155802D01*
X144259481Y-81155801D01*
X144154395Y-81104427D01*
X144127139Y-81100456D01*
X144086260Y-81094500D01*
X142269740Y-81094500D01*
X142235673Y-81099463D01*
X142201604Y-81104427D01*
X142096518Y-81155801D01*
X142096515Y-81155803D01*
X142011953Y-81240365D01*
X141957436Y-81268142D01*
X141933322Y-81268984D01*
X141896195Y-81265735D01*
X141896187Y-81265736D01*
X141856564Y-81276353D01*
X141852349Y-81277287D01*
X141811960Y-81284410D01*
X141811948Y-81284414D01*
X141810640Y-81285170D01*
X141786786Y-81295051D01*
X141785324Y-81295442D01*
X141785316Y-81295446D01*
X141751716Y-81318972D01*
X141748080Y-81321288D01*
X141739875Y-81326025D01*
X141712545Y-81341805D01*
X141686181Y-81373224D01*
X141683263Y-81376408D01*
X141256711Y-81802961D01*
X141202194Y-81830739D01*
X141141762Y-81821168D01*
X141099397Y-81779626D01*
X141098665Y-81778256D01*
X141038910Y-81666462D01*
X141038906Y-81666457D01*
X140913887Y-81514121D01*
X140913878Y-81514112D01*
X140761542Y-81389093D01*
X140761540Y-81389092D01*
X140761538Y-81389090D01*
X140720618Y-81367218D01*
X140587732Y-81296188D01*
X140587730Y-81296187D01*
X140585287Y-81295446D01*
X140399132Y-81238976D01*
X140399129Y-81238975D01*
X140399126Y-81238974D01*
X140203003Y-81219659D01*
X140202997Y-81219659D01*
X140006873Y-81238974D01*
X140006870Y-81238975D01*
X139818269Y-81296187D01*
X139818267Y-81296188D01*
X139644467Y-81389087D01*
X139644457Y-81389093D01*
X139492121Y-81514112D01*
X139492112Y-81514121D01*
X139367093Y-81666457D01*
X139367087Y-81666467D01*
X139274188Y-81840267D01*
X139274187Y-81840269D01*
X139216975Y-82028870D01*
X139216974Y-82028873D01*
X139197659Y-82224996D01*
X139197659Y-82225003D01*
X139216974Y-82421126D01*
X139216975Y-82421129D01*
X139274187Y-82609730D01*
X139274188Y-82609732D01*
X139345218Y-82742618D01*
X139367090Y-82783538D01*
X139367092Y-82783540D01*
X139367093Y-82783542D01*
X139492112Y-82935878D01*
X139492121Y-82935887D01*
X139629043Y-83048256D01*
X139644462Y-83060910D01*
X139748267Y-83116395D01*
X139800529Y-83144330D01*
X139818273Y-83153814D01*
X140006868Y-83211024D01*
X140006870Y-83211024D01*
X140006873Y-83211025D01*
X140202997Y-83230341D01*
X140203000Y-83230341D01*
X140203003Y-83230341D01*
X140399126Y-83211025D01*
X140399127Y-83211024D01*
X140399132Y-83211024D01*
X140587727Y-83153814D01*
X140635301Y-83128384D01*
X140695532Y-83117629D01*
X140750584Y-83144330D01*
X140779427Y-83198290D01*
X140771045Y-83258899D01*
X140751973Y-83285699D01*
X140304397Y-83733275D01*
X140249880Y-83761052D01*
X140224693Y-83761795D01*
X140211689Y-83760514D01*
X140203000Y-83759659D01*
X140202999Y-83759659D01*
X140202998Y-83759659D01*
X140202996Y-83759659D01*
X140006873Y-83778974D01*
X140006870Y-83778975D01*
X139818269Y-83836187D01*
X139818267Y-83836188D01*
X139644467Y-83929087D01*
X139644457Y-83929093D01*
X139492121Y-84054112D01*
X139492112Y-84054121D01*
X139367093Y-84206457D01*
X139367087Y-84206467D01*
X139274188Y-84380267D01*
X139274187Y-84380269D01*
X139216975Y-84568870D01*
X139216974Y-84568873D01*
X139197659Y-84764996D01*
X139197659Y-84765003D01*
X139216974Y-84961126D01*
X139216975Y-84961129D01*
X139274187Y-85149730D01*
X139274188Y-85149732D01*
X139312679Y-85221743D01*
X139367090Y-85323538D01*
X139367092Y-85323540D01*
X139367093Y-85323542D01*
X139492112Y-85475878D01*
X139492121Y-85475887D01*
X139614587Y-85576392D01*
X139644462Y-85600910D01*
X139818273Y-85693814D01*
X140006868Y-85751024D01*
X140006870Y-85751024D01*
X140006873Y-85751025D01*
X140202997Y-85770341D01*
X140203000Y-85770341D01*
X140203003Y-85770341D01*
X140399126Y-85751025D01*
X140399127Y-85751024D01*
X140399132Y-85751024D01*
X140587727Y-85693814D01*
X140761538Y-85600910D01*
X140840695Y-85535946D01*
X140897671Y-85513647D01*
X140956874Y-85529095D01*
X140995690Y-85576392D01*
X141002500Y-85612475D01*
X141002500Y-86016019D01*
X140983593Y-86074210D01*
X140973504Y-86086022D01*
X140701952Y-86357573D01*
X140647437Y-86385350D01*
X140592780Y-86376693D01*
X140592220Y-86378048D01*
X140587735Y-86376190D01*
X140587727Y-86376186D01*
X140399132Y-86318976D01*
X140399129Y-86318975D01*
X140399126Y-86318974D01*
X140203003Y-86299659D01*
X140202997Y-86299659D01*
X140006873Y-86318974D01*
X140006870Y-86318975D01*
X139818269Y-86376187D01*
X139818267Y-86376188D01*
X139644467Y-86469087D01*
X139644457Y-86469093D01*
X139492121Y-86594112D01*
X139492112Y-86594121D01*
X139367093Y-86746457D01*
X139367087Y-86746467D01*
X139274188Y-86920267D01*
X139274187Y-86920269D01*
X139216975Y-87108870D01*
X139216974Y-87108873D01*
X139197659Y-87304996D01*
X139197659Y-87305003D01*
X139216974Y-87501126D01*
X139216975Y-87501129D01*
X139274187Y-87689730D01*
X139274188Y-87689732D01*
X139345218Y-87822618D01*
X139367090Y-87863538D01*
X139367092Y-87863540D01*
X139367093Y-87863542D01*
X139492112Y-88015878D01*
X139492121Y-88015887D01*
X139587502Y-88094164D01*
X139644462Y-88140910D01*
X139818273Y-88233814D01*
X140006868Y-88291024D01*
X140006870Y-88291024D01*
X140006873Y-88291025D01*
X140202997Y-88310341D01*
X140203000Y-88310341D01*
X140203003Y-88310341D01*
X140399126Y-88291025D01*
X140399127Y-88291024D01*
X140399132Y-88291024D01*
X140587727Y-88233814D01*
X140761538Y-88140910D01*
X140913883Y-88015883D01*
X141038910Y-87863538D01*
X141131814Y-87689727D01*
X141189024Y-87501132D01*
X141191884Y-87472100D01*
X141208341Y-87305003D01*
X141208341Y-87304996D01*
X141189025Y-87108873D01*
X141189024Y-87108870D01*
X141189024Y-87108868D01*
X141132302Y-86921881D01*
X141133503Y-86860710D01*
X141157034Y-86823144D01*
X141283498Y-86696680D01*
X141338013Y-86668904D01*
X141398445Y-86678476D01*
X141441710Y-86721740D01*
X141452500Y-86766685D01*
X141452500Y-88094164D01*
X141433593Y-88152355D01*
X141423504Y-88164168D01*
X140693729Y-88893943D01*
X140639212Y-88921720D01*
X140592795Y-88916234D01*
X140592382Y-88917598D01*
X140399132Y-88858975D01*
X140399126Y-88858974D01*
X140203003Y-88839659D01*
X140202997Y-88839659D01*
X140006873Y-88858974D01*
X140006870Y-88858975D01*
X139818269Y-88916187D01*
X139818267Y-88916188D01*
X139644467Y-89009087D01*
X139644457Y-89009093D01*
X139492121Y-89134112D01*
X139492112Y-89134121D01*
X139367093Y-89286457D01*
X139367087Y-89286467D01*
X139274188Y-89460267D01*
X139274187Y-89460269D01*
X139216975Y-89648870D01*
X139216974Y-89648873D01*
X139197659Y-89844996D01*
X139197659Y-89845003D01*
X138684500Y-89845003D01*
X138684500Y-79685003D01*
X139197659Y-79685003D01*
X139216974Y-79881126D01*
X139216975Y-79881129D01*
X139274187Y-80069730D01*
X139274188Y-80069732D01*
X139312679Y-80141743D01*
X139367090Y-80243538D01*
X139367092Y-80243540D01*
X139367093Y-80243542D01*
X139492112Y-80395878D01*
X139492121Y-80395887D01*
X139629043Y-80508256D01*
X139644462Y-80520910D01*
X139818273Y-80613814D01*
X140006868Y-80671024D01*
X140006870Y-80671024D01*
X140006873Y-80671025D01*
X140202997Y-80690341D01*
X140203000Y-80690341D01*
X140203003Y-80690341D01*
X140399126Y-80671025D01*
X140399127Y-80671024D01*
X140399132Y-80671024D01*
X140587727Y-80613814D01*
X140761538Y-80520910D01*
X140913883Y-80395883D01*
X140935155Y-80369961D01*
X140986685Y-80336975D01*
X141047764Y-80340576D01*
X141081687Y-80362763D01*
X141262507Y-80543584D01*
X141265425Y-80546769D01*
X141290284Y-80576393D01*
X141291795Y-80578194D01*
X141327323Y-80598706D01*
X141330962Y-80601025D01*
X141364561Y-80624551D01*
X141364563Y-80624552D01*
X141364566Y-80624554D01*
X141366017Y-80624942D01*
X141389909Y-80634840D01*
X141390436Y-80635143D01*
X141391205Y-80635588D01*
X141431601Y-80642710D01*
X141435798Y-80643640D01*
X141475443Y-80654264D01*
X141516327Y-80650687D01*
X141520627Y-80650500D01*
X141941812Y-80650500D01*
X142000003Y-80669407D01*
X142011816Y-80679496D01*
X142013801Y-80681481D01*
X142013802Y-80681483D01*
X142096517Y-80764198D01*
X142150285Y-80790483D01*
X142201604Y-80815572D01*
X142201605Y-80815572D01*
X142201607Y-80815573D01*
X142269740Y-80825500D01*
X142269743Y-80825500D01*
X144086257Y-80825500D01*
X144086260Y-80825500D01*
X144154393Y-80815573D01*
X144259483Y-80764198D01*
X144342198Y-80681483D01*
X144393573Y-80576393D01*
X144403500Y-80508260D01*
X144403500Y-80141740D01*
X144393573Y-80073607D01*
X144391676Y-80069727D01*
X144368483Y-80022285D01*
X144342198Y-79968517D01*
X144259483Y-79885802D01*
X144259481Y-79885801D01*
X144154395Y-79834427D01*
X144127139Y-79830456D01*
X144086260Y-79824500D01*
X142269740Y-79824500D01*
X142235673Y-79829463D01*
X142201604Y-79834427D01*
X142096518Y-79885801D01*
X142096517Y-79885801D01*
X142096517Y-79885802D01*
X142013802Y-79968517D01*
X142013801Y-79968518D01*
X142011816Y-79970504D01*
X141957299Y-79998281D01*
X141941812Y-79999500D01*
X141680084Y-79999500D01*
X141621893Y-79980593D01*
X141610080Y-79970504D01*
X141220689Y-79581113D01*
X141192912Y-79526596D01*
X141192172Y-79520837D01*
X141189024Y-79488868D01*
X141165177Y-79410255D01*
X141166378Y-79349086D01*
X141203306Y-79300301D01*
X141261856Y-79282539D01*
X141319665Y-79302585D01*
X141323548Y-79305680D01*
X141326541Y-79308192D01*
X141362074Y-79328707D01*
X141365709Y-79331022D01*
X141399316Y-79354554D01*
X141400767Y-79354942D01*
X141424659Y-79364840D01*
X141425954Y-79365588D01*
X141434854Y-79367157D01*
X141466365Y-79372713D01*
X141470544Y-79373638D01*
X141510193Y-79384263D01*
X141551065Y-79380687D01*
X141555365Y-79380500D01*
X141941812Y-79380500D01*
X142000003Y-79399407D01*
X142011816Y-79409496D01*
X142013801Y-79411481D01*
X142013802Y-79411483D01*
X142096517Y-79494198D01*
X142147169Y-79518960D01*
X142201604Y-79545572D01*
X142201605Y-79545572D01*
X142201607Y-79545573D01*
X142269740Y-79555500D01*
X142269743Y-79555500D01*
X144086257Y-79555500D01*
X144086260Y-79555500D01*
X144154393Y-79545573D01*
X144259483Y-79494198D01*
X144342198Y-79411483D01*
X144393573Y-79306393D01*
X144403500Y-79238260D01*
X144403500Y-78871740D01*
X144393573Y-78803607D01*
X144376560Y-78768807D01*
X144368483Y-78752285D01*
X144342198Y-78698517D01*
X144259483Y-78615802D01*
X144237741Y-78605173D01*
X144154395Y-78564427D01*
X144126596Y-78560377D01*
X144086260Y-78554500D01*
X142269740Y-78554500D01*
X142235673Y-78559463D01*
X142201604Y-78564427D01*
X142096518Y-78615801D01*
X142096517Y-78615801D01*
X142096517Y-78615802D01*
X142013802Y-78698517D01*
X142013801Y-78698518D01*
X142011816Y-78700504D01*
X141957299Y-78728281D01*
X141941812Y-78729500D01*
X141714835Y-78729500D01*
X141656644Y-78710593D01*
X141644831Y-78700504D01*
X140926091Y-77981765D01*
X140898314Y-77927248D01*
X140907885Y-77866816D01*
X140919563Y-77848961D01*
X141038910Y-77703538D01*
X141049934Y-77682912D01*
X141094037Y-77640505D01*
X141154645Y-77632119D01*
X141207249Y-77659575D01*
X141551263Y-78003590D01*
X141554182Y-78006776D01*
X141580545Y-78038194D01*
X141580547Y-78038195D01*
X141616074Y-78058707D01*
X141619709Y-78061022D01*
X141653316Y-78084554D01*
X141654767Y-78084942D01*
X141678659Y-78094840D01*
X141679954Y-78095588D01*
X141688854Y-78097157D01*
X141720365Y-78102713D01*
X141724544Y-78103638D01*
X141764193Y-78114263D01*
X141805065Y-78110687D01*
X141809365Y-78110500D01*
X141941812Y-78110500D01*
X142000003Y-78129407D01*
X142011816Y-78139496D01*
X142013801Y-78141481D01*
X142013802Y-78141483D01*
X142096517Y-78224198D01*
X142150285Y-78250483D01*
X142201604Y-78275572D01*
X142201605Y-78275572D01*
X142201607Y-78275573D01*
X142269740Y-78285500D01*
X142269743Y-78285500D01*
X144086257Y-78285500D01*
X144086260Y-78285500D01*
X144154393Y-78275573D01*
X144259483Y-78224198D01*
X144342198Y-78141483D01*
X144393573Y-78036393D01*
X144403500Y-77968260D01*
X144403500Y-77601740D01*
X144393573Y-77533607D01*
X144391676Y-77529727D01*
X144368483Y-77482285D01*
X144342198Y-77428517D01*
X144259483Y-77345802D01*
X144259481Y-77345801D01*
X144154395Y-77294427D01*
X144127139Y-77290456D01*
X144086260Y-77284500D01*
X142269740Y-77284500D01*
X142235673Y-77289463D01*
X142201604Y-77294427D01*
X142096518Y-77345801D01*
X142096515Y-77345803D01*
X142025326Y-77416992D01*
X141970809Y-77444769D01*
X141910377Y-77435197D01*
X141885319Y-77416992D01*
X141682496Y-77214169D01*
X141654719Y-77159652D01*
X141653500Y-77144165D01*
X141653500Y-76140365D01*
X141653687Y-76136064D01*
X141655963Y-76110041D01*
X141679867Y-76053724D01*
X141732312Y-76022209D01*
X141793265Y-76027540D01*
X141824590Y-76048667D01*
X141938423Y-76162500D01*
X141966200Y-76217017D01*
X141963418Y-76255982D01*
X141963536Y-76256000D01*
X141963302Y-76257604D01*
X141963008Y-76261726D01*
X141962428Y-76263602D01*
X141962428Y-76263604D01*
X141962427Y-76263607D01*
X141952500Y-76331740D01*
X141952500Y-76698260D01*
X141959118Y-76743681D01*
X141962427Y-76766395D01*
X141987577Y-76817839D01*
X142013802Y-76871483D01*
X142096517Y-76954198D01*
X142150285Y-76980483D01*
X142201604Y-77005572D01*
X142201605Y-77005572D01*
X142201607Y-77005573D01*
X142269740Y-77015500D01*
X142269743Y-77015500D01*
X144086257Y-77015500D01*
X144086260Y-77015500D01*
X144154393Y-77005573D01*
X144259483Y-76954198D01*
X144342198Y-76871483D01*
X144393573Y-76766393D01*
X144403500Y-76698260D01*
X144403500Y-76515000D01*
X150270318Y-76515000D01*
X150290955Y-76671758D01*
X150290957Y-76671766D01*
X150351462Y-76817838D01*
X150351462Y-76817839D01*
X150447713Y-76943276D01*
X150447718Y-76943282D01*
X150447722Y-76943285D01*
X150447723Y-76943286D01*
X150573159Y-77039536D01*
X150573161Y-77039537D01*
X150703966Y-77093718D01*
X150719238Y-77100044D01*
X150836809Y-77115522D01*
X150875999Y-77120682D01*
X150876000Y-77120682D01*
X150876001Y-77120682D01*
X150907352Y-77116554D01*
X151032762Y-77100044D01*
X151178841Y-77039536D01*
X151283224Y-76959439D01*
X151340900Y-76939016D01*
X151387988Y-76952964D01*
X151389147Y-76950595D01*
X151501604Y-77005572D01*
X151501605Y-77005572D01*
X151501607Y-77005573D01*
X151569740Y-77015500D01*
X151569743Y-77015500D01*
X153386257Y-77015500D01*
X153386260Y-77015500D01*
X153454393Y-77005573D01*
X153456013Y-77004780D01*
X153457759Y-77004533D01*
X153461742Y-77003303D01*
X153461939Y-77003941D01*
X153516593Y-76996205D01*
X153570645Y-77024875D01*
X153597523Y-77079841D01*
X153598500Y-77093718D01*
X153598500Y-77206281D01*
X153579593Y-77264472D01*
X153530093Y-77300436D01*
X153468907Y-77300436D01*
X153456020Y-77295222D01*
X153454395Y-77294427D01*
X153427139Y-77290456D01*
X153386260Y-77284500D01*
X151569740Y-77284500D01*
X151535673Y-77289463D01*
X151501604Y-77294427D01*
X151396518Y-77345801D01*
X151313801Y-77428518D01*
X151262427Y-77533604D01*
X151262427Y-77533607D01*
X151252500Y-77601740D01*
X151252500Y-77968260D01*
X151254468Y-77981765D01*
X151262427Y-78036395D01*
X151307898Y-78129407D01*
X151313802Y-78141483D01*
X151396517Y-78224198D01*
X151450285Y-78250483D01*
X151501604Y-78275572D01*
X151501605Y-78275572D01*
X151501607Y-78275573D01*
X151569740Y-78285500D01*
X151569743Y-78285500D01*
X153386257Y-78285500D01*
X153386260Y-78285500D01*
X153454393Y-78275573D01*
X153559483Y-78224198D01*
X153642198Y-78141483D01*
X153642199Y-78141480D01*
X153647999Y-78135681D01*
X153649783Y-78137465D01*
X153688983Y-78108477D01*
X153694745Y-78106744D01*
X153706327Y-78103640D01*
X153710525Y-78102710D01*
X153750920Y-78095588D01*
X153752220Y-78094838D01*
X153776111Y-78084942D01*
X153776339Y-78084880D01*
X153777559Y-78084554D01*
X153811178Y-78061012D01*
X153814786Y-78058714D01*
X153850330Y-78038194D01*
X153876707Y-78006757D01*
X153879610Y-78003590D01*
X153937497Y-77945702D01*
X153992014Y-77917926D01*
X154052446Y-77927498D01*
X154095710Y-77970763D01*
X154106500Y-78015707D01*
X154106500Y-78564166D01*
X154087593Y-78622357D01*
X154077504Y-78634169D01*
X154011171Y-78700503D01*
X153956655Y-78728281D01*
X153941167Y-78729500D01*
X153714188Y-78729500D01*
X153655997Y-78710593D01*
X153644184Y-78700504D01*
X153642198Y-78698518D01*
X153642198Y-78698517D01*
X153559483Y-78615802D01*
X153537741Y-78605173D01*
X153454395Y-78564427D01*
X153426596Y-78560377D01*
X153386260Y-78554500D01*
X151569740Y-78554500D01*
X151535673Y-78559463D01*
X151501604Y-78564427D01*
X151396518Y-78615801D01*
X151313801Y-78698518D01*
X151262427Y-78803604D01*
X151257463Y-78837673D01*
X151252500Y-78871740D01*
X151252500Y-79238260D01*
X151257869Y-79275110D01*
X151262427Y-79306395D01*
X151301073Y-79385446D01*
X151313802Y-79411483D01*
X151396517Y-79494198D01*
X151447169Y-79518960D01*
X151501604Y-79545572D01*
X151501605Y-79545572D01*
X151501607Y-79545573D01*
X151569740Y-79555500D01*
X151569743Y-79555500D01*
X153386257Y-79555500D01*
X153386260Y-79555500D01*
X153454393Y-79545573D01*
X153559483Y-79494198D01*
X153642198Y-79411483D01*
X153642198Y-79411480D01*
X153644184Y-79409496D01*
X153698701Y-79381719D01*
X153714188Y-79380500D01*
X154100626Y-79380500D01*
X154104928Y-79380687D01*
X154115934Y-79381650D01*
X154116010Y-79381657D01*
X154172332Y-79405562D01*
X154203846Y-79458007D01*
X154198515Y-79518960D01*
X154177388Y-79550284D01*
X153770680Y-79956992D01*
X153716163Y-79984769D01*
X153655731Y-79975198D01*
X153630675Y-79956994D01*
X153559483Y-79885802D01*
X153559481Y-79885801D01*
X153454395Y-79834427D01*
X153427139Y-79830456D01*
X153386260Y-79824500D01*
X151569740Y-79824500D01*
X151535673Y-79829463D01*
X151501604Y-79834427D01*
X151396518Y-79885801D01*
X151313801Y-79968518D01*
X151262427Y-80073604D01*
X151262427Y-80073607D01*
X151252500Y-80141740D01*
X151252500Y-80508260D01*
X151257647Y-80543584D01*
X151262427Y-80576395D01*
X151307898Y-80669407D01*
X151313802Y-80681483D01*
X151396517Y-80764198D01*
X151450285Y-80790483D01*
X151501604Y-80815572D01*
X151501605Y-80815572D01*
X151501607Y-80815573D01*
X151569740Y-80825500D01*
X151569743Y-80825500D01*
X153386257Y-80825500D01*
X153386260Y-80825500D01*
X153454393Y-80815573D01*
X153559483Y-80764198D01*
X153642198Y-80681483D01*
X153642198Y-80681480D01*
X153644184Y-80679496D01*
X153698701Y-80651719D01*
X153714188Y-80650500D01*
X153846626Y-80650500D01*
X153850926Y-80650687D01*
X153891807Y-80654264D01*
X153931452Y-80643640D01*
X153935650Y-80642710D01*
X153976045Y-80635588D01*
X153976047Y-80635587D01*
X153977345Y-80634838D01*
X154001236Y-80624942D01*
X154001464Y-80624880D01*
X154002684Y-80624554D01*
X154036303Y-80601012D01*
X154039911Y-80598714D01*
X154075455Y-80578194D01*
X154101838Y-80546750D01*
X154104726Y-80543598D01*
X154442235Y-80206089D01*
X154496750Y-80178314D01*
X154557182Y-80187885D01*
X154599546Y-80229425D01*
X154607086Y-80243532D01*
X154607093Y-80243542D01*
X154732112Y-80395878D01*
X154732121Y-80395887D01*
X154869043Y-80508256D01*
X154884462Y-80520910D01*
X155058273Y-80613814D01*
X155246868Y-80671024D01*
X155246870Y-80671024D01*
X155246873Y-80671025D01*
X155442997Y-80690341D01*
X155443000Y-80690341D01*
X155443003Y-80690341D01*
X155639126Y-80671025D01*
X155639127Y-80671024D01*
X155639132Y-80671024D01*
X155827727Y-80613814D01*
X156001538Y-80520910D01*
X156153883Y-80395883D01*
X156278910Y-80243538D01*
X156371814Y-80069727D01*
X156429024Y-79881132D01*
X156448341Y-79685000D01*
X156448341Y-79684996D01*
X156429025Y-79488873D01*
X156429024Y-79488870D01*
X156429024Y-79488868D01*
X156371814Y-79300273D01*
X156278910Y-79126462D01*
X156158882Y-78980208D01*
X156153887Y-78974121D01*
X156153878Y-78974112D01*
X156001542Y-78849093D01*
X156001540Y-78849092D01*
X156001538Y-78849090D01*
X155929375Y-78810518D01*
X155827732Y-78756188D01*
X155827730Y-78756187D01*
X155639129Y-78698975D01*
X155639126Y-78698974D01*
X155443003Y-78679659D01*
X155442997Y-78679659D01*
X155246873Y-78698974D01*
X155246870Y-78698975D01*
X155058269Y-78756187D01*
X155058267Y-78756188D01*
X154905700Y-78837737D01*
X154845468Y-78848493D01*
X154790416Y-78821791D01*
X154761574Y-78767831D01*
X154760412Y-78759087D01*
X154757687Y-78727936D01*
X154757500Y-78723633D01*
X154757500Y-78078218D01*
X154776407Y-78020027D01*
X154825907Y-77984063D01*
X154887093Y-77984063D01*
X154903158Y-77990903D01*
X155058273Y-78073814D01*
X155246868Y-78131024D01*
X155246870Y-78131024D01*
X155246873Y-78131025D01*
X155442997Y-78150341D01*
X155443000Y-78150341D01*
X155443003Y-78150341D01*
X155639126Y-78131025D01*
X155639127Y-78131024D01*
X155639132Y-78131024D01*
X155827727Y-78073814D01*
X156001538Y-77980910D01*
X156153883Y-77855883D01*
X156278910Y-77703538D01*
X156371814Y-77529727D01*
X156429024Y-77341132D01*
X156433033Y-77300436D01*
X156448341Y-77145003D01*
X156448341Y-77144996D01*
X156429025Y-76948873D01*
X156429024Y-76948870D01*
X156429024Y-76948868D01*
X156371814Y-76760273D01*
X156278910Y-76586462D01*
X156242500Y-76542096D01*
X156153887Y-76434121D01*
X156153878Y-76434112D01*
X156001542Y-76309093D01*
X156001540Y-76309092D01*
X156001538Y-76309090D01*
X155960618Y-76287218D01*
X155827732Y-76216188D01*
X155827730Y-76216187D01*
X155639129Y-76158975D01*
X155639126Y-76158974D01*
X155443003Y-76139659D01*
X155442997Y-76139659D01*
X155246873Y-76158974D01*
X155246870Y-76158975D01*
X155058269Y-76216187D01*
X155058267Y-76216188D01*
X154884467Y-76309087D01*
X154884457Y-76309093D01*
X154732121Y-76434112D01*
X154732112Y-76434121D01*
X154607093Y-76586457D01*
X154607087Y-76586467D01*
X154514188Y-76760267D01*
X154514187Y-76760269D01*
X154456975Y-76948870D01*
X154456974Y-76948873D01*
X154447023Y-77049918D01*
X154422504Y-77105976D01*
X154369717Y-77136915D01*
X154308826Y-77130918D01*
X154263089Y-77090275D01*
X154249500Y-77040215D01*
X154249500Y-76299833D01*
X154268407Y-76241642D01*
X154278490Y-76229835D01*
X154952271Y-75556053D01*
X155006786Y-75528278D01*
X155053202Y-75533772D01*
X155053618Y-75532402D01*
X155246867Y-75591024D01*
X155246873Y-75591025D01*
X155442997Y-75610341D01*
X155443000Y-75610341D01*
X155443003Y-75610341D01*
X155639126Y-75591025D01*
X155639127Y-75591024D01*
X155639132Y-75591024D01*
X155827727Y-75533814D01*
X156001538Y-75440910D01*
X156153883Y-75315883D01*
X156278910Y-75163538D01*
X156371814Y-74989727D01*
X156429024Y-74801132D01*
X156429339Y-74797942D01*
X156448341Y-74605003D01*
X156448341Y-74604996D01*
X156429025Y-74408873D01*
X156429024Y-74408870D01*
X156429024Y-74408868D01*
X156371814Y-74220273D01*
X156278910Y-74046462D01*
X156166672Y-73909700D01*
X156153887Y-73894121D01*
X156153878Y-73894112D01*
X156001542Y-73769093D01*
X156001540Y-73769092D01*
X156001538Y-73769090D01*
X155960618Y-73747218D01*
X155827732Y-73676188D01*
X155827730Y-73676187D01*
X155639129Y-73618975D01*
X155639126Y-73618974D01*
X155443003Y-73599659D01*
X155442997Y-73599659D01*
X155246873Y-73618974D01*
X155246870Y-73618975D01*
X155058269Y-73676187D01*
X155058267Y-73676188D01*
X154884467Y-73769087D01*
X154884457Y-73769093D01*
X154732121Y-73894112D01*
X154732112Y-73894121D01*
X154607093Y-74046457D01*
X154607087Y-74046467D01*
X154514188Y-74220267D01*
X154514187Y-74220269D01*
X154456975Y-74408870D01*
X154456974Y-74408873D01*
X154437659Y-74604996D01*
X154437659Y-74605003D01*
X154456974Y-74801126D01*
X154456975Y-74801132D01*
X154515598Y-74994382D01*
X154513965Y-74994877D01*
X154518196Y-75048868D01*
X154491943Y-75095729D01*
X153705413Y-75882259D01*
X153702229Y-75885176D01*
X153670807Y-75911542D01*
X153670806Y-75911544D01*
X153650292Y-75947075D01*
X153647972Y-75950716D01*
X153624446Y-75984316D01*
X153620786Y-75992166D01*
X153617598Y-75990679D01*
X153592991Y-76028524D01*
X153535857Y-76050417D01*
X153487253Y-76040491D01*
X153460761Y-76027540D01*
X153454394Y-76024427D01*
X153437359Y-76021945D01*
X153386260Y-76014500D01*
X151569740Y-76014500D01*
X151535673Y-76019463D01*
X151501604Y-76024427D01*
X151389147Y-76079405D01*
X151387849Y-76076749D01*
X151342653Y-76091013D01*
X151284625Y-76071615D01*
X151283224Y-76070559D01*
X151178838Y-75990462D01*
X151059338Y-75940964D01*
X151012812Y-75901228D01*
X150998528Y-75841733D01*
X151021943Y-75785205D01*
X151059338Y-75758036D01*
X151113570Y-75735572D01*
X151178841Y-75708536D01*
X151246900Y-75656311D01*
X151304574Y-75635888D01*
X151363239Y-75653265D01*
X151377164Y-75664845D01*
X151396517Y-75684198D01*
X151446302Y-75708536D01*
X151501604Y-75735572D01*
X151501605Y-75735572D01*
X151501607Y-75735573D01*
X151569740Y-75745500D01*
X151569743Y-75745500D01*
X153386257Y-75745500D01*
X153386260Y-75745500D01*
X153454393Y-75735573D01*
X153559483Y-75684198D01*
X153642198Y-75601483D01*
X153693573Y-75496393D01*
X153703500Y-75428260D01*
X153703500Y-75061740D01*
X153693573Y-74993607D01*
X153691676Y-74989727D01*
X153642198Y-74888518D01*
X153642198Y-74888517D01*
X153559483Y-74805802D01*
X153559481Y-74805801D01*
X153454395Y-74754427D01*
X153427139Y-74750456D01*
X153386260Y-74744500D01*
X151569740Y-74744500D01*
X151535673Y-74749463D01*
X151501604Y-74754427D01*
X151430125Y-74789371D01*
X151369542Y-74797942D01*
X151315493Y-74769266D01*
X151308101Y-74760695D01*
X151304282Y-74755718D01*
X151251874Y-74715504D01*
X151178841Y-74659464D01*
X151129659Y-74639092D01*
X151127781Y-74638314D01*
X151081256Y-74598577D01*
X151066972Y-74539082D01*
X151090387Y-74482555D01*
X151127779Y-74455387D01*
X151178841Y-74434237D01*
X151244469Y-74383878D01*
X151302142Y-74363456D01*
X151360808Y-74380833D01*
X151374732Y-74392413D01*
X151396517Y-74414198D01*
X151437508Y-74434237D01*
X151501604Y-74465572D01*
X151501605Y-74465572D01*
X151501607Y-74465573D01*
X151569740Y-74475500D01*
X151569743Y-74475500D01*
X153386257Y-74475500D01*
X153386260Y-74475500D01*
X153454393Y-74465573D01*
X153559483Y-74414198D01*
X153642198Y-74331483D01*
X153693573Y-74226393D01*
X153703500Y-74158260D01*
X153703500Y-73791740D01*
X153693573Y-73723607D01*
X153642198Y-73618517D01*
X153559483Y-73535802D01*
X153541008Y-73526770D01*
X153454395Y-73484427D01*
X153427139Y-73480456D01*
X153386260Y-73474500D01*
X151569740Y-73474500D01*
X151535673Y-73479463D01*
X151501604Y-73484427D01*
X151432524Y-73518199D01*
X151371942Y-73526770D01*
X151317892Y-73498094D01*
X151310502Y-73489525D01*
X151304285Y-73481423D01*
X151304282Y-73481419D01*
X151304277Y-73481415D01*
X151304276Y-73481414D01*
X151178838Y-73385163D01*
X151032766Y-73324658D01*
X151032758Y-73324656D01*
X150876001Y-73304019D01*
X150875999Y-73304019D01*
X150719241Y-73324656D01*
X150719233Y-73324658D01*
X150573161Y-73385163D01*
X150573160Y-73385163D01*
X150447723Y-73481414D01*
X150447713Y-73481424D01*
X150351462Y-73606861D01*
X150351462Y-73606862D01*
X150290957Y-73752934D01*
X150290955Y-73752942D01*
X150270318Y-73909700D01*
X150270318Y-73909701D01*
X150290955Y-74066459D01*
X150290957Y-74066467D01*
X150351462Y-74212539D01*
X150351462Y-74212540D01*
X150442730Y-74331483D01*
X150447718Y-74337983D01*
X150573159Y-74434237D01*
X150573160Y-74434237D01*
X150573161Y-74434238D01*
X150624217Y-74455386D01*
X150670743Y-74495122D01*
X150685027Y-74554617D01*
X150661613Y-74611145D01*
X150624218Y-74638314D01*
X150573160Y-74659463D01*
X150447723Y-74755713D01*
X150447713Y-74755723D01*
X150351462Y-74881160D01*
X150351462Y-74881161D01*
X150290957Y-75027233D01*
X150290955Y-75027241D01*
X150270318Y-75183999D01*
X150270318Y-75184000D01*
X150290955Y-75340758D01*
X150290957Y-75340766D01*
X150351462Y-75486838D01*
X150351462Y-75486839D01*
X150447713Y-75612276D01*
X150447718Y-75612282D01*
X150573159Y-75708536D01*
X150638430Y-75735572D01*
X150692662Y-75758036D01*
X150739187Y-75797773D01*
X150753471Y-75857267D01*
X150730056Y-75913795D01*
X150692662Y-75940964D01*
X150573160Y-75990463D01*
X150447723Y-76086713D01*
X150447713Y-76086723D01*
X150351462Y-76212160D01*
X150351462Y-76212161D01*
X150290957Y-76358233D01*
X150290955Y-76358241D01*
X150270318Y-76514999D01*
X150270318Y-76515000D01*
X144403500Y-76515000D01*
X144403500Y-76331740D01*
X144393573Y-76263607D01*
X144392653Y-76261726D01*
X144342422Y-76158976D01*
X144342198Y-76158517D01*
X144259483Y-76075802D01*
X144248758Y-76070559D01*
X144154395Y-76024427D01*
X144127139Y-76020456D01*
X144086260Y-76014500D01*
X144086257Y-76014500D01*
X142752083Y-76014500D01*
X142693892Y-75995593D01*
X142682079Y-75985504D01*
X142611079Y-75914504D01*
X142583302Y-75859987D01*
X142592873Y-75799555D01*
X142636138Y-75756290D01*
X142681083Y-75745500D01*
X144086257Y-75745500D01*
X144086260Y-75745500D01*
X144154393Y-75735573D01*
X144259483Y-75684198D01*
X144342198Y-75601483D01*
X144393573Y-75496393D01*
X144403500Y-75428260D01*
X144403500Y-75061740D01*
X144393573Y-74993607D01*
X144391676Y-74989727D01*
X144342198Y-74888518D01*
X144342198Y-74888517D01*
X144259483Y-74805802D01*
X144259481Y-74805801D01*
X144154395Y-74754427D01*
X144127139Y-74750456D01*
X144086260Y-74744500D01*
X142301833Y-74744500D01*
X142243642Y-74725593D01*
X142231837Y-74715510D01*
X142155415Y-74639088D01*
X142127640Y-74584575D01*
X142137211Y-74524143D01*
X142180476Y-74480878D01*
X142239693Y-74471122D01*
X142269740Y-74475500D01*
X142269742Y-74475500D01*
X144086257Y-74475500D01*
X144086260Y-74475500D01*
X144154393Y-74465573D01*
X144259483Y-74414198D01*
X144342198Y-74331483D01*
X144393573Y-74226393D01*
X144403500Y-74158260D01*
X144403500Y-73791740D01*
X144393573Y-73723607D01*
X144342198Y-73618517D01*
X144259483Y-73535802D01*
X144241008Y-73526770D01*
X144154395Y-73484427D01*
X144127139Y-73480456D01*
X144086260Y-73474500D01*
X144086257Y-73474500D01*
X142591626Y-73474500D01*
X142533435Y-73455593D01*
X142521628Y-73445509D01*
X142450621Y-73374502D01*
X142422845Y-73319987D01*
X142432416Y-73259555D01*
X142475681Y-73216290D01*
X142520626Y-73205500D01*
X144086257Y-73205500D01*
X144086260Y-73205500D01*
X144154393Y-73195573D01*
X144259483Y-73144198D01*
X144342198Y-73061483D01*
X144342198Y-73061480D01*
X144344184Y-73059496D01*
X144398701Y-73031719D01*
X144414188Y-73030500D01*
X144702626Y-73030500D01*
X144706926Y-73030687D01*
X144747807Y-73034264D01*
X144787452Y-73023640D01*
X144791650Y-73022710D01*
X144832045Y-73015588D01*
X144833345Y-73014838D01*
X144857236Y-73004942D01*
X144857464Y-73004880D01*
X144858684Y-73004554D01*
X144892303Y-72981012D01*
X144895911Y-72978714D01*
X144931455Y-72958194D01*
X144957838Y-72926750D01*
X144960726Y-72923598D01*
X144996064Y-72888260D01*
X151252500Y-72888260D01*
X151257251Y-72920869D01*
X151262427Y-72956395D01*
X151307757Y-73049117D01*
X151313802Y-73061483D01*
X151396517Y-73144198D01*
X151450285Y-73170483D01*
X151501604Y-73195572D01*
X151501605Y-73195572D01*
X151501607Y-73195573D01*
X151569740Y-73205500D01*
X151569743Y-73205500D01*
X153386257Y-73205500D01*
X153386260Y-73205500D01*
X153454393Y-73195573D01*
X153559483Y-73144198D01*
X153642198Y-73061483D01*
X153693573Y-72956393D01*
X153703500Y-72888260D01*
X153703500Y-72521740D01*
X153693573Y-72453607D01*
X153691676Y-72449727D01*
X153668483Y-72402285D01*
X153642198Y-72348517D01*
X153559483Y-72265802D01*
X153552500Y-72262388D01*
X153454395Y-72214427D01*
X153427139Y-72210456D01*
X153386260Y-72204500D01*
X151569740Y-72204500D01*
X151535673Y-72209463D01*
X151501604Y-72214427D01*
X151396518Y-72265801D01*
X151313801Y-72348518D01*
X151262427Y-72453604D01*
X151262427Y-72453607D01*
X151252500Y-72521740D01*
X151252500Y-72888260D01*
X144996064Y-72888260D01*
X145723582Y-72160742D01*
X145726760Y-72157829D01*
X145758194Y-72131455D01*
X145778714Y-72095911D01*
X145781012Y-72092303D01*
X145804554Y-72058684D01*
X145804941Y-72057236D01*
X145814838Y-72033345D01*
X145815588Y-72032045D01*
X145822709Y-71991656D01*
X145823640Y-71987452D01*
X145834264Y-71947807D01*
X145830687Y-71906922D01*
X145830500Y-71902623D01*
X145830500Y-71618260D01*
X151252500Y-71618260D01*
X151259118Y-71663682D01*
X151262427Y-71686395D01*
X151298655Y-71760500D01*
X151313802Y-71791483D01*
X151396517Y-71874198D01*
X151450285Y-71900483D01*
X151501604Y-71925572D01*
X151501605Y-71925572D01*
X151501607Y-71925573D01*
X151569740Y-71935500D01*
X151569743Y-71935500D01*
X153386257Y-71935500D01*
X153386260Y-71935500D01*
X153454393Y-71925573D01*
X153559483Y-71874198D01*
X153642198Y-71791483D01*
X153642198Y-71791480D01*
X153644184Y-71789496D01*
X153698701Y-71761719D01*
X153714188Y-71760500D01*
X154063166Y-71760500D01*
X154121357Y-71779407D01*
X154133170Y-71789496D01*
X154415778Y-72072104D01*
X154443555Y-72126621D01*
X154444297Y-72132405D01*
X154456974Y-72261126D01*
X154456975Y-72261129D01*
X154514187Y-72449730D01*
X154514188Y-72449732D01*
X154552679Y-72521743D01*
X154607090Y-72623538D01*
X154607092Y-72623540D01*
X154607093Y-72623542D01*
X154732112Y-72775878D01*
X154732121Y-72775887D01*
X154869043Y-72888256D01*
X154884462Y-72900910D01*
X154988267Y-72956395D01*
X155058263Y-72993809D01*
X155058273Y-72993814D01*
X155246868Y-73051024D01*
X155246870Y-73051024D01*
X155246873Y-73051025D01*
X155442997Y-73070341D01*
X155443000Y-73070341D01*
X155443003Y-73070341D01*
X155639126Y-73051025D01*
X155639127Y-73051024D01*
X155639132Y-73051024D01*
X155827727Y-72993814D01*
X156001538Y-72900910D01*
X156153883Y-72775883D01*
X156278910Y-72623538D01*
X156371814Y-72449727D01*
X156429024Y-72261132D01*
X156434859Y-72201896D01*
X156448341Y-72065003D01*
X156448341Y-72064996D01*
X156429025Y-71868873D01*
X156429024Y-71868870D01*
X156429024Y-71868868D01*
X156371814Y-71680273D01*
X156278910Y-71506462D01*
X156167519Y-71370732D01*
X156153887Y-71354121D01*
X156153878Y-71354112D01*
X156001542Y-71229093D01*
X156001540Y-71229092D01*
X156001538Y-71229090D01*
X155960618Y-71207218D01*
X155827732Y-71136188D01*
X155827730Y-71136187D01*
X155825287Y-71135446D01*
X155639132Y-71078976D01*
X155639129Y-71078975D01*
X155639126Y-71078974D01*
X155443003Y-71059659D01*
X155442997Y-71059659D01*
X155246873Y-71078974D01*
X155246870Y-71078975D01*
X155058269Y-71136187D01*
X155058267Y-71136188D01*
X154884467Y-71229087D01*
X154884457Y-71229093D01*
X154739043Y-71348432D01*
X154682066Y-71370732D01*
X154622863Y-71355283D01*
X154606234Y-71341908D01*
X154480741Y-71216414D01*
X154477822Y-71213229D01*
X154451456Y-71181806D01*
X154428818Y-71168736D01*
X154415918Y-71161288D01*
X154412288Y-71158975D01*
X154378684Y-71135446D01*
X154378679Y-71135443D01*
X154377224Y-71135054D01*
X154353348Y-71125164D01*
X154352045Y-71124411D01*
X154311652Y-71117289D01*
X154307436Y-71116354D01*
X154281153Y-71109312D01*
X154267807Y-71105736D01*
X154267806Y-71105736D01*
X154263381Y-71106123D01*
X154226926Y-71109312D01*
X154222626Y-71109500D01*
X153714188Y-71109500D01*
X153655997Y-71090593D01*
X153644184Y-71080504D01*
X153642198Y-71078518D01*
X153642198Y-71078517D01*
X153559483Y-70995802D01*
X153548760Y-70990560D01*
X153454395Y-70944427D01*
X153427139Y-70940456D01*
X153386260Y-70934500D01*
X151569740Y-70934500D01*
X151535673Y-70939463D01*
X151501604Y-70944427D01*
X151396518Y-70995801D01*
X151313801Y-71078518D01*
X151262427Y-71183604D01*
X151262427Y-71183607D01*
X151252500Y-71251740D01*
X151252500Y-71618260D01*
X145830500Y-71618260D01*
X145830500Y-70337362D01*
X145830687Y-70333061D01*
X145834263Y-70292193D01*
X145823638Y-70252544D01*
X145822713Y-70248365D01*
X145815588Y-70207955D01*
X145815588Y-70207954D01*
X145814840Y-70206659D01*
X145804942Y-70182767D01*
X145804554Y-70181316D01*
X145793129Y-70165000D01*
X150270318Y-70165000D01*
X150290955Y-70321758D01*
X150290957Y-70321766D01*
X150351462Y-70467838D01*
X150351462Y-70467839D01*
X150447713Y-70593276D01*
X150447718Y-70593282D01*
X150447722Y-70593285D01*
X150447723Y-70593286D01*
X150528896Y-70655572D01*
X150573159Y-70689536D01*
X150719238Y-70750044D01*
X150836809Y-70765522D01*
X150875999Y-70770682D01*
X150876000Y-70770682D01*
X150876001Y-70770682D01*
X150907352Y-70766554D01*
X151032762Y-70750044D01*
X151178841Y-70689536D01*
X151283224Y-70609439D01*
X151340900Y-70589016D01*
X151387988Y-70602964D01*
X151389147Y-70600595D01*
X151501604Y-70655572D01*
X151501605Y-70655572D01*
X151501607Y-70655573D01*
X151569740Y-70665500D01*
X151569743Y-70665500D01*
X153386257Y-70665500D01*
X153386260Y-70665500D01*
X153454393Y-70655573D01*
X153559483Y-70604198D01*
X153642198Y-70521483D01*
X153693573Y-70416393D01*
X153703500Y-70348260D01*
X153703500Y-69981740D01*
X153693573Y-69913607D01*
X153691676Y-69909727D01*
X153668422Y-69862159D01*
X153642198Y-69808517D01*
X153559483Y-69725802D01*
X153550918Y-69721615D01*
X153454395Y-69674427D01*
X153427139Y-69670456D01*
X153386260Y-69664500D01*
X153386257Y-69664500D01*
X152949500Y-69664500D01*
X152891309Y-69645593D01*
X152855345Y-69596093D01*
X152850500Y-69565500D01*
X152850500Y-69525003D01*
X154437659Y-69525003D01*
X154456974Y-69721126D01*
X154456975Y-69721129D01*
X154514187Y-69909730D01*
X154514188Y-69909732D01*
X154566841Y-70008238D01*
X154607090Y-70083538D01*
X154607092Y-70083540D01*
X154607093Y-70083542D01*
X154732112Y-70235878D01*
X154732121Y-70235887D01*
X154853137Y-70335202D01*
X154884462Y-70360910D01*
X155058273Y-70453814D01*
X155246868Y-70511024D01*
X155246870Y-70511024D01*
X155246873Y-70511025D01*
X155442997Y-70530341D01*
X155443000Y-70530341D01*
X155443003Y-70530341D01*
X155639126Y-70511025D01*
X155639127Y-70511024D01*
X155639132Y-70511024D01*
X155827727Y-70453814D01*
X156001538Y-70360910D01*
X156153883Y-70235883D01*
X156278910Y-70083538D01*
X156371814Y-69909727D01*
X156429024Y-69721132D01*
X156429081Y-69720559D01*
X156448341Y-69525003D01*
X156448341Y-69524996D01*
X156429025Y-69328873D01*
X156429024Y-69328870D01*
X156429024Y-69328868D01*
X156371814Y-69140273D01*
X156278910Y-68966462D01*
X156217756Y-68891946D01*
X156153887Y-68814121D01*
X156153878Y-68814112D01*
X156001542Y-68689093D01*
X156001540Y-68689092D01*
X156001538Y-68689090D01*
X155958022Y-68665830D01*
X155827732Y-68596188D01*
X155827730Y-68596187D01*
X155639129Y-68538975D01*
X155639126Y-68538974D01*
X155443003Y-68519659D01*
X155442997Y-68519659D01*
X155246873Y-68538974D01*
X155246870Y-68538975D01*
X155058269Y-68596187D01*
X155058267Y-68596188D01*
X154884467Y-68689087D01*
X154884457Y-68689093D01*
X154732121Y-68814112D01*
X154732112Y-68814121D01*
X154607093Y-68966457D01*
X154607087Y-68966467D01*
X154514188Y-69140267D01*
X154514187Y-69140269D01*
X154456975Y-69328870D01*
X154456974Y-69328873D01*
X154437659Y-69524996D01*
X154437659Y-69525003D01*
X152850500Y-69525003D01*
X152850500Y-68790616D01*
X152869407Y-68732425D01*
X152903247Y-68703085D01*
X152906966Y-68701118D01*
X152906975Y-68701116D01*
X153013211Y-68622711D01*
X153091616Y-68516475D01*
X153135225Y-68391849D01*
X153138000Y-68362256D01*
X153138000Y-67781744D01*
X153138000Y-67781743D01*
X153138000Y-67781738D01*
X153137999Y-67781733D01*
X153135225Y-67752155D01*
X153135225Y-67752151D01*
X153091616Y-67627525D01*
X153065993Y-67592807D01*
X153013214Y-67521293D01*
X153013213Y-67521292D01*
X153013211Y-67521289D01*
X153013206Y-67521285D01*
X152906977Y-67442884D01*
X152903237Y-67440908D01*
X152860626Y-67396999D01*
X152850500Y-67353382D01*
X152850500Y-67283610D01*
X152869407Y-67225419D01*
X152879490Y-67213612D01*
X153108099Y-66985003D01*
X154437659Y-66985003D01*
X154456974Y-67181126D01*
X154456975Y-67181129D01*
X154514187Y-67369730D01*
X154514188Y-67369732D01*
X154552233Y-67440908D01*
X154607090Y-67543538D01*
X154607092Y-67543540D01*
X154607093Y-67543542D01*
X154732112Y-67695878D01*
X154732121Y-67695887D01*
X154836725Y-67781733D01*
X154884462Y-67820910D01*
X155058273Y-67913814D01*
X155246868Y-67971024D01*
X155246870Y-67971024D01*
X155246873Y-67971025D01*
X155442997Y-67990341D01*
X155443000Y-67990341D01*
X155443003Y-67990341D01*
X155639126Y-67971025D01*
X155639127Y-67971024D01*
X155639132Y-67971024D01*
X155827727Y-67913814D01*
X156001538Y-67820910D01*
X156153883Y-67695883D01*
X156278910Y-67543538D01*
X156371814Y-67369727D01*
X156429024Y-67181132D01*
X156436325Y-67107010D01*
X156448341Y-66985003D01*
X156448341Y-66984996D01*
X156429025Y-66788873D01*
X156429024Y-66788870D01*
X156429024Y-66788868D01*
X156371814Y-66600273D01*
X156278910Y-66426462D01*
X156278906Y-66426457D01*
X156153887Y-66274121D01*
X156153878Y-66274112D01*
X156001542Y-66149093D01*
X156001540Y-66149092D01*
X156001538Y-66149090D01*
X155960618Y-66127218D01*
X155827732Y-66056188D01*
X155827730Y-66056187D01*
X155639129Y-65998975D01*
X155639126Y-65998974D01*
X155443003Y-65979659D01*
X155442997Y-65979659D01*
X155246873Y-65998974D01*
X155246870Y-65998975D01*
X155058269Y-66056187D01*
X155058267Y-66056188D01*
X154884467Y-66149087D01*
X154884457Y-66149093D01*
X154732121Y-66274112D01*
X154732112Y-66274121D01*
X154607093Y-66426457D01*
X154607087Y-66426467D01*
X154514188Y-66600267D01*
X154514187Y-66600269D01*
X154456975Y-66788870D01*
X154456974Y-66788873D01*
X154437659Y-66984996D01*
X154437659Y-66985003D01*
X153108099Y-66985003D01*
X154785449Y-65307652D01*
X154839964Y-65279877D01*
X154900396Y-65289448D01*
X154902119Y-65290348D01*
X154963642Y-65323233D01*
X155058273Y-65373814D01*
X155246868Y-65431024D01*
X155246870Y-65431024D01*
X155246873Y-65431025D01*
X155442997Y-65450341D01*
X155443000Y-65450341D01*
X155443003Y-65450341D01*
X155639126Y-65431025D01*
X155639127Y-65431024D01*
X155639132Y-65431024D01*
X155827727Y-65373814D01*
X156001538Y-65280910D01*
X156153883Y-65155883D01*
X156278910Y-65003538D01*
X156371814Y-64829727D01*
X156429024Y-64641132D01*
X156448341Y-64445000D01*
X156437903Y-64339019D01*
X156429025Y-64248873D01*
X156429024Y-64248870D01*
X156429024Y-64248868D01*
X156371814Y-64060273D01*
X156278910Y-63886462D01*
X156278906Y-63886457D01*
X156153887Y-63734121D01*
X156153878Y-63734112D01*
X156001542Y-63609093D01*
X156001540Y-63609092D01*
X156001538Y-63609090D01*
X155922361Y-63566769D01*
X155827732Y-63516188D01*
X155827730Y-63516187D01*
X155767258Y-63497843D01*
X155639132Y-63458976D01*
X155639129Y-63458975D01*
X155639126Y-63458974D01*
X155443003Y-63439659D01*
X155442997Y-63439659D01*
X155246873Y-63458974D01*
X155246870Y-63458975D01*
X155058269Y-63516187D01*
X155058267Y-63516188D01*
X154884467Y-63609087D01*
X154884457Y-63609093D01*
X154732121Y-63734112D01*
X154732112Y-63734121D01*
X154607093Y-63886457D01*
X154607087Y-63886467D01*
X154514188Y-64060267D01*
X154514187Y-64060269D01*
X154456976Y-64248865D01*
X154456976Y-64248867D01*
X154448096Y-64339019D01*
X154423575Y-64395076D01*
X154419577Y-64399318D01*
X152101301Y-66717593D01*
X152097160Y-66721294D01*
X152066031Y-66746119D01*
X152032519Y-66795271D01*
X151997207Y-66843116D01*
X151993742Y-66849674D01*
X151993353Y-66849468D01*
X151992350Y-66851455D01*
X151992746Y-66851646D01*
X151989528Y-66858327D01*
X151971992Y-66915177D01*
X151952355Y-66971297D01*
X151950976Y-66978587D01*
X151950544Y-66978505D01*
X151950171Y-66980700D01*
X151950605Y-66980766D01*
X151949500Y-66988099D01*
X151949500Y-67047572D01*
X151947276Y-67107010D01*
X151948107Y-67114385D01*
X151947668Y-67114434D01*
X151949500Y-67128344D01*
X151949500Y-67353382D01*
X151930593Y-67411573D01*
X151896763Y-67440908D01*
X151893022Y-67442884D01*
X151780820Y-67525694D01*
X151779330Y-67523675D01*
X151735140Y-67546180D01*
X151674710Y-67536596D01*
X151635414Y-67500369D01*
X151557445Y-67373963D01*
X151435535Y-67252053D01*
X151288806Y-67161548D01*
X151125148Y-67107318D01*
X151024155Y-67097000D01*
X150925001Y-67097000D01*
X150925000Y-67097001D01*
X150925000Y-69046998D01*
X150925001Y-69046999D01*
X151024154Y-69046999D01*
X151125142Y-69036682D01*
X151125154Y-69036679D01*
X151288806Y-68982451D01*
X151435535Y-68891946D01*
X151557443Y-68770038D01*
X151635413Y-68643630D01*
X151682054Y-68604029D01*
X151743065Y-68599406D01*
X151779611Y-68619942D01*
X151780820Y-68618305D01*
X151786787Y-68622709D01*
X151786789Y-68622711D01*
X151893025Y-68701116D01*
X151893030Y-68701117D01*
X151896753Y-68703085D01*
X151939369Y-68746989D01*
X151949500Y-68790616D01*
X151949500Y-69565500D01*
X151930593Y-69623691D01*
X151881093Y-69659655D01*
X151850500Y-69664500D01*
X151569740Y-69664500D01*
X151535673Y-69669463D01*
X151501604Y-69674427D01*
X151389147Y-69729405D01*
X151387849Y-69726749D01*
X151342653Y-69741013D01*
X151284625Y-69721615D01*
X151283224Y-69720559D01*
X151178838Y-69640462D01*
X151032766Y-69579957D01*
X151032758Y-69579955D01*
X150876001Y-69559318D01*
X150875999Y-69559318D01*
X150719241Y-69579955D01*
X150719233Y-69579957D01*
X150573161Y-69640462D01*
X150573160Y-69640462D01*
X150447723Y-69736713D01*
X150447713Y-69736723D01*
X150351462Y-69862160D01*
X150351462Y-69862161D01*
X150290957Y-70008233D01*
X150290955Y-70008241D01*
X150270318Y-70164999D01*
X150270318Y-70165000D01*
X145793129Y-70165000D01*
X145781022Y-70147709D01*
X145778707Y-70144074D01*
X145758193Y-70108544D01*
X145751221Y-70102694D01*
X145726771Y-70082178D01*
X145723594Y-70079266D01*
X144513741Y-68869414D01*
X144510822Y-68866229D01*
X144484456Y-68834806D01*
X144461818Y-68821736D01*
X144448918Y-68814288D01*
X144445288Y-68811975D01*
X144411684Y-68788446D01*
X144411679Y-68788443D01*
X144410224Y-68788054D01*
X144386348Y-68778164D01*
X144385045Y-68777411D01*
X144344652Y-68770289D01*
X144340436Y-68769354D01*
X144314153Y-68762312D01*
X144300807Y-68758736D01*
X144300806Y-68758736D01*
X144296381Y-68759123D01*
X144259926Y-68762312D01*
X144255626Y-68762500D01*
X143431835Y-68762500D01*
X143373644Y-68743593D01*
X143361831Y-68733504D01*
X142950327Y-68322000D01*
X149637501Y-68322000D01*
X149637501Y-68358654D01*
X149647817Y-68459642D01*
X149647820Y-68459654D01*
X149702048Y-68623306D01*
X149792553Y-68770035D01*
X149914464Y-68891946D01*
X150061193Y-68982451D01*
X150224851Y-69036681D01*
X150325845Y-69046999D01*
X150425000Y-69046999D01*
X150425000Y-68322001D01*
X150424999Y-68322000D01*
X149637501Y-68322000D01*
X142950327Y-68322000D01*
X142450326Y-67821999D01*
X149637500Y-67821999D01*
X149637501Y-67822000D01*
X150424999Y-67822000D01*
X150425000Y-67821998D01*
X150425000Y-67097000D01*
X150325845Y-67097000D01*
X150325845Y-67097001D01*
X150224857Y-67107317D01*
X150224845Y-67107320D01*
X150061193Y-67161548D01*
X149914464Y-67252053D01*
X149792553Y-67373964D01*
X149702048Y-67520693D01*
X149647818Y-67684351D01*
X149637500Y-67785344D01*
X149637500Y-67821999D01*
X142450326Y-67821999D01*
X142086496Y-67458169D01*
X142058719Y-67403652D01*
X142057500Y-67388165D01*
X142057500Y-65990374D01*
X142057687Y-65986073D01*
X142061264Y-65945194D01*
X142050641Y-65905552D01*
X142049709Y-65901345D01*
X142042588Y-65860957D01*
X142042588Y-65860955D01*
X142041835Y-65859651D01*
X142031944Y-65835771D01*
X142031555Y-65834319D01*
X142031554Y-65834318D01*
X142031554Y-65834316D01*
X142031552Y-65834313D01*
X142031551Y-65834311D01*
X142008025Y-65800712D01*
X142005703Y-65797068D01*
X141985193Y-65761543D01*
X141964069Y-65743819D01*
X141953765Y-65735173D01*
X141950588Y-65732261D01*
X141232496Y-65014170D01*
X141204719Y-64959653D01*
X141203500Y-64944166D01*
X141203500Y-63625253D01*
X141203498Y-63625241D01*
X141200285Y-63609087D01*
X141191867Y-63566769D01*
X141147552Y-63500448D01*
X141146882Y-63500000D01*
X141081233Y-63456134D01*
X141081231Y-63456133D01*
X141081228Y-63456132D01*
X141081227Y-63456132D01*
X141022758Y-63444501D01*
X141022748Y-63444500D01*
X139383252Y-63444500D01*
X139383251Y-63444500D01*
X139383241Y-63444501D01*
X139324772Y-63456132D01*
X139324766Y-63456134D01*
X139258451Y-63500445D01*
X139258445Y-63500451D01*
X139214134Y-63566766D01*
X139214132Y-63566772D01*
X139202501Y-63625241D01*
X139202500Y-63625253D01*
X139202500Y-65264746D01*
X139202501Y-65264758D01*
X139214132Y-65323227D01*
X139214134Y-65323233D01*
X139247932Y-65373814D01*
X139258448Y-65389552D01*
X139324769Y-65433867D01*
X139369231Y-65442711D01*
X139383241Y-65445498D01*
X139383246Y-65445498D01*
X139383252Y-65445500D01*
X140702166Y-65445500D01*
X140760357Y-65464407D01*
X140772170Y-65474496D01*
X141377505Y-66079831D01*
X141405281Y-66134346D01*
X141406500Y-66149833D01*
X141406500Y-67489165D01*
X141387593Y-67547356D01*
X141338093Y-67583320D01*
X141276907Y-67583320D01*
X141237497Y-67559169D01*
X141154056Y-67475729D01*
X141126278Y-67421213D01*
X141131778Y-67374799D01*
X141130402Y-67374382D01*
X141189024Y-67181132D01*
X141189025Y-67181126D01*
X141208341Y-66985003D01*
X141208341Y-66984996D01*
X141189025Y-66788873D01*
X141189024Y-66788870D01*
X141189024Y-66788868D01*
X141131814Y-66600273D01*
X141038910Y-66426462D01*
X141038906Y-66426457D01*
X140913887Y-66274121D01*
X140913878Y-66274112D01*
X140761542Y-66149093D01*
X140761540Y-66149092D01*
X140761538Y-66149090D01*
X140720618Y-66127218D01*
X140587732Y-66056188D01*
X140587730Y-66056187D01*
X140399129Y-65998975D01*
X140399126Y-65998974D01*
X140203003Y-65979659D01*
X140202997Y-65979659D01*
X140006873Y-65998974D01*
X140006870Y-65998975D01*
X139818269Y-66056187D01*
X139818267Y-66056188D01*
X139644467Y-66149087D01*
X139644457Y-66149093D01*
X139492121Y-66274112D01*
X139492112Y-66274121D01*
X139367093Y-66426457D01*
X139367087Y-66426467D01*
X139274188Y-66600267D01*
X139274187Y-66600269D01*
X139216975Y-66788870D01*
X139216974Y-66788873D01*
X139197659Y-66984996D01*
X139197659Y-66985003D01*
X139216974Y-67181126D01*
X139216975Y-67181129D01*
X139274187Y-67369730D01*
X139274188Y-67369732D01*
X139312233Y-67440908D01*
X139367090Y-67543538D01*
X139367092Y-67543540D01*
X139367093Y-67543542D01*
X139492112Y-67695878D01*
X139492121Y-67695887D01*
X139596725Y-67781733D01*
X139644462Y-67820910D01*
X139818273Y-67913814D01*
X140006868Y-67971024D01*
X140006870Y-67971024D01*
X140006873Y-67971025D01*
X140202997Y-67990341D01*
X140203000Y-67990341D01*
X140203003Y-67990341D01*
X140399126Y-67971025D01*
X140399132Y-67971024D01*
X140592382Y-67912402D01*
X140592881Y-67914048D01*
X140646805Y-67909787D01*
X140693729Y-67936055D01*
X141423504Y-68665830D01*
X141451281Y-68720347D01*
X141452500Y-68735834D01*
X141452500Y-70075166D01*
X141433593Y-70133357D01*
X141384093Y-70169321D01*
X141322907Y-70169321D01*
X141283497Y-70145170D01*
X141154056Y-70015730D01*
X141126278Y-69961213D01*
X141131775Y-69914798D01*
X141130402Y-69914382D01*
X141189024Y-69721132D01*
X141189025Y-69721126D01*
X141208341Y-69525003D01*
X141208341Y-69524996D01*
X141189025Y-69328873D01*
X141189024Y-69328870D01*
X141189024Y-69328868D01*
X141131814Y-69140273D01*
X141038910Y-68966462D01*
X140977756Y-68891946D01*
X140913887Y-68814121D01*
X140913878Y-68814112D01*
X140761542Y-68689093D01*
X140761540Y-68689092D01*
X140761538Y-68689090D01*
X140718022Y-68665830D01*
X140587732Y-68596188D01*
X140587730Y-68596187D01*
X140399129Y-68538975D01*
X140399126Y-68538974D01*
X140203003Y-68519659D01*
X140202997Y-68519659D01*
X140006873Y-68538974D01*
X140006870Y-68538975D01*
X139818269Y-68596187D01*
X139818267Y-68596188D01*
X139644467Y-68689087D01*
X139644457Y-68689093D01*
X139492121Y-68814112D01*
X139492112Y-68814121D01*
X139367093Y-68966457D01*
X139367087Y-68966467D01*
X139274188Y-69140267D01*
X139274187Y-69140269D01*
X139216975Y-69328870D01*
X139216974Y-69328873D01*
X139197659Y-69524996D01*
X139197659Y-69525003D01*
X139216974Y-69721126D01*
X139216975Y-69721129D01*
X139274187Y-69909730D01*
X139274188Y-69909732D01*
X139326841Y-70008238D01*
X139367090Y-70083538D01*
X139367092Y-70083540D01*
X139367093Y-70083542D01*
X139492112Y-70235878D01*
X139492121Y-70235887D01*
X139613137Y-70335202D01*
X139644462Y-70360910D01*
X139818273Y-70453814D01*
X140006868Y-70511024D01*
X140006870Y-70511024D01*
X140006873Y-70511025D01*
X140202997Y-70530341D01*
X140203000Y-70530341D01*
X140203003Y-70530341D01*
X140399126Y-70511025D01*
X140399132Y-70511024D01*
X140592382Y-70452402D01*
X140592881Y-70454048D01*
X140646805Y-70449787D01*
X140693729Y-70476055D01*
X140973504Y-70755830D01*
X141001281Y-70810347D01*
X141002500Y-70825834D01*
X141002500Y-71217524D01*
X140983593Y-71275715D01*
X140934093Y-71311679D01*
X140872907Y-71311679D01*
X140840695Y-71294052D01*
X140761542Y-71229093D01*
X140761540Y-71229092D01*
X140761538Y-71229090D01*
X140720618Y-71207218D01*
X140587732Y-71136188D01*
X140587730Y-71136187D01*
X140585287Y-71135446D01*
X140399132Y-71078976D01*
X140399129Y-71078975D01*
X140399126Y-71078974D01*
X140203003Y-71059659D01*
X140202997Y-71059659D01*
X140006873Y-71078974D01*
X140006870Y-71078975D01*
X139818269Y-71136187D01*
X139818267Y-71136188D01*
X139644467Y-71229087D01*
X139644457Y-71229093D01*
X139492121Y-71354112D01*
X139492112Y-71354121D01*
X139367093Y-71506457D01*
X139367087Y-71506467D01*
X139274188Y-71680267D01*
X139274187Y-71680269D01*
X139216975Y-71868870D01*
X139216974Y-71868873D01*
X139197659Y-72064996D01*
X139197659Y-72065003D01*
X139216974Y-72261126D01*
X139216975Y-72261129D01*
X139274187Y-72449730D01*
X139274188Y-72449732D01*
X139312679Y-72521743D01*
X139367090Y-72623538D01*
X139367092Y-72623540D01*
X139367093Y-72623542D01*
X139492112Y-72775878D01*
X139492121Y-72775887D01*
X139629043Y-72888256D01*
X139644462Y-72900910D01*
X139818273Y-72993814D01*
X139885252Y-73014132D01*
X139935449Y-73049117D01*
X139942245Y-73059360D01*
X139949806Y-73072455D01*
X139949807Y-73072456D01*
X139981224Y-73098818D01*
X139984410Y-73101737D01*
X140317203Y-73434529D01*
X140344980Y-73489046D01*
X140335409Y-73549478D01*
X140292144Y-73592743D01*
X140237496Y-73603056D01*
X140203003Y-73599659D01*
X140202997Y-73599659D01*
X140006873Y-73618974D01*
X140006870Y-73618975D01*
X139818269Y-73676187D01*
X139818267Y-73676188D01*
X139644467Y-73769087D01*
X139644457Y-73769093D01*
X139492121Y-73894112D01*
X139492112Y-73894121D01*
X139367093Y-74046457D01*
X139367087Y-74046467D01*
X139274188Y-74220267D01*
X139274187Y-74220269D01*
X139216975Y-74408870D01*
X139216974Y-74408873D01*
X139197659Y-74604996D01*
X139197659Y-74605003D01*
X139216974Y-74801126D01*
X139216975Y-74801129D01*
X139274187Y-74989730D01*
X139274188Y-74989732D01*
X139312679Y-75061743D01*
X139367090Y-75163538D01*
X139367092Y-75163540D01*
X139367093Y-75163542D01*
X139492112Y-75315878D01*
X139492121Y-75315887D01*
X139629043Y-75428256D01*
X139644462Y-75440910D01*
X139818273Y-75533814D01*
X140006868Y-75591024D01*
X140006870Y-75591024D01*
X140006873Y-75591025D01*
X140202997Y-75610341D01*
X140203000Y-75610341D01*
X140203002Y-75610341D01*
X140221038Y-75608564D01*
X140293875Y-75601390D01*
X140353637Y-75614502D01*
X140373582Y-75629909D01*
X140960623Y-76216950D01*
X140988400Y-76271467D01*
X140978829Y-76331899D01*
X140935564Y-76375164D01*
X140875132Y-76384735D01*
X140827814Y-76363482D01*
X140821424Y-76358238D01*
X140761538Y-76309090D01*
X140720618Y-76287218D01*
X140587732Y-76216188D01*
X140587730Y-76216187D01*
X140399129Y-76158975D01*
X140399126Y-76158974D01*
X140203003Y-76139659D01*
X140202997Y-76139659D01*
X140006873Y-76158974D01*
X140006870Y-76158975D01*
X139818269Y-76216187D01*
X139818267Y-76216188D01*
X139644467Y-76309087D01*
X139644457Y-76309093D01*
X139492121Y-76434112D01*
X139492112Y-76434121D01*
X139367093Y-76586457D01*
X139367087Y-76586467D01*
X139274188Y-76760267D01*
X139274187Y-76760269D01*
X139216975Y-76948870D01*
X139216974Y-76948873D01*
X139197659Y-77144996D01*
X139197659Y-77145003D01*
X139216974Y-77341126D01*
X139216975Y-77341129D01*
X139274187Y-77529730D01*
X139274188Y-77529732D01*
X139312679Y-77601743D01*
X139367090Y-77703538D01*
X139367092Y-77703540D01*
X139367093Y-77703542D01*
X139492112Y-77855878D01*
X139492121Y-77855887D01*
X139601562Y-77945703D01*
X139644462Y-77980910D01*
X139748267Y-78036395D01*
X139792026Y-78059785D01*
X139818273Y-78073814D01*
X140006868Y-78131024D01*
X140006870Y-78131024D01*
X140006873Y-78131025D01*
X140135594Y-78143702D01*
X140191651Y-78168221D01*
X140195895Y-78172222D01*
X140584049Y-78560377D01*
X140611826Y-78614893D01*
X140602255Y-78675325D01*
X140558990Y-78718590D01*
X140498558Y-78728161D01*
X140485307Y-78725117D01*
X140399132Y-78698975D01*
X140399126Y-78698974D01*
X140203003Y-78679659D01*
X140202997Y-78679659D01*
X140006873Y-78698974D01*
X140006870Y-78698975D01*
X139818269Y-78756187D01*
X139818267Y-78756188D01*
X139644467Y-78849087D01*
X139644457Y-78849093D01*
X139492121Y-78974112D01*
X139492112Y-78974121D01*
X139367093Y-79126457D01*
X139367087Y-79126467D01*
X139274188Y-79300267D01*
X139274187Y-79300269D01*
X139216975Y-79488870D01*
X139216974Y-79488873D01*
X139197659Y-79684996D01*
X139197659Y-79685003D01*
X138684500Y-79685003D01*
X138684500Y-63502157D01*
X138684687Y-63497861D01*
X138688479Y-63454513D01*
X138701410Y-63323226D01*
X138704302Y-63307335D01*
X138722944Y-63237759D01*
X138723290Y-63236618D01*
X138752330Y-63140889D01*
X138757316Y-63127857D01*
X138790173Y-63057394D01*
X138791313Y-63055115D01*
X138837605Y-62968507D01*
X138840680Y-62963501D01*
X138888446Y-62895284D01*
X138890686Y-62892333D01*
X138951808Y-62817855D01*
X138955043Y-62814287D01*
X139014287Y-62755043D01*
X139017855Y-62751808D01*
X139092333Y-62690686D01*
X139095284Y-62688446D01*
X139163501Y-62640680D01*
X139168507Y-62637605D01*
X139255115Y-62591313D01*
X139257394Y-62590173D01*
X139327857Y-62557316D01*
X139340889Y-62552330D01*
X139437750Y-62522947D01*
X139507335Y-62504302D01*
X139523226Y-62501410D01*
X139654513Y-62488479D01*
X139697861Y-62484687D01*
X139702157Y-62484500D01*
X155953843Y-62484500D01*
X155958138Y-62484687D01*
G37*
%TD.AperFunction*%
%TD*%
M02*
