M48
; DRILL file {KiCad 7.0.7} date Mon Mar 10 13:51:12 2025
; FORMAT={-:-/ absolute / inch / decimal}
; #@! TF.CreationDate,2025-03-10T13:51:12-04:00
; #@! TF.GenerationSoftware,Kicad,Pcbnew,7.0.7
; #@! TF.FileFunction,Plated,1,2,PTH
FMAT,2
INCH
; #@! TA.AperFunction,Plated,PTH,ViaDrill
T1C0.0157
; #@! TA.AperFunction,Plated,PTH,ComponentDrill
T2C0.0315
%
G90
G05
T1
X5.66Y-2.54
X5.66Y-2.68
X5.66Y-3.5
X5.66Y-3.66
X5.7Y-2.8124
X5.72Y-2.94
X5.72Y-3.04
X5.72Y-3.14
X5.72Y-3.24
X5.72Y-3.34
X5.72Y-3.44
X5.82Y-2.54
X5.82Y-2.68
X5.82Y-2.74
X5.82Y-2.94
X5.82Y-3.04
X5.82Y-3.14
X5.82Y-3.24
X5.82Y-3.34
X5.82Y-3.44
X5.82Y-3.5
X5.82Y-3.66
X5.92Y-2.84
X5.92Y-3.14
X5.92Y-3.24
X5.92Y-3.34
X5.92Y-3.44
X5.94Y-2.7624
X5.94Y-2.9098
X5.94Y-2.96
X5.94Y-3.0124
X5.98Y-2.54
X5.98Y-3.5
X5.98Y-3.66
X6.06Y-2.64
T2
X5.5198Y-2.5372
X5.5198Y-2.6372
X5.5198Y-2.7372
X5.5198Y-2.8372
X5.5198Y-2.9372
X5.5198Y-3.0372
X5.5198Y-3.1372
X5.5198Y-3.2372
X5.5198Y-3.3372
X5.5198Y-3.4372
X5.5198Y-3.5372
X5.5198Y-3.6372
X6.1198Y-2.5372
X6.1198Y-2.6372
X6.1198Y-2.7372
X6.1198Y-2.8372
X6.1198Y-2.9372
X6.1198Y-3.0372
X6.1198Y-3.1372
X6.1198Y-3.2372
X6.1198Y-3.3372
X6.1198Y-3.4372
X6.1198Y-3.5372
X6.1198Y-3.6372
T0
M30
