%TF.GenerationSoftware,KiCad,Pcbnew,7.0.7*%
%TF.CreationDate,2025-03-10T13:51:10-04:00*%
%TF.ProjectId,6116 NVRAM,36313136-204e-4565-9241-4d2e6b696361,rev?*%
%TF.SameCoordinates,Original*%
%TF.FileFunction,Legend,Bot*%
%TF.FilePolarity,Positive*%
%FSLAX46Y46*%
G04 Gerber Fmt 4.6, Leading zero omitted, Abs format (unit mm)*
G04 Created by KiCad (PCBNEW 7.0.7) date 2025-03-10 13:51:10*
%MOMM*%
%LPD*%
G01*
G04 APERTURE LIST*
%ADD10C,0.150000*%
%ADD11C,0.120000*%
G04 APERTURE END LIST*
D10*
X148098166Y-70558819D02*
X148431499Y-70082628D01*
X148669594Y-70558819D02*
X148669594Y-69558819D01*
X148669594Y-69558819D02*
X148288642Y-69558819D01*
X148288642Y-69558819D02*
X148193404Y-69606438D01*
X148193404Y-69606438D02*
X148145785Y-69654057D01*
X148145785Y-69654057D02*
X148098166Y-69749295D01*
X148098166Y-69749295D02*
X148098166Y-69892152D01*
X148098166Y-69892152D02*
X148145785Y-69987390D01*
X148145785Y-69987390D02*
X148193404Y-70035009D01*
X148193404Y-70035009D02*
X148288642Y-70082628D01*
X148288642Y-70082628D02*
X148669594Y-70082628D01*
X147717213Y-69654057D02*
X147669594Y-69606438D01*
X147669594Y-69606438D02*
X147574356Y-69558819D01*
X147574356Y-69558819D02*
X147336261Y-69558819D01*
X147336261Y-69558819D02*
X147241023Y-69606438D01*
X147241023Y-69606438D02*
X147193404Y-69654057D01*
X147193404Y-69654057D02*
X147145785Y-69749295D01*
X147145785Y-69749295D02*
X147145785Y-69844533D01*
X147145785Y-69844533D02*
X147193404Y-69987390D01*
X147193404Y-69987390D02*
X147764832Y-70558819D01*
X147764832Y-70558819D02*
X147145785Y-70558819D01*
X148098166Y-75224819D02*
X148431499Y-74748628D01*
X148669594Y-75224819D02*
X148669594Y-74224819D01*
X148669594Y-74224819D02*
X148288642Y-74224819D01*
X148288642Y-74224819D02*
X148193404Y-74272438D01*
X148193404Y-74272438D02*
X148145785Y-74320057D01*
X148145785Y-74320057D02*
X148098166Y-74415295D01*
X148098166Y-74415295D02*
X148098166Y-74558152D01*
X148098166Y-74558152D02*
X148145785Y-74653390D01*
X148145785Y-74653390D02*
X148193404Y-74701009D01*
X148193404Y-74701009D02*
X148288642Y-74748628D01*
X148288642Y-74748628D02*
X148669594Y-74748628D01*
X147145785Y-75224819D02*
X147717213Y-75224819D01*
X147431499Y-75224819D02*
X147431499Y-74224819D01*
X147431499Y-74224819D02*
X147526737Y-74367676D01*
X147526737Y-74367676D02*
X147621975Y-74462914D01*
X147621975Y-74462914D02*
X147717213Y-74510533D01*
D11*
%TO.C,R2*%
X147676776Y-71105500D02*
X148186224Y-71105500D01*
X147676776Y-72150500D02*
X148186224Y-72150500D01*
%TO.C,R1*%
X148186224Y-76722500D02*
X147676776Y-76722500D01*
X148186224Y-75677500D02*
X147676776Y-75677500D01*
%TD*%
M02*
